<?xml version="1.0" encoding="UTF-8"?><svg id="_Слой_1" xmlns="http://www.w3.org/2000/svg" width="60" height="60" viewBox="0 0 60 60"><defs><style>.cls-1{fill:#fff;}.cls-2{fill:#003be0;}</style></defs><circle class="cls-2" cx="30" cy="30" r="30"/><path class="cls-1" d="M30,21.32c-3.73,0-6.75,3.03-6.75,6.76,.04,6.33,6.22,10.36,6.49,10.52,.16,.1,.37,.1,.53,0,.26-.17,6.45-4.19,6.49-10.53,0-3.73-3.03-6.75-6.75-6.75Zm0,9.22c-1.36,0-2.46-1.1-2.46-2.46,0-1.36,1.1-2.46,2.46-2.46,1.36,0,2.46,1.1,2.46,2.46,0,1.36-1.1,2.46-2.46,2.46Z"/></svg>