<?xml version="1.0" encoding="UTF-8"?><svg id="_Слой_1" xmlns="http://www.w3.org/2000/svg" width="60" height="60" viewBox="0 0 60 60"><defs><style>.cls-1{fill:#fff;}.cls-2{fill:#003be0;}</style></defs><circle class="cls-2" cx="30" cy="30" r="30"/><path class="cls-1" d="M37.4,32.15l-3.72-1.04c-.27-.07-.56,.02-.74,.22l-1.49,1.49c-1.88-.86-3.38-2.37-4.24-4.24l1.49-1.49c.21-.18,.3-.47,.22-.74l-1.04-3.72c-.1-.4-.49-.66-.89-.6l-4.17,.67c-.33,.06-.58,.33-.6,.67-.72,3.99,.62,8.08,3.57,10.86,2.77,2.97,6.87,4.32,10.86,3.57,.3-.07,.6-.3,.6-.6l.67-4.17c.1-.39-.13-.79-.51-.89,0,0,0,0,0,0Z"/></svg>