<svg width="101" height="101" viewBox="0 0 101 101" fill="none" xmlns="http://www.w3.org/2000/svg">
<circle cx="50.5" cy="50.5" r="50.5" fill="url(#paint0_linear)"/>
<path fill-rule="evenodd" clip-rule="evenodd" d="M71.6797 15.9373C72.2702 15.3579 73.0789 15 73.9697 15C75.7736 15 77.2412 16.4676 77.2412 18.2715L77.2392 18.4938C77.2227 20.0851 76.606 21.5928 75.5027 22.7394L72.7153 25.6364C73.0486 26.0342 73.2501 26.5461 73.2501 27.1045V28.9491C73.644 29.1053 74.0044 29.3449 74.3003 29.6562C74.8534 30.2384 75.1473 31.0325 75.1063 31.8345L72.7111 78.7815C72.619 80.5863 71.1312 82 69.3242 82C67.5172 82 66.0294 80.5863 65.9375 78.7816L63.5423 31.8347C63.5013 31.0325 63.7951 30.2386 64.3484 29.6564C64.6441 29.3449 65.0047 29.1055 65.3985 28.9492V27.1045C65.3985 26.5133 65.6256 25.9756 65.9946 25.5689L63.2757 22.7422C62.1706 21.5933 61.5542 20.0827 61.54 18.4887L61.5381 18.2805C61.5381 16.4676 63.0056 15 64.8095 15C65.7003 15 66.509 15.3579 67.0996 15.9373C67.6902 15.3579 68.4989 15 69.3896 15C70.2804 15 71.0891 15.3579 71.6797 15.9373ZM71.2871 27.1045C71.2871 26.9242 71.1404 26.7773 70.9599 26.7773H67.6884C67.508 26.7773 67.3613 26.9242 67.3613 27.1045V28.7402H71.2871V27.1045ZM72.9982 34.6289H65.6501L66.1709 44.8359H72.4775L72.9982 34.6289ZM73.0984 32.666L73.1459 31.7346C73.1598 31.4633 73.0644 31.2054 72.8774 31.0086C72.6903 30.8117 72.4376 30.7033 72.1659 30.7033H66.4827C66.2109 30.7033 65.9584 30.8116 65.7712 31.0086C65.584 31.2055 65.4887 31.4633 65.5024 31.7346L65.5499 32.666H73.0984ZM69.3242 80.0371C70.0853 80.0371 70.7118 79.4417 70.7507 78.6815L72.3774 46.7988H66.271L67.8977 78.6815C67.9366 79.4417 68.5631 80.0371 69.3242 80.0371ZM74.0881 21.3783C74.8429 20.5938 75.2648 19.5622 75.2761 18.4735L75.2783 18.2614C75.2783 17.5499 74.6913 16.9629 73.9697 16.9629C73.2481 16.9629 72.6611 17.5499 72.6611 18.2715C72.6611 18.8135 72.2218 19.2529 71.6797 19.2529C71.1375 19.2529 70.6982 18.8135 70.6982 18.2715C70.6982 17.5499 70.1112 16.9629 69.3896 16.9629C68.6681 16.9629 68.081 17.5499 68.081 18.2715C68.081 18.8135 67.6417 19.2529 67.0996 19.2529C66.5574 19.2529 66.1181 18.8135 66.1181 18.2715C66.1181 17.5499 65.5311 16.9629 64.8095 16.9629C64.088 16.9629 63.5009 17.5499 63.5009 18.2715L63.503 18.471C63.5127 19.5619 63.9345 20.5954 64.6905 21.3815L67.9924 24.8145H70.7821L74.0881 21.3783ZM56.5654 32.666H27.9072C25.2013 32.666 23 34.8673 23 37.5732V53.4072C23 55.0107 23.7732 56.437 24.9663 57.333C23.7732 58.229 23 59.6552 23 61.2588V77.0927C23 79.7987 25.2013 82 27.9072 82H48.4521C48.9942 82 49.4336 81.5605 49.4336 81.0185C49.4336 80.4765 48.9942 80.0371 48.4521 80.0371H27.9072C26.2837 80.0371 24.9629 78.7163 24.9629 77.0927V61.2588C24.9629 59.6352 26.2837 58.3144 27.9072 58.3144H30.459V58.6416C30.459 59.5436 31.1927 60.2773 32.0947 60.2773H35.3662C36.2682 60.2773 37.002 59.5436 37.002 58.6416V58.3144H47.4707V58.6416C47.4707 59.5436 48.2044 60.2773 49.1064 60.2773H52.3779C53.2799 60.2773 54.0137 59.5436 54.0137 58.6416V58.3144H56.5654C58.1889 58.3144 59.5098 59.6352 59.5098 61.2588V77.0927C59.5098 78.7163 58.1889 80.0371 56.5654 80.0371H53.0322C52.4901 80.0371 52.0508 80.4765 52.0508 81.0185C52.0508 81.5605 52.4901 82 53.0322 82H56.5654C59.2713 82 61.4727 79.7987 61.4727 77.0927V61.2588C61.4727 59.6552 60.6994 58.229 59.5064 57.333C60.6994 56.437 61.4727 55.0107 61.4727 53.4072V37.5732C61.4727 34.8673 59.2713 32.666 56.5654 32.666ZM59.5098 53.4072C59.5098 55.0308 58.1889 56.3515 56.5654 56.3515H27.9072C26.2837 56.3515 24.9629 55.0308 24.9629 53.4072V37.5732C24.9629 35.9496 26.2837 34.6289 27.9072 34.6289H56.5654C58.1889 34.6289 59.5098 35.9496 59.5098 37.5732V53.4072ZM55.9111 36.5918H28.5615C27.6595 36.5918 26.9258 37.3255 26.9258 38.2275V44.9014C26.9258 45.4434 27.3652 45.8828 27.9072 45.8828C28.4492 45.8828 28.8887 45.4434 28.8887 44.9014V38.5547H55.584V48.5H27.9726C27.9666 48.5 27.9607 48.5004 27.9548 48.5008C27.9501 48.5011 27.9454 48.5014 27.9406 48.5016L27.932 48.5012L27.9257 48.5008C27.9196 48.5004 27.9135 48.5 27.9072 48.5C27.3652 48.5 26.9258 48.9394 26.9258 49.4814V52.7529C26.9258 53.6549 27.6595 54.3887 28.5615 54.3887H55.9111C56.8131 54.3887 57.5469 53.6549 57.5469 52.7529V38.2275C57.5469 37.3255 56.8131 36.5918 55.9111 36.5918ZM28.8887 52.4258V50.4629H55.584V52.4258H28.8887ZM34.7119 62.2402C35.9746 62.2402 37.0019 63.2676 37.0019 64.5302V66.4931C37.0019 67.7558 35.9746 68.7832 34.7119 68.7832H32.749C31.4864 68.7832 30.459 67.7558 30.459 66.4931V64.5302C30.459 63.2676 31.4864 62.2402 32.749 62.2402H34.7119ZM34.7119 66.8203C34.8922 66.8203 35.0391 66.6735 35.0391 66.4931V64.5302C35.0391 64.3499 34.8922 64.2031 34.7119 64.2031H32.749C32.5687 64.2031 32.4219 64.3499 32.4219 64.5302V66.4931C32.4219 66.6735 32.5687 66.8203 32.749 66.8203H34.7119ZM45.5078 64.5302C45.5078 63.2676 44.4804 62.2402 43.2178 62.2402H41.2549C39.9922 62.2402 38.9649 63.2676 38.9649 64.5302V66.4931C38.9649 67.7558 39.9922 68.7832 41.2549 68.7832H43.2178C44.4804 68.7832 45.5078 67.7558 45.5078 66.4931V64.5302ZM43.5449 66.4931C43.5449 66.6735 43.3981 66.8203 43.2178 66.8203H41.2549C41.0746 66.8203 40.9277 66.6735 40.9277 66.4931V64.5302C40.9277 64.3499 41.0746 64.2031 41.2549 64.2031H43.2178C43.3981 64.2031 43.5449 64.3499 43.5449 64.5302V66.4931ZM51.7236 68.7832H49.7607C48.4981 68.7832 47.4707 67.7558 47.4707 66.4931V64.5302C47.4707 63.2676 48.4981 62.2402 49.7607 62.2402H51.7236C52.9863 62.2402 54.0137 63.2676 54.0137 64.5302V66.4931C54.0137 67.7558 52.9863 68.7832 51.7236 68.7832ZM49.7607 64.2031C49.5804 64.2031 49.4336 64.3499 49.4336 64.5302V66.4931C49.4336 66.6735 49.5804 66.8203 49.7607 66.8203H51.7236C51.9041 66.8203 52.0508 66.6735 52.0508 66.4931V64.5302C52.0508 64.3499 51.9041 64.2031 51.7236 64.2031H49.7607ZM34.7119 70.7461H32.749C31.4864 70.7461 30.459 71.7735 30.459 73.0362V74.999C30.459 76.2617 31.4864 77.2891 32.749 77.2891H34.7119C35.9746 77.2891 37.0019 76.2617 37.0019 74.999V73.0362C37.0019 71.7735 35.9746 70.7461 34.7119 70.7461ZM35.0391 74.999C35.0391 75.1794 34.8922 75.3262 34.7119 75.3262H32.749C32.5687 75.3262 32.4219 75.1794 32.4219 74.999V73.0362C32.4219 72.8558 32.5687 72.709 32.749 72.709H34.7119C34.8922 72.709 35.0391 72.8558 35.0391 73.0362V74.999ZM41.2549 70.7461H43.2178C44.4804 70.7461 45.5078 71.7735 45.5078 73.0362V74.999C45.5078 76.2617 44.4804 77.2891 43.2178 77.2891H41.2549C39.9922 77.2891 38.9649 76.2617 38.9649 74.999V73.0362C38.9649 71.7735 39.9922 70.7461 41.2549 70.7461ZM43.2178 75.3262C43.3981 75.3262 43.5449 75.1794 43.5449 74.999V73.0362C43.5449 72.8558 43.3981 72.709 43.2178 72.709H41.2549C41.0746 72.709 40.9277 72.8558 40.9277 73.0362V74.999C40.9277 75.1794 41.0746 75.3262 41.2549 75.3262H43.2178ZM54.0137 74.999V73.0362C54.0137 71.7735 52.9863 70.7461 51.7236 70.7461H49.7607C48.4981 70.7461 47.4707 71.7735 47.4707 73.0362V74.999C47.4707 76.2617 48.4981 77.2891 49.7607 77.2891H51.7236C52.9863 77.2891 54.0137 76.2617 54.0137 74.999ZM52.0508 74.999C52.0508 75.1794 51.9041 75.3262 51.7236 75.3262H49.7607C49.5804 75.3262 49.4336 75.1794 49.4336 74.999V73.0362C49.4336 72.8558 49.5804 72.709 49.7607 72.709H51.7236C51.9041 72.709 52.0508 72.8558 52.0508 73.0362V74.999Z" fill="white"/>
<defs>
<linearGradient id="paint0_linear" x1="104.047" y1="-2.61207" x2="50.5" y2="101" gradientUnits="userSpaceOnUse">
<stop stop-color="#AA1CB1"/>
<stop offset="1" stop-color="#CD2DC2" stop-opacity="0.94"/>
</linearGradient>
</defs>
</svg>