<svg width="101" height="101" viewBox="0 0 101 101" fill="none" xmlns="http://www.w3.org/2000/svg">
<circle cx="50.5" cy="50.5" r="50.5" fill="url(#paint0_linear)"/>
<path fill-rule="evenodd" clip-rule="evenodd" d="M50.5014 87.0018C27.5291 87.0018 21.0894 57.3569 20.032 51.4174C19.8589 50.4504 20.4019 49.4979 21.3222 49.1542L27.583 46.8179L24.5929 41.6043C24.0471 40.6422 24.3668 39.4205 25.3137 38.849L34.2505 33.5093C34.4142 28.5214 36.474 26.3894 36.5655 26.2979C36.7561 26.1072 37.0147 26.0001 37.2843 26C37.5964 26 44.1023 26.0519 47.924 29.7953C48.3062 29.3255 48.8791 29.052 49.4847 29.0501H51.5181C52.1237 29.052 52.6965 29.3255 53.0787 29.7953C56.9005 26.0519 63.4063 26 63.7184 26C63.988 26.0001 64.2466 26.1072 64.4372 26.2979L64.4399 26.3007C64.5631 26.4303 66.5909 28.5632 66.7522 33.5114L75.688 38.8582C76.6349 39.4244 76.9575 40.6425 76.4149 41.6032L73.4157 46.8209L79.6805 49.1532C80.6052 49.4964 81.1477 50.4564 80.9646 51.4255C79.9083 57.3549 73.4736 87.0018 50.5014 87.0018ZM47.924 38.4738C44.5923 41.7374 39.2354 42.195 37.7042 42.258V42.256C36.5828 49.2457 35.4319 67.1152 49.4847 79.7192V39.217C48.8794 39.2156 48.3066 38.9429 47.924 38.4738ZM63.2985 42.258C61.7674 42.195 56.4104 41.7374 53.0787 38.4738V38.4718C52.6965 38.9416 52.1237 39.2151 51.5181 39.217V79.7192C65.5708 67.1152 64.4199 49.2457 63.2985 42.258ZM71.5124 47.5245C71.3027 46.9617 71.3526 46.3349 71.6487 45.8124L74.651 40.5916L66.6872 35.8396C66.5641 37.6534 66.036 39.4165 65.1418 40.9993C66.3689 47.7014 68.4766 68.4979 51.5181 82.4053V84.947C72.0441 84.0676 77.9766 56.628 78.9689 51.0565L72.707 48.7201C72.1521 48.5171 71.715 48.0796 71.5124 47.5245ZM64.7351 34.1336C64.8503 32.0027 64.3294 29.8857 63.2385 28.0517C61.563 28.1483 55.9529 28.7451 53.5504 32.393V33.063C56.0017 32.8068 56.689 31.6782 56.7205 31.6233C56.9939 31.1422 57.5983 30.9627 58.09 31.2167C58.5756 31.4693 58.7699 32.064 58.5272 32.5546C58.1404 33.2205 57.5775 33.7668 56.9005 34.1336C57.5798 34.4994 58.1448 35.0458 58.5333 35.7125C58.7902 36.2131 58.5926 36.8271 58.092 37.084C57.5914 37.3409 56.9774 37.1434 56.7205 36.6428C56.6707 36.5574 55.9671 35.4573 53.5525 35.2052V35.8731C55.9549 39.5231 61.5661 40.1178 63.2406 40.2144C64.3296 38.3801 64.8498 36.2638 64.7351 34.1336ZM51.5181 31.0835H49.4847V37.1837H51.5181V32.1002V31.0835ZM47.4513 32.393C45.0488 28.743 39.4367 28.1534 37.7632 28.0517C36.6731 29.886 36.1525 32.0029 36.2676 34.1336C36.1533 36.2647 36.6753 38.3817 37.7673 40.2154C39.4428 40.1189 45.0529 39.5231 47.4543 35.8742V35.2062C45.0031 35.4624 44.3158 36.5909 44.2843 36.6458C44.099 36.9679 43.7561 37.1667 43.3845 37.1674C43.0358 37.1673 42.7117 36.9875 42.5269 36.6918C42.3422 36.396 42.3228 36.026 42.4756 35.7125C42.8623 35.0466 43.4252 34.5003 44.1023 34.1336C43.4248 33.767 42.8616 33.2206 42.4746 32.5546C42.3084 32.2315 42.3272 31.8443 42.5239 31.5389C42.7206 31.2334 43.0654 31.0561 43.4283 31.0737C43.7912 31.0914 44.1171 31.3013 44.2833 31.6244C44.3331 31.7098 45.0366 32.8098 47.4513 33.062V32.393ZM29.4957 47.5092C29.2927 48.0707 28.8531 48.5146 28.2937 48.7232L22.0339 51.0595C23.0252 56.629 28.9647 84.0371 49.4847 84.9257V82.391C32.5404 68.4847 34.6409 47.6993 35.8609 40.9993C34.9666 39.4162 34.4385 37.6527 34.3156 35.8386L26.3569 40.5937L29.348 45.8073C29.6447 46.3254 29.6987 46.9477 29.4957 47.5092ZM59.6529 46.3338C59.6529 48.0183 58.2873 49.3839 56.6028 49.3839C54.9183 49.3839 53.5527 48.0183 53.5527 46.3338C53.5527 44.6493 54.9183 43.2837 56.6028 43.2837C58.2873 43.2837 59.6529 44.6493 59.6529 46.3338ZM57.6195 46.3338C57.6195 45.7723 57.1643 45.3171 56.6028 45.3171C56.0413 45.3171 55.5861 45.7723 55.5861 46.3338C55.5861 46.8953 56.0413 47.3505 56.6028 47.3505C57.1643 47.3505 57.6195 46.8953 57.6195 46.3338ZM56.6028 58.5342C58.2873 58.5342 59.6529 57.1686 59.6529 55.4841C59.6529 53.7996 58.2873 52.434 56.6028 52.434C54.9183 52.434 53.5527 53.7996 53.5527 55.4841C53.5527 57.1686 54.9183 58.5342 56.6028 58.5342ZM56.6028 54.4674C57.1643 54.4674 57.6195 54.9226 57.6195 55.4841C57.6195 56.0456 57.1643 56.5008 56.6028 56.5008C56.0413 56.5008 55.5861 56.0456 55.5861 55.4841C55.5861 54.9226 56.0413 54.4674 56.6028 54.4674ZM59.6529 64.6345C59.6529 66.319 58.2873 67.6846 56.6028 67.6846C54.9183 67.6846 53.5527 66.319 53.5527 64.6345C53.5527 62.95 54.9183 61.5844 56.6028 61.5844C58.2873 61.5844 59.6529 62.95 59.6529 64.6345ZM57.6195 64.6345C57.6195 64.073 57.1643 63.6178 56.6028 63.6178C56.0413 63.6178 55.5861 64.073 55.5861 64.6345C55.5861 65.196 56.0413 65.6512 56.6028 65.6512C57.1643 65.6512 57.6195 65.196 57.6195 64.6345Z" fill="white"/>
<defs>
<linearGradient id="paint0_linear" x1="104.047" y1="-2.61207" x2="50.5" y2="101" gradientUnits="userSpaceOnUse">
<stop stop-color="#AA1CB1"/>
<stop offset="1" stop-color="#CD2DC2" stop-opacity="0.94"/>
</linearGradient>
</defs>
</svg>