<svg width="101" height="101" viewBox="0 0 101 101" fill="none" xmlns="http://www.w3.org/2000/svg">
<circle cx="50.5" cy="50.5" r="50.5" fill="url(#paint0_linear)"/>
<path fill-rule="evenodd" clip-rule="evenodd" d="M67.0372 28.8291C69.6058 29.7894 70.7307 32.2986 71.1725 33.709C71.323 34.1894 71.7627 34.5122 72.2666 34.5122C72.7707 34.5122 73.2103 34.1894 73.3608 33.709C73.4956 33.2788 73.6593 32.8565 73.8476 32.4542C74.0506 32.0205 73.8634 31.5046 73.4296 31.3015C72.9962 31.0989 72.4799 31.2857 72.2771 31.7196L72.2667 31.7416C71.6308 30.374 70.5613 28.7832 68.8054 27.756C70.5612 26.7288 71.6308 25.1382 72.2666 23.7706C72.9028 25.1385 73.9724 26.7295 75.729 27.7566C75.4902 27.8964 75.2589 28.0497 75.0359 28.2159C74.652 28.502 74.5726 29.045 74.8587 29.429C75.1449 29.8127 75.6879 29.8921 76.0719 29.6062C76.5091 29.2804 76.9881 29.0189 77.4962 28.829C77.947 28.6604 78.2383 28.2392 78.2383 27.756C78.2383 27.2728 77.947 26.8518 77.4961 26.683C74.9274 25.7226 73.8025 23.2134 73.3607 21.8031C73.2102 21.3228 72.7705 21 72.2665 21C71.7627 21 71.3229 21.3228 71.1724 21.8032C70.7306 23.2136 69.6058 25.7227 67.0369 26.6832C66.5861 26.8518 66.2948 27.273 66.2948 27.7561C66.2948 28.2393 66.5862 28.6604 67.0372 28.8291ZM58.5798 42.1516C58.239 41.0636 57.3731 39.1284 55.406 38.3929C54.9778 38.2328 54.7009 37.8328 54.7007 37.374C54.7005 36.915 54.9774 36.515 55.4058 36.3546C57.373 35.6191 58.2388 33.6839 58.5798 32.5958C58.7229 32.1395 59.1405 31.8331 59.6189 31.8331C60.0973 31.8331 60.5148 32.1397 60.6579 32.5959C60.9988 33.6839 61.8644 35.619 63.8318 36.3545C64.2605 36.5151 64.5372 36.9152 64.537 37.374C64.5369 37.8328 64.26 38.2327 63.8318 38.3929C61.8643 39.1285 60.9987 41.0636 60.6579 42.1516C60.5148 42.6078 60.0972 42.9144 59.6189 42.9144C59.1404 42.9144 58.7229 42.6078 58.5798 42.1516ZM62.0251 37.3737C60.8747 36.6246 60.114 35.5784 59.6188 34.6175C59.1236 35.5784 58.3628 36.6245 57.2125 37.3737C58.3628 38.1231 59.1236 39.1691 59.6188 40.1298C60.114 39.169 60.8747 38.123 62.0251 37.3737ZM78.625 50.7357C78.3192 50.341 77.8586 50.0903 77.3612 50.0477L55.5216 48.1772C54.6004 48.099 53.7564 48.7509 53.6019 49.6631L53.2727 51.606L50.45 68.2613C50.3774 68.6906 50.164 68.657 49.8108 68.6014L49.8107 68.6013L49.8106 68.6013C49.7405 68.5903 49.6649 68.5784 49.5838 68.569C49.251 68.5308 48.9159 68.5137 48.5809 68.5165C47.8957 68.5222 47.2115 68.6114 46.5468 68.777C42.7553 69.7219 40.2905 72.9777 41.0523 76.0344C41.4313 77.5554 42.5272 78.7869 44.1381 79.5017C45.0731 79.9166 46.119 80.1267 47.2001 80.1267C47.8956 80.1267 48.6058 80.0396 49.3099 79.8641C50.8859 79.4712 52.3763 78.6368 53.4554 77.4123C54.5331 76.1892 54.8313 74.8176 55.0952 73.2604C55.1938 72.6786 57.9317 56.5308 57.9859 56.2624C58.058 55.9059 58.2482 55.9243 58.5426 55.9527C58.5708 55.9554 58.5999 55.9582 58.63 55.9608L72.3673 57.1373C72.4871 57.1476 72.635 57.1852 72.6093 57.3374L72.3927 58.62C71.9061 61.503 70.7919 68.1042 70.7679 68.2022C70.6916 68.5133 70.3676 68.436 70.0908 68.3699C70.0082 68.3502 69.9298 68.3314 69.8634 68.3243C69.5406 68.2898 69.2157 68.2749 68.891 68.2788C68.2158 68.2869 67.5418 68.3758 66.8867 68.5391C65.0883 68.9874 63.5267 69.963 62.4898 71.2864C61.4028 72.6736 61.0131 74.2752 61.3921 75.7963C62.0122 78.2846 64.5817 79.8859 67.5613 79.8857C68.2421 79.8857 68.9447 79.8021 69.6498 79.6263C72.2494 78.9784 74.3333 77.1998 75.0318 75.0568C75.3333 74.1319 78.0827 57.5115 78.736 53.5626L78.736 53.5624C78.813 53.0969 78.8609 52.8075 78.8722 52.7407L78.9752 52.1315C79.0584 51.6393 78.9308 51.1304 78.625 50.7357ZM77.2605 51.8427C77.2593 51.8978 73.5489 73.9333 73.4308 74.3617C72.9759 76.0154 71.3273 77.4215 69.2306 77.9441C66.367 78.6579 63.6052 77.5063 63.0745 75.3773C62.8275 74.3862 63.1045 73.3133 63.8546 72.356C64.6545 71.3351 65.8804 70.577 67.306 70.2217C68.3147 69.9703 69.3479 69.9442 70.2944 70.1464C70.7738 70.2488 71.2801 70.1503 71.6842 69.8763C72.0912 69.6001 72.3606 69.1809 72.443 68.6957L74.3382 57.5128C74.4216 57.0203 74.2942 56.5115 73.9886 56.1166C73.6829 55.7216 73.2221 55.4707 72.7244 55.4279L58.237 54.1872C57.3152 54.1094 56.4717 54.761 56.3173 55.6732L53.1724 74.2301C53.1684 74.2472 53.1648 74.2645 53.1617 74.2818C52.8537 76.0547 51.1374 77.6219 48.8907 78.1819C47.4652 78.5371 46.0271 78.4431 44.8415 77.9169C43.7298 77.4237 42.9818 76.6062 42.7347 75.6152C42.2041 73.486 44.1024 71.1733 46.9662 70.4595C47.5265 70.3199 48.0946 70.2499 48.6513 70.2499C49.0942 70.2499 49.5298 70.2942 49.9485 70.383C50.4275 70.4851 50.9338 70.3859 51.3374 70.1118C51.7439 69.8355 52.013 69.4166 52.0951 68.9318L55.2474 50.3313C55.2966 50.0408 55.3571 49.9033 55.6666 49.9297L56.2706 49.9818C59.7521 50.282 77.0685 51.775 77.2136 51.7751C77.2506 51.7753 77.2613 51.8047 77.2605 51.8427ZM40.3365 65.8327C37.5176 64.7787 36.2849 62.0304 35.8011 60.4861C35.6475 59.9957 35.1986 59.6663 34.6841 59.6663H34.684C34.1697 59.6663 33.7208 59.9956 33.5671 60.486V60.4861C33.0832 62.0304 31.8505 64.7787 29.0318 65.8327C28.5715 66.0047 28.2741 66.4345 28.274 66.9278C28.2739 67.421 28.5712 67.8512 29.0316 68.0233C31.8504 69.0773 33.0832 71.8255 33.5671 73.3698C33.7208 73.8602 34.1697 74.1898 34.6841 74.1897C35.1986 74.1897 35.6475 73.8601 35.8009 73.3698C36.2848 71.8255 37.5176 69.0773 40.3366 68.0232C40.7969 67.851 41.0943 67.421 41.0942 66.9278C41.094 66.4345 40.7966 66.0047 40.3365 65.8327ZM34.684 71.4347C33.9947 69.8998 32.7978 68.0677 30.776 66.928C32.798 65.7883 33.9947 63.9562 34.684 62.4212C35.3733 63.9562 36.5701 65.7882 38.5921 66.928C36.5702 68.0677 35.3734 69.8997 34.684 71.4347ZM30.6035 33.9615C31.1718 37.5222 33.3394 51.1049 33.3902 51.541C33.4379 51.9505 33.4505 52.3604 33.4125 52.7725C33.3699 53.2342 33.2702 53.69 33.1242 54.1299C32.5546 55.8462 31.3067 57.2982 29.795 58.2656C28.3172 59.2113 26.5351 59.7368 24.7782 59.5735C23.0233 59.4103 21.5916 58.5933 20.7467 57.273C19.0488 54.6194 20.3451 50.7472 23.6364 48.6413C24.2144 48.2714 24.8353 47.968 25.4839 47.7438C25.7942 47.6364 26.1108 47.5471 26.4319 47.4778C26.503 47.4624 26.5736 47.451 26.6413 47.44C26.9716 47.3865 27.2348 47.3439 27.1709 46.9092C27.1503 46.7687 24.9399 32.8231 24.358 29.1522C24.2712 28.6045 24.2206 28.2855 24.219 28.2752C24.0743 27.3613 24.6649 26.4734 25.5637 26.2539L46.8574 21.0531C47.3428 20.9345 47.8592 21.025 48.275 21.3017C48.6907 21.5781 48.9741 22.0194 49.0524 22.5127L52.4061 43.6301C52.4214 43.7265 52.4369 43.8213 52.4521 43.9149C52.5551 44.5454 52.6491 45.1216 52.6267 45.7802C52.6014 46.5235 52.4158 47.2557 52.124 47.9384C51.4881 49.4256 50.3504 50.6777 48.9943 51.5454C47.8714 52.2641 46.617 52.7127 45.3668 52.8429C44.8905 52.8915 44.4643 52.5465 44.4148 52.0703C44.3652 51.5942 44.7111 51.1678 45.1872 51.1183C46.1701 51.0159 47.1633 50.6586 48.0598 50.0849C49.0617 49.4438 49.9267 48.5456 50.4422 47.4664C50.9869 46.3259 50.9112 45.2722 50.7184 44.0583L47.3399 22.7845C47.3389 22.7777 47.3359 22.7592 47.3147 22.7452C47.2937 22.731 47.2758 22.7354 47.2688 22.7373L25.975 27.9382C25.9454 27.9455 25.9266 27.9737 25.9315 28.0038L28.9436 47.0162C29.0205 47.5017 28.8994 47.9847 28.6023 48.3761C28.3074 48.7649 27.8593 49.0203 27.3728 49.0769C26.4133 49.1883 25.4445 49.5426 24.571 50.1016C22.0849 51.6923 21.0245 54.4902 22.2072 56.3385C22.7576 57.1987 23.7276 57.7344 24.9386 57.847C26.2306 57.9668 27.623 57.5971 28.8605 56.8051C30.7165 55.6173 31.9461 53.6173 31.6039 51.3626C31.5092 50.7384 31.409 50.115 31.3089 49.4916C31.2586 49.1784 31.2083 48.8652 31.1586 48.5519L28.7123 33.1099L28.7112 33.1034C28.5665 32.1895 29.1571 31.3017 30.0558 31.0821L44.1811 27.6321C44.6664 27.5136 45.1831 27.6041 45.599 27.8809C46.0149 28.1576 46.2982 28.5991 46.3762 29.0924L48.1508 40.2954C48.2279 40.7813 48.1065 41.2646 47.809 41.6562C47.5136 42.045 47.065 42.3001 46.5781 42.3562C45.6166 42.4668 44.6456 42.8215 43.77 43.3817C41.2841 44.9724 40.2237 47.7703 41.4062 49.6185C41.5627 49.8629 41.7546 50.0835 41.9767 50.2742C42.3399 50.5861 42.3816 51.1334 42.0697 51.4967C41.7578 51.8599 41.2104 51.9014 40.8472 51.5896C40.4967 51.2887 40.1933 50.9399 39.9457 50.5529C38.2479 47.8995 39.5442 44.0273 42.8354 41.9212C43.3998 41.5602 44.005 41.2624 44.637 41.0397C44.9559 40.9273 45.2816 40.834 45.6118 40.7619C45.7029 40.742 45.7893 40.7287 45.8691 40.7165C46.224 40.6622 46.448 40.6279 46.3667 40.115L44.7079 29.6432C44.6673 29.3869 44.5548 29.3256 44.3053 29.3866L30.724 32.7038C30.4418 32.7727 30.4249 32.8395 30.4689 33.1172C30.4744 33.1522 30.5228 33.4558 30.6035 33.9615Z" fill="white"/>
<defs>
<linearGradient id="paint0_linear" x1="104.047" y1="-2.61207" x2="50.5" y2="101" gradientUnits="userSpaceOnUse">
<stop stop-color="#AA1CB1"/>
<stop offset="1" stop-color="#CD2DC2" stop-opacity="0.94"/>
</linearGradient>
</defs>
</svg>