<svg width="101" height="101" viewBox="0 0 101 101" fill="none" xmlns="http://www.w3.org/2000/svg">
<circle cx="50.5" cy="50.5" r="50.5" fill="url(#paint0_linear)"/>
<path fill-rule="evenodd" clip-rule="evenodd" d="M32.8378 28.1871C34.8454 29.055 36.1629 31.408 36.6361 32.3795C36.8467 32.8118 37.2762 33.0803 37.7569 33.0803C38.2377 33.0803 38.6672 32.8118 38.8777 32.3794C39.351 31.408 40.6683 29.0549 42.676 28.1871C43.1352 27.9887 43.432 27.5385 43.432 27.0403C43.432 26.5421 43.1352 26.0918 42.6761 25.8934C40.6684 25.0255 39.3511 22.6724 38.8777 21.7009C38.6672 21.2685 38.2377 21 37.7569 21C37.2762 21 36.8467 21.2685 36.6361 21.7008V21.7009C36.1629 22.6723 34.8454 25.0255 32.8379 25.8933C32.3786 26.0918 32.0818 26.5419 32.0818 27.0402C32.0819 27.5385 32.3786 27.9887 32.8378 28.1871ZM37.7569 23.2847C38.4523 24.5085 39.5718 26.0668 41.1455 27.0402C39.5718 28.0138 38.4523 29.572 37.7569 30.7957C37.0615 29.572 35.942 28.0138 34.3684 27.0403C35.942 26.0668 37.0615 24.5085 37.7569 23.2847ZM61.0869 56.7158C61.4248 56.378 61.9728 56.378 62.3108 56.7158L65.9276 60.3325C66.613 61.018 66.6131 62.1333 65.9277 62.8188L63.6227 65.1239C63.2801 65.4666 62.8299 65.6378 62.3797 65.6379C61.9294 65.6379 61.4793 65.4666 61.1366 65.1239L60.6836 64.6709L25.2101 79.7777C24.9163 79.9028 24.6082 79.9637 24.3033 79.9637C23.7055 79.9637 23.1197 79.7297 22.6769 79.2867C22.0081 78.618 21.8155 77.6236 22.1861 76.7536L37.2928 41.2801L36.8398 40.8271C36.5078 40.4953 36.3249 40.0537 36.3249 39.5841C36.3249 39.1145 36.5078 38.673 36.8399 38.341L39.1448 36.036C39.8303 35.3506 40.9456 35.3506 41.631 36.036L59.4765 53.8813C59.8145 54.2193 59.8145 54.7672 59.4765 55.1053C59.1386 55.4432 58.5906 55.4432 58.2526 55.1053L40.4073 37.2599C40.3966 37.2493 40.3795 37.2493 40.3688 37.2599L38.0639 39.5648C38.0611 39.5677 38.056 39.5728 38.056 39.5841C38.056 39.5953 38.0611 39.6004 38.0638 39.6031L62.3604 63.8999C62.371 63.9106 62.3882 63.9104 62.3989 63.8999L64.7037 61.595C64.7142 61.5845 64.7144 61.5673 64.7037 61.5567L61.0869 57.9398C60.7489 57.6018 60.7489 57.054 61.0869 56.7158ZM53.2139 57.2011L38.6124 42.5996L36.7706 46.9243L53.2139 57.2011ZM23.9008 78.0628C23.9832 78.1453 24.2098 78.3227 24.5319 78.1853L30.242 75.7534L25.7017 72.9158L23.7785 77.4317C23.6414 77.7538 23.8183 77.9804 23.9008 78.0628ZM26.3883 71.3037L32.184 74.9259L36.3 73.1731L27.8431 67.8879L27.3913 68.9484L26.3883 71.3037ZM28.5294 66.2758L38.2429 72.3462L41.8993 70.789L29.8222 63.2402L28.5294 66.2758ZM37.9903 59.9378L49.9002 67.3818L53.5583 65.824L33.9424 53.5653L32.6501 56.6L34.5831 57.8081C34.9884 58.0613 35.1116 58.5954 34.8583 59.0007C34.605 59.4059 34.0712 59.5293 33.6657 59.276L31.9636 58.2122L31.1355 60.1566L30.5089 61.6281L43.8415 69.9618L47.9575 68.2089L37.0729 61.4057C36.6675 61.1523 36.5444 60.6184 36.7977 60.213C37.051 59.8077 37.5851 59.6846 37.9903 59.9378ZM34.6292 51.9533L55.5008 64.9967L59.3642 63.3515L58.6569 62.6443L36.0843 48.5365L34.6292 51.9533ZM71.4591 63.4276C69.5353 63.4276 67.9702 64.9927 67.9702 66.9164C67.9702 68.8402 69.5353 70.4052 71.4591 70.4052C73.3828 70.4052 74.9479 68.8401 74.9479 66.9164C74.9479 64.9928 73.3828 63.4276 71.4591 63.4276ZM71.4591 68.6744C70.4898 68.6744 69.7012 67.8858 69.7012 66.9166C69.7012 65.9472 70.4898 65.1586 71.4591 65.1586C72.4284 65.1586 73.217 65.9472 73.217 66.9166C73.217 67.8858 72.4284 68.6744 71.4591 68.6744ZM65.2771 72.342C63.7104 71.6648 62.6733 69.8097 62.3001 69.0435C62.1019 68.6369 61.6979 68.384 61.2457 68.384C60.7935 68.384 60.3895 68.6368 60.1913 69.0435C59.8182 69.8097 58.781 71.6647 57.2143 72.342C56.7826 72.5286 56.5037 72.952 56.5037 73.4206C56.5037 73.8892 56.7826 74.3125 57.2143 74.4992C58.7811 75.1764 59.8182 77.0314 60.1913 77.7976C60.3895 78.2043 60.7935 78.4571 61.2457 78.4571C61.6979 78.4571 62.1019 78.2044 62.3001 77.7976C62.6733 77.0314 63.7105 75.1763 65.2771 74.4992C65.7088 74.3126 65.9877 73.8892 65.9877 73.4206C65.9877 72.952 65.7087 72.5286 65.2771 72.342ZM61.2456 76.1149C60.705 75.2158 59.9033 74.1574 58.8223 73.4205C59.9034 72.6835 60.7051 71.6251 61.2456 70.726C61.7862 71.625 62.5881 72.6835 63.6689 73.4205C62.5881 74.1574 61.7862 75.2159 61.2456 76.1149ZM78.7832 53.9087C77.663 52.6405 76.1803 51.9061 74.6081 51.8412C73.8661 51.8099 73.132 51.9293 72.4349 52.1857C70.934 51.2921 68.9823 51.2133 66.8137 51.9824C66.3632 52.1421 66.1275 52.6368 66.2872 53.0872C66.4469 53.5378 66.9415 53.7738 67.3921 53.6138C68.169 53.3383 69.3963 53.0332 70.5597 53.2912C70.4571 53.3785 70.3563 53.4695 70.2577 53.5641C69.0688 54.7046 68.808 56.5892 69.664 57.8547C70.1491 58.5719 71.0253 59.0333 71.9507 59.0588L71.9805 59.0595C71.9982 59.0598 72.0159 59.0599 72.0335 59.0599C72.8608 59.0599 73.5947 58.7157 74.0567 58.1077C74.3263 57.7527 74.5115 57.3093 74.6071 56.7899C74.8108 55.6837 74.558 54.5224 73.9402 53.5932C74.1378 53.5701 74.337 53.5626 74.5366 53.5707C75.6333 53.6162 76.6808 54.1431 77.4859 55.0546C77.8023 55.4129 78.3492 55.4467 78.7075 55.1303C79.0658 54.8139 79.0996 54.2669 78.7832 53.9087ZM72.9048 56.4765C72.8587 56.727 72.7825 56.9235 72.6785 57.0605C72.4859 57.314 72.1384 57.3321 71.9985 57.3285C71.6266 57.3183 71.273 57.1441 71.0977 56.885C70.7135 56.3169 70.8775 55.3681 71.4559 54.8133C71.6981 54.581 71.9561 54.3792 72.2258 54.2096C72.786 54.7982 73.0517 55.678 72.9048 56.4765ZM60.4083 48.2788C61.9658 46.9875 64.4165 45.9831 67.1322 45.5231C69.8395 45.0644 72.4811 45.2007 74.3803 45.8969C74.8291 46.0614 75.0595 46.5584 74.8951 47.0073C74.7305 47.4561 74.2335 47.6866 73.7846 47.5221C70.3721 46.2712 64.2934 47.3062 61.5131 49.6113C61.3515 49.7454 61.1558 49.8106 60.9611 49.8106C60.7125 49.8106 60.4656 49.704 60.2945 49.4975C59.9894 49.1295 60.0404 48.584 60.4083 48.2788ZM52.6855 41.1928C52.4908 41.1928 52.2951 41.1275 52.1335 40.9935C51.7657 40.6884 51.7147 40.1428 52.0196 39.7749C54.3249 36.9945 55.3598 30.9162 54.109 27.5034C53.9445 27.0545 54.175 26.5575 54.6238 26.393C55.0724 26.229 55.5697 26.459 55.7342 26.9078C56.4303 28.8068 56.5664 31.4487 56.1079 34.1558C55.6479 36.8716 54.6434 39.3224 53.3521 40.8798C53.181 41.0862 52.9341 41.1928 52.6855 41.1928ZM71.9542 30.5706C73.1294 31.5466 75.0305 31.4723 76.2824 30.4012C76.3863 30.3123 76.4867 30.221 76.5836 30.1275C76.726 31.3104 76.3018 32.5019 75.9514 33.248C75.7481 33.6806 75.9342 34.1961 76.3668 34.3993C76.4858 34.4552 76.611 34.4817 76.7342 34.4817C77.0591 34.4817 77.3707 34.2976 77.5181 33.984C78.4964 31.9015 78.6096 29.9518 77.868 28.3702C78.1917 27.7016 78.382 26.9825 78.4244 26.2414C78.514 24.6704 77.9291 23.1228 76.7771 21.8834C76.4517 21.5334 75.904 21.5134 75.5539 21.8387C75.2038 22.1641 75.1839 22.7117 75.5093 23.0619C76.3372 23.9526 76.7589 25.0467 76.6962 26.1426C76.6848 26.342 76.6577 26.5394 76.6152 26.734C75.7514 26.0277 74.6204 25.6613 73.4996 25.7561C72.9729 25.8002 72.5134 25.9411 72.1339 26.1744C71.4619 26.5877 71.0415 27.3174 70.9806 28.1766C70.9151 29.1002 71.2881 30.0175 71.9542 30.5706ZM72.7073 28.2992C72.7172 28.1592 72.7696 27.8157 73.0409 27.6487C73.9088 27.1149 75.2365 27.687 75.8333 28.3793C75.6381 28.6311 75.4119 28.868 75.157 29.0862C74.5479 29.6072 73.5876 29.6774 73.0601 29.2391C72.8194 29.0392 72.6808 28.6703 72.7073 28.2992ZM61.2948 31.7789C61.2874 31.198 61.6044 30.6732 62.1221 30.4094C62.6398 30.1456 63.2507 30.1978 63.7163 30.5452L66.0035 32.252L68.7062 31.3356C69.2566 31.1487 69.8535 31.2883 70.2645 31.6991C70.6753 32.11 70.8147 32.7069 70.6281 33.2572L69.7115 35.96L71.4184 38.2472C71.766 38.713 71.8179 39.3239 71.5541 39.8415C71.2159 40.5052 70.6341 40.6932 69.9629 40.6567C69.3969 40.6259 68.8368 40.6292 68.2746 40.6325C67.9611 40.6344 67.647 40.6363 67.3309 40.6322L65.6831 42.9623C64.9735 43.9659 63.3655 43.7171 62.9987 42.5372L62.1516 39.8118L59.4264 38.9647C58.8717 38.7924 58.4704 38.3288 58.3794 37.7549C58.2884 37.181 58.5267 36.6159 59.0011 36.2805L61.3313 34.6326L61.2948 31.7789ZM68.8488 33.115L66.4523 33.9276C65.9797 34.088 65.459 34.0053 65.0593 33.7067L63.0314 32.1935L63.0637 34.7238C63.0702 35.2226 62.8308 35.6924 62.4235 35.9804L60.3574 37.4416L62.7737 38.1927C63.2503 38.3411 63.623 38.7138 63.7711 39.1901L64.5222 41.6064L65.9833 39.5405C66.2713 39.1331 66.7424 38.8909 67.2398 38.9002L69.7703 38.9325L68.2568 36.9044C67.9584 36.5046 67.8759 35.9839 68.0361 35.5115L68.8488 33.115ZM60.9607 28.5913C62.8844 28.5913 64.4495 27.0262 64.4495 25.1024C64.4495 23.1787 62.8846 21.6136 60.9607 21.6136C59.0369 21.6136 57.4718 23.1787 57.4718 25.1023C57.4718 27.0259 59.0369 28.5913 60.9607 28.5913ZM60.9607 23.3445C61.93 23.3445 62.7186 24.1331 62.7186 25.1023C62.7186 26.0716 61.93 26.8602 60.9607 26.8602C59.9914 26.8602 59.2028 26.0716 59.2028 25.1023C59.2028 24.1331 59.9914 23.3445 60.9607 23.3445ZM51.2196 32.2151C51.2196 34.1387 49.6545 35.7038 47.7308 35.7038C45.8071 35.7038 44.2419 34.1388 44.2419 32.2151C44.2419 30.2913 45.8071 28.7262 47.7308 28.7262C49.6545 28.7262 51.2196 30.2914 51.2196 32.2151ZM49.4887 32.215C49.4887 31.2456 48.7001 30.457 47.7308 30.457C46.7615 30.457 45.9729 31.2456 45.9729 32.215C45.9729 33.1842 46.7615 33.9728 47.7308 33.9728C48.7001 33.9728 49.4887 33.1842 49.4887 32.215Z" fill="white"/>
<defs>
<linearGradient id="paint0_linear" x1="104.047" y1="-2.61207" x2="50.5" y2="101" gradientUnits="userSpaceOnUse">
<stop stop-color="#AA1CB1"/>
<stop offset="1" stop-color="#CD2DC2" stop-opacity="0.94"/>
</linearGradient>
</defs>
</svg>