<svg width="101" height="101" viewBox="0 0 101 101" fill="none" xmlns="http://www.w3.org/2000/svg">
<circle cx="50.5" cy="50.5" r="50.5" fill="url(#paint0_linear)"/>
<path fill-rule="evenodd" clip-rule="evenodd" d="M76.4052 38.4217C76.8428 38.1879 77.3417 38.0549 77.8709 38.0549C79.5968 38.0549 81 39.4635 81 41.1951C81 42.9268 79.5964 44.3358 77.8709 44.3358C77.3413 44.3358 76.8424 44.2027 76.4052 43.969C75.5772 45.7478 73.7783 46.9838 71.6966 46.9838H67.0833C66.2999 46.9838 65.5571 46.8078 64.8904 46.4949C64.7812 47.3177 64.4951 48.114 64.0377 48.8354L60.3626 54.6367C60.2019 54.8902 60.0228 55.1252 59.8314 55.3446C61.0055 55.8146 62.0369 56.6665 62.7163 57.8477L66.3641 64.1884C67.9716 66.9825 67.0145 70.5683 64.2303 72.1816L63.0839 72.8457C62.1679 73.3763 61.1666 73.6286 60.178 73.6286C58.1617 73.6286 56.1979 72.5792 55.1191 70.7039L51.4713 64.3636C51.1272 63.7656 50.9019 63.1319 50.7857 62.4888C50.0517 62.8872 49.2121 63.1138 48.3212 63.1138H44.6651C43.8552 63.1138 43.0881 62.9268 42.4042 62.5933C42.3039 63.3386 42.0588 64.0642 41.6728 64.735L38.025 71.0758C36.9466 72.9506 34.9823 74 32.9656 74C31.977 74 30.9762 73.7482 30.0602 73.2171L28.9142 72.5531C26.13 70.9398 25.1724 67.354 26.78 64.5599L30.4278 58.2191C31.2066 56.8657 32.4638 55.8975 33.9681 55.4928C34.0192 55.4791 34.0702 55.4673 34.1213 55.4554C34.1298 55.4534 34.1383 55.4514 34.1469 55.4495L31.1021 48.987C30.651 48.0298 30.5981 46.9535 30.9536 45.9563C31.2318 45.1759 31.7349 44.5186 32.397 44.052L30.215 39.4526C29.9599 38.9148 30.1877 38.2713 30.7236 38.0153C31.2595 37.7592 31.9006 37.9875 32.1562 38.5253L34.3403 43.1285C35.1212 42.9095 35.9487 42.936 36.7279 43.2156C37.7216 43.5727 38.5172 44.2966 38.9683 45.2538L42.0164 51.7226C42.0848 51.8679 42.1431 52.0161 42.1931 52.166C42.9287 51.7651 43.7709 51.5373 44.6651 51.5373H48.3212C48.8113 51.5373 49.2847 51.6072 49.7345 51.7348C49.693 50.6037 49.9791 49.4498 50.6287 48.4244L54.3042 42.6231C54.7611 41.9022 55.3524 41.3185 56.0242 40.881C55.6885 40.5685 55.3977 40.2042 55.1623 39.7949L50.7609 32.1441C49.4857 29.9278 50.2452 27.0831 52.4536 25.8034L53.3097 25.3077C54.3793 24.6874 55.626 24.5228 56.819 24.8436C57.4383 25.0104 58.004 25.298 58.4924 25.6859C59.6518 24.2907 61.5825 23.6418 63.4032 24.1993L63.9298 24.361C65.1115 24.7228 66.0817 25.525 66.662 26.6195C67.2423 27.714 67.3632 28.9697 67.0027 30.1556L65.3096 35.7202C65.8635 35.5177 66.461 35.4069 67.0837 35.4069H71.6966C73.7788 35.4069 75.5772 36.6429 76.4052 38.4217ZM63.3021 26.4237L62.7755 26.2624C61.645 25.9162 60.4336 26.4388 59.8813 27.4478L60.6572 28.7967L63.608 33.925L64.9466 29.5256C65.1396 28.8906 65.075 28.2185 64.7645 27.6327C64.4539 27.0469 63.9345 26.6178 63.3021 26.4241V26.4237ZM57.0237 38.716C57.3544 39.2908 57.8881 39.7019 58.5272 39.8737C59.1541 40.0425 59.8444 39.9457 60.4071 39.6248C60.4977 39.573 60.5906 39.5219 60.6843 39.4704C61.1008 39.2413 61.5329 39.0035 61.8498 38.6566C62.5745 37.8637 62.6928 36.6677 62.1674 35.7354L59.7194 31.48L57.7719 28.0955C57.7686 28.0896 57.7652 28.0841 57.7618 28.0787C57.4312 27.5072 56.8991 27.0983 56.263 26.9273C56.0498 26.8701 55.8333 26.8418 55.618 26.8418C55.1891 26.8418 54.7658 26.9547 54.3843 27.1758L53.5283 27.6714C52.3462 28.3566 51.9396 29.8789 52.6223 31.0652L57.0237 38.716ZM33.9035 45.6581C33.4683 45.8645 33.1398 46.2283 32.9774 46.6831C32.8154 47.1375 32.8393 47.6281 33.0454 48.0648L36.0935 54.534C36.5181 55.4347 37.594 55.8213 38.4916 55.3951L39.215 55.0515C39.6502 54.8452 39.9787 54.4813 40.1407 54.0269C40.3031 53.5721 40.2788 53.0815 40.0732 52.6448L37.025 46.1761C36.7179 45.5238 36.0691 45.1414 35.394 45.1414C35.1363 45.1414 34.8749 45.197 34.6269 45.3145L34.269 45.4846C34.2686 45.485 34.2681 45.485 34.2677 45.485C34.2675 45.4853 34.2674 45.4854 34.2672 45.4854C34.2672 45.4854 34.2671 45.4854 34.2669 45.4854L33.9035 45.6581ZM36.1636 69.9969L39.8113 63.6561C40.3031 62.8017 40.4336 61.8062 40.1789 60.8532C39.9246 59.8998 39.3153 59.1035 38.4639 58.6099L37.3175 57.9458C36.4661 57.4523 35.4737 57.3213 34.5245 57.5769C33.5745 57.8321 32.781 58.4432 32.2892 59.298L28.6414 65.6388C27.6268 67.4024 28.2311 69.6663 29.9888 70.685L31.1352 71.3491C32.8926 72.3673 35.1485 71.7609 36.1636 69.9969ZM44.6651 60.9564H48.3212C50.0001 60.9564 51.366 59.5856 51.366 57.9008V56.7499C51.366 55.065 50.0001 53.6942 48.3212 53.6942H44.6651C42.9862 53.6942 41.6203 55.065 41.6203 56.7499V57.9008C41.6203 59.5856 42.9862 60.9564 44.6651 60.9564ZM64.5026 65.2669L60.8549 58.9262C60.1738 57.7428 58.9343 57.08 57.6611 57.08C57.0367 57.08 56.4048 57.2392 55.8266 57.5744L54.6801 58.2385C52.9228 59.2568 52.3181 61.5207 53.3332 63.2847L56.9805 69.6255C57.9956 71.3891 60.2514 71.9959 62.0088 70.9772L63.1552 70.3131C64.913 69.2949 65.5177 67.031 64.5026 65.2669ZM58.549 53.4791L62.2241 47.6778C62.7427 46.8595 62.9127 45.8876 62.7029 44.9405C62.4931 43.9939 61.9283 43.1857 61.1125 42.6652C60.5905 42.3321 60.0148 42.1506 59.4374 42.1089C59.3501 42.114 59.2628 42.1174 59.1751 42.1174C59.0899 42.1174 59.0048 42.1136 58.9196 42.1089C57.8139 42.1877 56.7573 42.7718 56.1178 43.7804L52.4427 49.5816C51.3719 51.2712 51.8708 53.5199 53.5539 54.5946C55.2374 55.6693 57.4782 55.1686 58.549 53.4791ZM71.6966 44.8264C73.3755 44.8264 74.7418 43.4557 74.7418 41.7708V40.6199C74.7418 38.935 73.3755 37.5643 71.6966 37.5643H67.0837C65.4048 37.5643 64.0385 38.935 64.0385 40.6199V41.7708C64.0385 43.4557 65.4048 44.8264 67.0837 44.8264H71.6966ZM76.8911 41.1951C76.8911 41.7375 77.3308 42.1784 77.8709 42.1784C78.4114 42.1784 78.8507 41.7375 78.8507 41.1951C78.8507 40.6532 78.4114 40.2122 77.8709 40.2122C77.3308 40.2122 76.8911 40.6532 76.8911 41.1951ZM29.0633 36.998C28.6406 37.0253 28.2371 36.771 28.0749 36.3813C27.8884 35.9347 28.0612 35.4036 28.4717 35.1484C28.8158 34.9351 29.2639 34.9538 29.5911 35.191C29.9309 35.4368 30.0802 35.889 29.9575 36.2891C29.8363 36.6846 29.4766 36.9714 29.0633 36.998Z" fill="white"/>
<defs>
<linearGradient id="paint0_linear" x1="104.047" y1="-2.61207" x2="50.5" y2="101" gradientUnits="userSpaceOnUse">
<stop stop-color="#AA1CB1"/>
<stop offset="1" stop-color="#CD2DC2" stop-opacity="0.94"/>
</linearGradient>
</defs>
</svg>