<svg width="101" height="101" viewBox="0 0 101 101" fill="none" xmlns="http://www.w3.org/2000/svg">
<circle cx="50.5" cy="50.5" r="50.5" fill="url(#paint0_linear)"/>
<path fill-rule="evenodd" clip-rule="evenodd" d="M78.3575 52.9929C78.8352 52.9577 79.2519 53.3195 79.2859 53.7983C79.8207 61.3397 79.4498 66.8247 78.183 70.1013C75.2008 77.8186 62.0007 82.741 61.4402 82.9468C61.3434 82.9823 61.242 83 61.1407 83C61.0393 83 60.9379 82.9823 60.8411 82.9468C60.2806 82.741 47.0795 77.8188 44.097 70.1012C43.432 68.3813 43.0117 66.0129 42.8439 63.049C41.0904 63.8676 39.8451 64.3316 39.6812 64.3917C39.5845 64.4272 39.4831 64.4449 39.3817 64.4449C39.2803 64.4449 39.1789 64.4272 39.0822 64.3917C38.8386 64.3022 33.06 62.1595 28.2238 58.5181C27.8405 58.2293 27.7637 57.6845 28.0525 57.3011C28.3411 56.9176 28.8861 56.841 29.2695 57.1296C33.2944 60.1603 38.1411 62.1589 39.3814 62.645C41.3439 61.8735 52.336 57.3056 54.8029 50.9186C57.2388 44.6151 55.3574 30.1543 54.8648 26.738H23.8975C23.4054 30.1547 21.5257 44.618 23.9594 50.9186C24.4725 52.2482 25.4055 53.601 26.7325 54.9399C27.0704 55.2807 27.0679 55.8309 26.727 56.1688C26.3862 56.5067 25.8359 56.5043 25.498 56.1634C24.0011 54.6531 22.9378 53.0992 22.3379 51.5446C21.1003 48.3408 20.7187 43.0108 21.204 35.7031C21.5617 30.3144 22.2835 25.7766 22.2907 25.7315C22.3582 25.31 22.7218 25 23.1487 25H55.6136C56.0404 25 56.4041 25.31 56.4717 25.7314C56.479 25.7766 57.201 30.3145 57.5588 35.7032C57.7542 38.6443 57.8088 41.2644 57.724 43.5551H77.3725C77.7992 43.5551 78.163 43.8651 78.2305 44.2865C78.2347 44.3115 78.6361 46.8295 78.9858 50.3108C79.0337 50.7884 78.6854 51.2144 78.2078 51.2623C78.1784 51.2653 78.1489 51.2667 78.12 51.2667C77.679 51.2667 77.3013 50.9325 77.2562 50.4845C77.0226 48.1583 76.7662 46.2724 76.6243 45.2932H57.6275C57.4341 47.8791 57.0329 49.9697 56.4241 51.5452C55.1377 54.8757 51.9486 57.6848 48.6932 59.8198C49.9832 59.8899 51.2827 59.6984 52.5108 59.2514C54.1438 58.6571 55.5834 57.6358 56.6742 56.298C56.8629 56.0666 57.1572 55.9482 57.4536 55.9846C57.75 56.021 58.0068 56.2068 58.134 56.4771C58.2174 56.6538 58.2923 56.8335 58.3571 57.0114C59.5376 60.2547 57.8592 63.8538 54.6159 65.0343C53.9118 65.2907 53.1906 65.4122 52.4812 65.4122C49.9235 65.4122 47.5172 63.8324 46.5929 61.2932C46.5796 61.2567 46.5672 61.2191 46.5549 61.1815L46.5548 61.1814L46.5404 61.1377C45.8529 61.5311 45.1815 61.8917 44.5439 62.2179C44.6713 65.3466 45.0656 67.7866 45.7183 69.4747C48.1861 75.8605 59.1773 80.428 61.1408 81.2C63.1042 80.428 74.0942 75.8605 76.5619 69.4748C77.7191 66.4813 78.0615 61.103 77.5521 53.9213C77.5181 53.4425 77.8787 53.0269 78.3575 52.9929ZM56.9547 58.5337C55.8479 59.5611 54.5397 60.3625 53.1056 60.8845C51.6714 61.4065 50.1537 61.6337 48.646 61.5577C49.7549 63.3232 51.9851 64.142 54.0215 63.4008C56.0579 62.6597 57.2402 60.5988 56.9547 58.5337ZM42.2879 44.4254C42.0315 44.5784 41.7143 44.5888 41.4485 44.4535C41.1825 44.318 41.0046 44.0554 40.977 43.7583C40.9593 43.5639 40.9503 43.3692 40.9503 43.1798C40.9503 39.7282 43.7584 36.9202 47.21 36.9202C50.6615 36.9202 53.4696 39.7282 53.4696 43.1798C53.4696 43.37 53.4606 43.5647 53.4429 43.7583C53.4158 44.0556 53.2379 44.3181 52.9719 44.4536C52.8478 44.5167 52.7125 44.5481 52.5775 44.5481C52.4232 44.5481 52.2693 44.5071 52.1325 44.4255C50.65 43.5415 48.9479 43.0742 47.2102 43.0742C45.4724 43.0742 43.7704 43.5414 42.2879 44.4254ZM51.6311 42.2284C51.1932 40.1904 49.3773 38.6581 47.2103 38.6581C45.0432 38.6581 43.2274 40.1904 42.7894 42.2284C44.1806 41.6416 45.684 41.336 47.2103 41.336C48.7365 41.336 50.2398 41.6416 51.6311 42.2284ZM31.5527 36.9202C28.1012 36.9202 25.2931 39.7282 25.2931 43.1798C25.2931 43.3701 25.302 43.5648 25.3197 43.7584C25.3469 44.0557 25.5248 44.3183 25.7908 44.4536C25.9149 44.5168 26.0501 44.5482 26.1851 44.5482C26.3393 44.5482 26.4933 44.5072 26.6302 44.4256C28.1128 43.5416 29.8148 43.0743 31.5524 43.0743C33.2902 43.0743 34.9923 43.5415 36.4747 44.4255C36.7309 44.5784 37.0481 44.589 37.3141 44.4535C37.5802 44.3181 37.758 44.0555 37.7851 43.7583C37.8029 43.5638 37.8119 43.3692 37.8119 43.1797C37.8123 39.7284 35.0042 36.9202 31.5527 36.9202ZM31.5527 41.3364C30.0265 41.3364 28.5231 41.642 27.1319 42.2288C27.5698 40.1907 29.3857 38.6585 31.5527 38.6585C33.7198 38.6585 35.5355 40.1908 35.9735 42.2288C34.5823 41.642 33.079 41.3364 31.5527 41.3364ZM31.5129 46.8463C31.7787 46.7107 32.0959 46.7214 32.3523 46.8744C34.2578 48.0106 36.4456 48.6113 38.6791 48.6113C40.9126 48.6113 43.1005 48.0108 45.0059 46.8744C45.2625 46.7214 45.5793 46.7109 45.8453 46.8463C46.1112 46.9818 46.2892 47.2444 46.3165 47.5416C46.3381 47.7793 46.3493 48.0181 46.3493 48.251C46.3493 52.4804 42.9085 55.9212 38.6791 55.9212C34.4498 55.9212 31.009 52.4804 31.009 48.251C31.009 48.0181 31.02 47.7793 31.0418 47.5416C31.069 47.2442 31.2469 46.9817 31.5129 46.8463ZM32.8037 49.0715C33.2044 51.9556 35.6865 54.183 38.6791 54.183C41.6717 54.183 44.1539 51.9556 44.5546 49.0715C42.721 49.9108 40.7163 50.3495 38.6791 50.3495C36.6419 50.3495 34.6373 49.9108 32.8037 49.0715ZM75.6877 61.2933L75.6878 61.2928C75.7526 61.1147 75.8107 60.929 75.8603 60.7408C75.9365 60.4521 75.8592 60.1445 75.6555 59.9261C75.4519 59.7078 75.1504 59.6092 74.857 59.6653C73.1615 59.989 71.4023 59.8459 69.7694 59.2516C68.1366 58.6573 66.697 57.6361 65.6061 56.2983C65.4175 56.0669 65.1229 55.949 64.8267 55.9848C64.5303 56.0211 64.2735 56.2071 64.1463 56.4773C64.063 56.654 63.988 56.8339 63.9233 57.0117C62.7428 60.2551 64.4212 63.8542 67.6644 65.0347C68.3688 65.291 69.0897 65.4126 69.7992 65.4126C72.3569 65.4123 74.7636 63.8323 75.6877 61.2933ZM65.3262 58.534C66.4328 59.5612 67.741 60.3627 69.1752 60.8847C70.6095 61.4066 72.1265 61.6335 73.6346 61.558C72.5261 63.3234 70.2956 64.1421 68.2592 63.4011C66.2229 62.6599 65.0406 60.5989 65.3262 58.534ZM53.4704 73.9791C53.4704 69.7497 56.9112 66.3089 61.1406 66.3089C65.37 66.3089 68.8108 69.7498 68.8108 73.9789C68.8108 74.211 68.7997 74.4497 68.7779 74.6883C68.7507 74.9856 68.5728 75.2482 68.3068 75.3835C68.041 75.519 67.7238 75.5085 67.4674 75.3555C65.5618 74.2192 63.374 73.6185 61.1406 73.6185C58.9072 73.6185 56.7194 74.2192 54.8137 75.3556C54.6769 75.4372 54.5228 75.4782 54.3686 75.4782C54.2335 75.4782 54.0983 75.4468 53.9742 75.3835C53.7082 75.2481 53.5302 74.9854 53.5032 74.6881C53.4814 74.4491 53.4704 74.2107 53.4704 73.9791ZM55.2651 73.1585C57.0987 72.3192 59.1035 71.8805 61.1406 71.8805C63.1779 71.8805 65.1823 72.3191 67.0162 73.1585C66.6155 70.2744 64.1333 68.047 61.1406 68.047C58.148 68.047 55.6658 70.2744 55.2651 73.1585ZM68.4044 32.3127C68.8845 32.3127 69.2735 31.9236 69.2735 31.4436V28.7847C69.2735 28.3048 68.8845 27.9157 68.4044 27.9157C67.9244 27.9157 67.5354 28.3048 67.5354 28.7847V31.4435C67.5354 31.9236 67.9244 32.3127 68.4044 32.3127ZM69.2735 38.6107C69.2735 39.0907 68.8845 39.4798 68.4044 39.4798C67.9244 39.4798 67.5354 39.0907 67.5354 38.6107V35.9519C67.5354 35.472 67.9244 35.0829 68.4044 35.0829C68.8845 35.0829 69.2735 35.472 69.2735 35.9519V38.6107ZM70.6585 34.5668H73.3173C73.7974 34.5668 74.1864 34.1777 74.1864 33.6977C74.1864 33.2178 73.7974 32.8286 73.3173 32.8286H70.6585C70.1785 32.8286 69.7895 33.2178 69.7895 33.6977C69.7895 34.1777 70.1786 34.5668 70.6585 34.5668ZM66.1503 34.5668H63.4915C63.0114 34.5668 62.6224 34.1777 62.6224 33.6977C62.6224 33.2178 63.0114 32.8286 63.4915 32.8286H66.1503C66.6303 32.8286 67.0193 33.2178 67.0193 33.6977C67.0193 34.1777 66.6303 34.5668 66.1503 34.5668ZM30.6016 65.6591C30.1215 65.6591 29.7325 66.0483 29.7325 66.5282V68.8438C29.7325 69.3237 30.1215 69.7128 30.6016 69.7128C31.0817 69.7128 31.4707 69.3237 31.4707 68.8438V66.5282C31.4707 66.0483 31.0815 65.6591 30.6016 65.6591ZM29.7325 72.77C29.7325 72.29 30.1215 71.9009 30.6016 71.9009C31.0815 71.9009 31.4707 72.2899 31.4707 72.77V75.0855C31.4707 75.5655 31.0817 75.9546 30.6016 75.9546C30.1215 75.9546 29.7325 75.5655 29.7325 75.0855V72.77ZM34.8802 69.9379H32.5647C32.0846 69.9379 31.6956 70.327 31.6956 70.807C31.6956 71.2869 32.0846 71.676 32.5647 71.676H34.8802C35.3603 71.676 35.7493 71.2869 35.7493 70.807C35.7493 70.327 35.3603 69.9379 34.8802 69.9379ZM26.323 69.9379H28.6384C29.1185 69.9379 29.5075 70.327 29.5075 70.807C29.5075 71.2869 29.1185 71.676 28.6384 71.676H26.323C25.843 71.676 25.454 71.2869 25.454 70.807C25.454 70.327 25.843 69.9379 26.323 69.9379Z" fill="white"/>
<defs>
<linearGradient id="paint0_linear" x1="104.047" y1="-2.61207" x2="50.5" y2="101" gradientUnits="userSpaceOnUse">
<stop stop-color="#AA1CB1"/>
<stop offset="1" stop-color="#CD2DC2" stop-opacity="0.94"/>
</linearGradient>
</defs>
</svg>