<svg width="101" height="101" viewBox="0 0 101 101" fill="none" xmlns="http://www.w3.org/2000/svg">
<circle cx="50.5" cy="50.5" r="50.5" fill="url(#paint0_linear)"/>
<path fill-rule="evenodd" clip-rule="evenodd" d="M71.4597 52.778C71.8793 52.778 72.2358 53.0843 72.2994 53.4989L72.7056 56.1536C73.0413 58.3442 72.4051 60.2981 71.7457 62.323L71.6658 62.5687C70.7144 65.4988 70.5566 68.6391 71.2098 71.6496C71.3168 72.1429 71.4447 72.6442 71.5739 73.1508C71.9663 74.6888 72.3709 76.2748 72.2404 77.8273C72.2404 78.9723 71.2353 79.9716 70.0921 79.9716L66.2052 79.9656C64.6074 79.962 63.7848 77.9704 64.9143 76.8403C65.4181 76.3363 66.0304 75.9811 66.6982 75.7941L64.9771 70.2948C64.2818 68.0736 63.9993 65.7692 64.1373 63.4454L64.1902 62.5562C62.7099 65.6718 62.1889 69.1225 62.6833 72.5369C62.7422 72.9436 62.8102 73.3523 62.8784 73.7626L62.8784 73.7627C63.1021 75.1086 63.3286 76.4709 63.2472 77.8273C63.2472 78.9723 62.242 79.9716 61.0988 79.9716L57.2119 79.9656C55.6141 79.962 54.7915 77.9704 55.9211 76.8403C56.4469 76.3141 57.0908 75.9494 57.7929 75.7698L56.7454 70.7997C56.1093 67.7825 56.2163 64.6191 57.0546 61.6517L59.3548 53.5098V44.8714C59.3548 43.7812 58.8685 42.7635 58.0208 42.0791L53.9931 38.8274C53.8057 38.6761 53.6913 38.4523 53.6785 38.2117C53.6777 38.1947 53.678 38.1779 53.6783 38.161L53.6785 38.1509C50.7519 34.7594 49.0702 29.1348 52.8762 23.1403C54.6199 20.3952 58.7921 23.1319 57.0877 25.8165C54.4821 29.9202 56.0941 33.0993 57.1611 34.5211C57.4407 34.4613 57.7007 34.5377 57.9413 34.7504L59.3082 36.1179C60.1143 36.9244 61.1858 37.3685 62.3256 37.3685C62.5932 37.3685 62.8528 37.4153 63.0967 37.5014L63.4194 36.1321C62.0626 35.3517 61.1463 33.8882 61.1463 32.2138V24.5129C61.1463 24.0514 61.5147 23.6743 61.976 23.6637C62.1418 23.6597 66.077 23.5962 68.4484 25.9133C69.5992 27.0376 70.1826 28.5104 70.1826 30.2906V32.2138C70.1826 33.8101 69.3498 35.2145 68.0966 36.0184L68.4974 37.4491C68.7764 37.332 69.079 37.268 69.3925 37.268C70.5324 37.268 71.604 36.8239 72.41 36.0174L73.7767 34.6498C74.0246 34.431 74.2919 34.3564 74.5787 34.426C75.6434 32.9607 77.131 29.8309 74.5821 25.8164C72.8579 23.1009 77.0733 20.432 78.7935 23.1401C82.5786 29.1018 80.9363 34.6971 78.0396 38.0942C78.0422 38.3311 77.9373 38.542 77.7249 38.7269L73.6972 41.9785C72.8495 42.6629 72.3633 43.6808 72.3633 44.7709V49.6101C72.3633 50.7083 70.6644 50.7083 70.6644 49.6101V44.7707C70.6644 43.1645 71.3808 41.665 72.6299 40.6564L75.9227 37.9981L74.3775 36.4519L73.6116 37.2183C72.4847 38.3459 70.9863 38.9669 69.3926 38.9669C69.1477 38.9669 68.921 39.1172 68.801 39.359C68.2622 40.4773 67.0852 41.269 65.8322 41.269C64.5876 41.269 63.4706 40.5757 62.9171 39.4595C62.7972 39.2177 62.5705 39.0674 62.3257 39.0674C60.7319 39.0674 59.2336 38.4465 58.1066 37.3189L57.3407 36.5524L55.7954 38.0987L59.088 40.7571C60.3373 41.7657 61.0538 43.2652 61.0538 44.8713V52.778H71.4597ZM77.3589 24.0509C76.8079 23.1829 75.4827 24.0663 76.016 24.9059C79.1773 29.8848 77.1854 33.7873 75.8677 35.5402L77.0041 36.6775C79.3336 33.7248 80.5306 29.0466 77.3589 24.0509ZM67.2658 27.1334C65.9808 25.8736 63.9692 25.509 62.8451 25.4042V29.4414H68.4227C68.2828 28.516 67.9007 27.7558 67.2658 27.1334ZM68.4835 31.1403H62.8451H62.845V32.214C62.845 33.7685 64.1096 35.0332 65.6642 35.0332C67.2188 35.0332 68.4835 33.7685 68.4835 32.214V31.1403ZM66.5095 36.6517C66.2355 36.7036 65.9533 36.7321 65.6643 36.7321C65.4503 36.7321 65.2401 36.7161 65.0341 36.6872L64.5236 38.8529C64.8079 39.299 65.2948 39.5704 65.8321 39.5704C66.363 39.5704 66.8449 39.3054 67.1306 38.8687L66.5095 36.6517ZM55.6534 24.9058C56.1964 24.0506 54.8493 23.2022 54.3104 24.051C51.1091 29.0934 52.3586 33.8126 54.7309 36.7602L55.8658 35.6246C54.5505 33.9151 52.44 29.9666 55.6534 24.9058ZM61.1022 78.2726C61.3277 78.2726 61.5484 78.048 61.5484 77.8272H61.5485V77.3405H58.8155L58.8124 77.3406H58.811C58.1733 77.3413 57.574 77.5899 57.1229 78.0412C57.0536 78.1577 57.0845 78.2327 57.2153 78.2666L61.1022 78.2726ZM70.0956 78.2726C70.3211 78.2726 70.5418 78.048 70.5418 77.8272H70.5419V77.3405H67.8067C67.1681 77.3405 66.5678 77.5894 66.1162 78.0412C66.047 78.1577 66.0779 78.2327 66.2087 78.2666L70.0956 78.2726ZM70.0502 62.0438L70.7423 59.9128C71.1072 58.7893 71.2055 57.5783 71.0266 56.4109L70.7305 54.4771H60.8471L58.6897 62.1136C57.9258 64.8175 57.8284 67.6999 58.4079 70.4493L59.5022 75.6417H61.4164L61.002 72.7804C60.4579 69.0228 61.0343 65.2254 62.6691 61.799L63.8856 59.2496C64.4132 58.1432 66.1278 58.586 66.0553 59.809L65.8332 63.5461C65.7076 65.6634 65.9649 67.7632 66.5984 69.7872L68.4307 75.6416H70.3377L69.5498 72.0098C68.833 68.7058 69.0061 65.2596 70.0502 62.0438ZM49.05 49.0197C49.0411 50.873 49.6862 54.1313 53.9132 55.9426C56.8987 57.2219 54.8732 61.7822 51.9496 60.5298C49.2123 59.3567 47.1016 57.5517 45.7535 55.329V56.7609L50.2802 63.9077C51.159 65.2953 51.2953 67.024 50.645 68.5319L47.5081 75.806C48.1353 75.9999 48.71 76.3446 49.1874 76.8222C50.3163 77.952 49.4949 79.9441 47.897 79.9475L44.0089 79.9536C42.8441 79.9536 41.8611 78.9787 41.8611 77.8093V76.4731C41.8611 76.3693 41.8812 76.2628 41.9187 76.166L44.6161 69.2111C45.0654 68.0526 44.8267 66.7603 43.9936 65.8385L42.6063 64.3037C43.1726 65.807 43.2443 67.3924 42.4521 68.8386L38.6173 75.8401C39.2044 76.039 39.7428 76.371 40.194 76.8224C41.3229 77.9521 40.5016 79.9443 38.9037 79.9477L35.0155 79.9538C33.8507 79.9538 32.8679 78.9789 32.8679 77.8095V76.4734C32.8679 76.3553 32.8957 76.2277 32.9443 76.1211L36.112 69.1698C37.0335 67.1472 35.671 65.7284 34.3907 64.3951L34.3906 64.395L34.3887 64.393L34.3862 64.3904C34.328 64.3299 34.2701 64.2695 34.2125 64.2092C32.8492 62.7825 32.2137 60.7665 32.5125 58.816L32.7727 57.1166C32.7557 57.0494 32.7457 56.9795 32.7457 56.907V48.9543L31.3641 49.8274C30.9976 50.059 30.4988 49.9735 30.2325 49.6202C28.6745 51.0719 27.2708 53.5297 28.3969 57.4023C29.2951 60.4907 24.5018 61.8768 23.606 58.7976C22.7797 55.9555 22.7985 53.2591 23.6619 50.7829C24.0236 49.746 25.6276 50.3049 25.2661 51.3421C24.5212 53.4783 24.5115 55.827 25.2373 58.3229C25.5244 59.3102 27.0432 58.8318 26.7655 57.8767C25.267 52.7236 27.6373 49.6127 29.3552 48.1257L28.5402 46.7249C27.9885 47.1747 27.4824 47.6757 27.0333 48.2193C26.3185 49.0844 25.0341 47.9721 25.7235 47.1374C26.3035 46.4351 26.9652 45.795 27.6903 45.2304C27.5716 44.8833 27.6892 44.4897 27.997 44.2675C28.1355 44.1676 28.2774 44.0644 28.4225 43.9588C30.6312 42.3525 33.59 40.2006 36.6113 40.8291L37.0122 39.3985C35.759 38.5946 34.9261 37.1902 34.9261 35.5939V33.4453C34.9261 30.9556 36.9517 28.9302 39.4413 28.9302C39.4509 28.9302 39.4603 28.9303 39.4698 28.9306C42.0356 29.0165 43.9666 31.0542 43.9623 33.6708V35.5939C43.9623 37.2683 43.046 38.7318 41.6892 39.5122L41.9806 40.7486C46.4671 40.6565 49.6196 43.7209 49.541 48.2505C49.541 48.5913 49.3397 48.8845 49.05 49.0197ZM41.6909 31.834C41.1819 31.1249 40.3735 30.6651 39.4271 30.6291C37.747 30.6373 36.552 32.1063 36.6249 33.7242C37.6832 33.7734 40.1675 33.6686 41.6909 31.834ZM42.2633 33.6779C40.7302 35.0101 38.6191 35.5126 36.6249 35.4282H36.6248V35.5939C36.6248 37.1484 37.8895 38.4132 39.4441 38.4132C40.9987 38.4132 42.2633 37.1484 42.2633 35.5939V33.6779ZM40.0746 40.067C39.8685 40.096 39.6581 40.112 39.4442 40.112C39.1553 40.112 38.873 40.0836 38.599 40.0314L37.9779 42.2485C38.584 43.1747 39.9919 43.1504 40.5844 42.2298L40.0746 40.067ZM29.6155 45.1947L31.2014 47.9204L32.7457 46.9444V45.9708C32.7457 44.8594 34.4445 44.9077 34.4445 45.9708V56.1579H44.0548V46.3781C44.0548 45.2666 45.7537 45.315 45.7537 46.3781V47.4009H47.8413C47.8237 46.3535 47.4876 45.355 46.8667 44.5079C45.9207 43.2178 44.401 42.4475 42.8013 42.4475H42.3535C41.9075 43.7381 40.6446 44.6492 39.2766 44.6492C37.9896 44.6492 36.8609 43.8874 36.3078 42.7391C36.1877 42.4973 35.9611 42.347 35.7162 42.347C34.3072 42.347 32.9585 42.7827 31.8159 43.6072L29.6155 45.1947ZM38.9007 78.2487C38.9264 78.2486 38.9875 78.2483 39.0209 78.1674C39.0547 78.0857 39.0094 78.0404 38.9923 78.0234C38.5407 77.5715 37.9404 77.3227 37.3019 77.3227H34.5668C34.4982 77.6466 34.5698 78.2548 35.0123 78.2548L38.9005 78.2487H38.9007ZM47.8939 78.2487C47.9195 78.2487 47.9809 78.2486 48.0144 78.1674C48.0481 78.0857 48.0028 78.0403 47.9859 78.0234C47.5347 77.572 46.9351 77.3233 46.2971 77.3228L46.295 77.3229L46.2906 77.3227H43.5602C43.4916 77.6466 43.5632 78.2548 44.0058 78.2548L47.8939 78.2487ZM45.7367 75.6237L49.0851 67.8593C49.5129 66.8671 49.4232 65.7299 48.8452 64.817L44.4369 57.8569H34.3782L34.1919 59.073C33.9724 60.506 34.4393 61.9872 35.4409 63.0353C37.2783 64.9581 38.9365 67.0681 37.6581 69.874L35.0379 75.6238H36.7988L40.9622 68.0226C41.4061 67.2122 41.4858 66.2474 41.1812 65.3753L40.0981 62.275C39.4242 60.98 41.1478 60.1507 42 61.0994L45.254 64.6993C46.5205 66.1003 46.8831 68.0646 46.2001 69.8255L43.9512 75.6237H45.7367ZM52.6188 58.9683C53.0825 59.1175 53.4307 58.9782 53.6634 58.5503C53.836 58.1467 53.648 57.6773 53.244 57.5041C50.7296 56.4266 48.9864 54.7875 48.0633 52.6322C47.5108 51.3425 47.3521 50.0977 47.3498 49.0998H45.7538C45.7544 50.4989 46.0211 52.3831 47.1002 54.2717C48.271 56.3206 50.1278 57.9008 52.6188 58.9683ZM31.4701 64.9096C30.8715 64.7929 30.467 64.1784 30.5686 63.5401C30.7411 62.4554 29.0635 62.1884 28.8908 63.2731C28.6471 64.805 29.6581 66.2872 31.1449 66.5771C32.1893 66.7814 32.5301 65.1163 31.4701 64.9096ZM27.8599 63.8276C27.596 65.4857 28.6655 67.0852 30.244 67.3931C31.304 67.5998 30.9632 69.2649 29.9189 69.0608C27.4523 68.5795 25.776 66.1122 26.1821 63.5606C26.3548 62.4757 28.0324 62.743 27.8599 63.8276ZM75.252 59.4219C75.4035 59.5334 75.5797 59.5871 75.7545 59.5871C76.0156 59.5871 76.273 59.4671 76.4395 59.2407C77.3584 57.991 77.1392 56.2102 75.9509 55.2709C75.5829 54.9801 75.0485 55.0426 74.7578 55.4107C74.467 55.7788 74.5294 56.3129 74.8975 56.6039C75.3761 56.9821 75.4538 57.7135 75.0709 58.2344C74.7928 58.6123 74.8739 59.144 75.252 59.4219ZM78.294 60.5729C78.1192 60.5729 77.943 60.5192 77.7913 60.4078C77.4134 60.1298 77.3323 59.5981 77.6102 59.2201C78.6049 57.8675 78.3876 55.9556 77.1259 54.9584C76.7578 54.6674 76.6954 54.1333 76.9863 53.7652C77.277 53.3971 77.8114 53.3347 78.1793 53.6256C80.151 55.1839 80.5097 58.1451 78.979 60.2266C78.8125 60.453 78.555 60.5729 78.294 60.5729ZM47.1217 28.3363C47.587 29.3 49.133 28.5956 48.6518 27.5979C48.3867 27.0484 48.6363 26.3566 49.2084 26.0555C50.149 25.5603 49.4006 24.0345 48.4171 24.5522C47.0444 25.2747 46.4633 26.9722 47.1217 28.3363ZM45.9283 28.104C46.1965 28.6597 45.777 29.3229 45.1639 29.3229C44.848 29.3229 44.5447 29.1458 44.3983 28.8424C43.306 26.5791 44.2775 23.759 46.5639 22.5557C47.5471 22.0375 48.2959 23.5639 47.3551 24.059C45.8693 24.8409 45.2292 26.6555 45.9283 28.104ZM33.0407 23.6019C32.8171 23.4397 32.5285 23.3965 32.2672 23.4858L27.3945 25.1522C27.0549 25.2684 26.825 25.5856 26.8201 25.9446L26.7658 29.962C26.7167 29.9575 26.6674 29.9532 26.6172 29.9525C25.595 29.9387 24.755 30.7563 24.7412 31.7786C24.7274 32.8009 25.545 33.6408 26.5673 33.6547C27.5896 33.6685 28.4295 32.8508 28.4433 31.8286C28.4435 31.8134 28.4427 31.7985 28.4419 31.7836V31.7836C28.4414 31.7743 28.4409 31.765 28.4406 31.7556L28.5106 26.5661L31.6763 25.4834L31.6392 28.2337C31.5891 28.2289 31.5388 28.2246 31.4876 28.224C30.4654 28.2101 29.6254 29.0278 29.6116 30.05C29.5978 31.0723 30.4154 31.9123 31.4377 31.9261C32.46 31.9399 33.2999 31.1223 33.3137 30.1C33.3138 30.0974 33.3136 30.0948 33.3135 30.0922V30.0922L33.3132 30.0854L33.3912 24.301C33.3951 24.0248 33.2642 23.764 33.0407 23.6019ZM77.0379 66.3137L79.9143 69.19C80.246 69.5217 80.246 70.0595 79.914 70.3914C79.5824 70.7232 79.0445 70.7231 78.7128 70.3914L77.2593 68.9379L77.2087 72.6806C77.209 72.69 77.2095 72.6993 77.21 72.7087C77.2108 72.7237 77.2116 72.7386 77.2114 72.7538C77.1978 73.7546 76.3757 74.5549 75.3749 74.5414C74.3743 74.5278 73.574 73.7057 73.5875 72.7049C73.601 71.7041 74.4232 70.9039 75.424 70.9173C75.4609 70.9178 75.497 70.9216 75.5335 70.9244L75.5878 66.9028C75.5924 66.5614 75.8011 66.2559 76.1175 66.1273C76.4341 65.9987 76.7964 66.0722 77.0379 66.3137Z" fill="white"/>
<defs>
<linearGradient id="paint0_linear" x1="104.047" y1="-2.61207" x2="50.5" y2="101" gradientUnits="userSpaceOnUse">
<stop stop-color="#AA1CB1"/>
<stop offset="1" stop-color="#CD2DC2" stop-opacity="0.94"/>
</linearGradient>
</defs>
</svg>