<svg width="101" height="101" viewBox="0 0 101 101" fill="none" xmlns="http://www.w3.org/2000/svg">
<circle cx="50.5" cy="50.5" r="50.5" fill="url(#paint0_linear)"/>
<path fill-rule="evenodd" clip-rule="evenodd" d="M70.7087 28.3339C70.138 28.3339 69.6753 27.8712 69.6753 27.3005C69.6753 25.5885 68.2872 24.2003 66.5752 24.2003C66.0045 24.2003 65.5418 23.7376 65.5418 23.1669C65.5418 22.5963 66.0045 22.1336 66.5752 22.1336C68.2872 22.1336 69.6753 20.746 69.6753 19.0334C69.6753 18.4627 70.138 18 70.7087 18C71.2794 18 71.7421 18.4627 71.7421 19.0334C71.7421 20.746 73.1302 22.1336 74.8423 22.1336C75.413 22.1336 75.8757 22.5963 75.8757 23.1669C75.8757 23.7376 75.413 24.2003 74.8423 24.2003C73.1302 24.2003 71.7421 25.5885 71.7421 27.3005C71.7421 27.8712 71.2794 28.3339 70.7087 28.3339ZM71.7744 23.1669C71.3687 22.8662 71.01 22.507 70.7087 22.1018C70.408 22.507 70.0487 22.8662 69.6435 23.1669C70.0487 23.4682 70.408 23.8269 70.7087 24.2326C71.01 23.8269 71.3687 23.4682 71.7744 23.1669ZM59.3414 28.334C53.9953 28.3275 48.838 30.311 44.874 33.8981C40.3044 28.0439 32.0449 26.5998 25.7608 30.5572C19.4762 34.5142 17.2086 42.5865 20.5131 49.2375C23.8176 55.8879 31.621 58.9563 38.5702 56.338C38.8633 57.3002 39.2256 58.2398 39.6535 59.15C35.4271 61.9323 33.5506 67.1739 35.0502 72.0063C36.5498 76.8382 41.0643 80.0969 46.1228 79.998C51.1818 79.8991 55.5651 76.4669 56.875 71.5795C64.8717 72.5008 72.721 68.9188 77.2653 62.2744C81.8091 55.63 82.3005 47.0158 78.5414 39.8976C74.7822 32.7794 67.3911 28.328 59.3414 28.334ZM21.106 42.8015C21.0974 37.468 24.5059 32.729 29.5648 31.0401C34.6238 29.3513 40.1959 31.0926 43.393 35.3614C39.6893 39.3496 37.6342 44.5928 37.6402 50.0352C37.6432 51.4728 37.7886 52.9058 38.0732 54.3146C34.2575 55.844 29.9307 55.3772 26.5288 53.0688C23.1268 50.7608 21.0949 46.9128 21.106 42.8015ZM45.9073 77.9367C40.7707 77.9367 36.6068 73.7729 36.6068 68.6362C36.6068 63.5001 40.7707 59.3357 45.9073 59.3357C51.044 59.3357 55.2079 63.5001 55.2079 68.6362C55.2023 73.7704 51.0415 77.9312 45.9073 77.9367ZM59.3414 69.6696C58.6355 69.6646 57.9306 69.6217 57.2292 69.5404C57.2529 69.2417 57.2746 68.9415 57.2746 68.6362C57.2746 64.8251 55.3638 61.2673 52.1869 59.1616C49.0095 57.056 44.9885 56.6831 41.4781 58.1681C40.9644 57.053 40.5587 55.8914 40.2671 54.6991C39.8957 53.1722 39.7075 51.6065 39.707 50.0352C39.707 39.1917 48.4979 30.4008 59.3414 30.4008C70.1854 30.4008 78.9758 39.1917 78.9758 50.0352C78.9758 60.8792 70.1854 69.6696 59.3414 69.6696ZM28.3399 64.5025C28.3399 63.9318 27.8772 63.4691 27.3065 63.4691C26.7358 63.4691 26.2731 63.9318 26.2731 64.5025C26.2731 66.215 24.885 67.6026 23.173 67.6026C22.6023 67.6026 22.1396 68.0653 22.1396 68.636C22.1396 69.2067 22.6023 69.6694 23.173 69.6694C24.885 69.6694 26.2731 71.0575 26.2731 72.7696C26.2731 73.3403 26.7358 73.803 27.3065 73.803C27.8772 73.803 28.3399 73.3403 28.3399 72.7696C28.3399 71.0575 29.728 69.6694 31.4401 69.6694C32.0108 69.6694 32.4735 69.2067 32.4735 68.636C32.4735 68.0653 32.0108 67.6026 31.4401 67.6026C29.728 67.6026 28.3399 66.215 28.3399 64.5025ZM27.3065 69.7017C27.0058 69.296 26.6465 68.9373 26.2413 68.636C26.6465 68.3353 27.0058 67.976 27.3065 67.5708C27.6078 67.976 27.9665 68.3353 28.3722 68.636C27.9665 68.9373 27.6078 69.296 27.3065 69.7017ZM72.7757 50.035C71.0636 50.035 69.6755 48.6474 69.6755 46.9349C69.6755 46.3642 69.2128 45.9015 68.6421 45.9015C68.0714 45.9015 67.6087 46.3642 67.6087 46.9349C67.6087 48.6474 66.2206 50.035 64.5085 50.035C63.9379 50.035 63.4752 50.4977 63.4752 51.0684C63.4752 51.6391 63.9379 52.1018 64.5085 52.1018C66.2206 52.1018 67.6087 53.4899 67.6087 55.202C67.6087 55.7727 68.0714 56.2354 68.6421 56.2354C69.2128 56.2354 69.6755 55.7727 69.6755 55.202C69.6755 53.4899 71.0636 52.1018 72.7757 52.1018C73.3463 52.1018 73.8091 51.6391 73.8091 51.0684C73.8091 50.4977 73.3463 50.035 72.7757 50.035ZM68.6421 52.1341C68.3414 51.7284 67.9821 51.3697 67.5769 51.0684C67.9821 50.7677 68.3414 50.4084 68.6421 50.0032C68.9433 50.4084 69.3021 50.7677 69.7078 51.0684C69.3021 51.3697 68.9433 51.7284 68.6421 52.1341ZM60.3749 40.7347C60.9455 40.7347 61.4082 41.1974 61.4082 41.7681C61.4082 42.3387 60.9455 42.8015 60.3749 42.8015C58.6628 42.8015 57.2747 44.1896 57.2747 45.9016C57.2747 46.4723 56.812 46.935 56.2413 46.935C55.6706 46.935 55.2079 46.4723 55.2079 45.9016C55.2079 44.1896 53.8198 42.8015 52.1077 42.8015C51.537 42.8015 51.0743 42.3387 51.0743 41.7681C51.0743 41.1974 51.537 40.7347 52.1077 40.7347C53.8198 40.7347 55.2079 39.3471 55.2079 37.6345C55.2079 37.0638 55.6706 36.6011 56.2413 36.6011C56.812 36.6011 57.2747 37.0638 57.2747 37.6345C57.2747 39.3471 58.6628 40.7347 60.3749 40.7347ZM55.1761 41.7681C55.5813 42.0693 55.9406 42.4281 56.2413 42.8337C56.5425 42.4281 56.9013 42.0693 57.307 41.7681C56.9013 41.4673 56.5425 41.1081 56.2413 40.7029C55.9406 41.1081 55.5813 41.4673 55.1761 41.7681ZM31.44 60.369H33.5068V62.4358H31.44V60.369ZM23.1728 74.8364H21.106V76.9032H23.1728V74.8364ZM80.0093 71.7362C80.0093 70.0242 78.6212 68.6361 76.9091 68.6361C75.1971 68.6361 73.809 70.0242 73.809 71.7362C73.809 73.4488 75.1971 74.8364 76.9091 74.8364C78.6212 74.8364 80.0093 73.4488 80.0093 71.7362ZM75.8757 71.7362C75.8757 71.1655 76.3384 70.7028 76.9091 70.7028C77.4798 70.7028 77.9425 71.1655 77.9425 71.7362C77.9425 72.3069 77.4798 72.7696 76.9091 72.7696C76.3384 72.7696 75.8757 72.3069 75.8757 71.7362ZM45.9074 21.1003C48.1901 21.1003 50.0409 22.9511 50.0409 25.2339C50.0409 27.5171 48.1901 29.3674 45.9074 29.3674C43.6246 29.3674 41.7738 27.5171 41.7738 25.2339C41.7738 22.9511 43.6246 21.1003 45.9074 21.1003ZM45.9074 23.1671C44.766 23.1671 43.8406 24.0925 43.8406 25.2339C43.8406 26.3757 44.766 27.3006 45.9074 27.3006C47.0488 27.3006 47.9742 26.3757 47.9742 25.2339C47.9742 24.0925 47.0488 23.1671 45.9074 23.1671ZM56.2413 23.1669H58.3081V25.2337H56.2413V23.1669ZM62.4418 61.4022H60.375V63.469H62.4418V61.4022ZM66.5753 74.8364H68.6421V76.9032H66.5753V74.8364ZM33.5068 44.8682H31.44V46.935H33.5068V44.8682ZM23.1729 44.9614L25.2396 44.7752C25.2346 44.7257 24.8264 39.8075 27.5491 36.8179C29.1113 35.2314 31.2841 34.3984 33.5068 34.5341V32.4673C30.6998 32.319 27.9669 33.3993 26.0197 35.4272C22.7213 39.0405 23.1451 44.5975 23.1721 44.9513L23.1729 44.9614ZM60.375 34.5343V32.4676C60.5188 32.4676 74.739 32.6558 76.9022 48.8655L74.8541 49.1385C72.9361 34.7548 60.8917 34.5343 60.375 34.5343Z" fill="white"/>
<defs>
<linearGradient id="paint0_linear" x1="104.047" y1="-2.61207" x2="50.5" y2="101" gradientUnits="userSpaceOnUse">
<stop stop-color="#AA1CB1"/>
<stop offset="1" stop-color="#CD2DC2" stop-opacity="0.94"/>
</linearGradient>
</defs>
</svg>