<svg xmlns="http://www.w3.org/2000/svg" xmlns:xlink="http://www.w3.org/1999/xlink" width="106" height="106" viewBox="0 0 106 106">
  <defs>
    <linearGradient id="a" data-name="Безымянный градиент" x1="-103.9796" y1="819.5322" x2="-219.7475" y2="939.2741" gradientTransform="translate(202.4 -813.5117)" gradientUnits="userSpaceOnUse">
      <stop offset="0" stop-color="#e19fe4"/>
      <stop offset="1" stop-color="#e19fe4" stop-opacity="0"/>
    </linearGradient>
  </defs>
  <circle cx="53" cy="53" r="53" opacity="0.5" fill="url(#a)" style="isolation: isolate"/>
  <g>
    <path d="M27.97,41.9028v36.583a2.4286,2.4286,0,0,0,2.4285,2.4284H82.4055a2.4286,2.4286,0,0,0,2.4285-2.4284V41.9028Z" fill="#f2be32"/>
    <path d="M31.0052,78.4858V41.9028H27.97v36.583a2.4286,2.4286,0,0,0,2.4285,2.4284h3.0355A2.4286,2.4286,0,0,1,31.0052,78.4858Z" fill="#ffc52c"/>
    <path d="M85.8454,29.1091H26.9576a2.4283,2.4283,0,0,0-2.4283,2.4283v8.644A2.4283,2.4283,0,0,0,26.9576,42.61H85.8454a2.4284,2.4284,0,0,0,2.4284-2.4284v-8.644A2.4285,2.4285,0,0,0,85.8454,29.1091Z" fill="#ffc52c"/>
    <path d="M85.8454,39.8288H26.9576A2.4283,2.4283,0,0,1,24.5293,37.4v2.7809A2.4283,2.4283,0,0,0,26.9576,42.61H85.8454a2.4284,2.4284,0,0,0,2.4284-2.4284V37.4A2.4284,2.4284,0,0,1,85.8454,39.8288Z" fill="#c29829"/>
    <path d="M31.195,62.0669H19.6289V79.7641a1.15,1.15,0,0,0,1.15,1.15H45.0038a1.15,1.15,0,0,0,1.15-1.15V62.0669Z" fill="#722376"/>
    <path d="M22.4569,79.7641V62.0669h-2.828V79.7641a1.15,1.15,0,0,0,1.15,1.15h2.8281A1.15,1.15,0,0,1,22.4569,79.7641Z" fill="#852989"/>
    <path d="M46.6336,56.38H19.15A1.15,1.15,0,0,0,18,57.53v4.0936a1.15,1.15,0,0,0,1.15,1.15H46.6336a1.15,1.15,0,0,0,1.15-1.15V57.53A1.15,1.15,0,0,0,46.6336,56.38Z" fill="#9d3ca2"/>
    <path d="M46.6336,60.37H19.15A1.15,1.15,0,0,1,18,59.22v2.4038a1.15,1.15,0,0,0,1.15,1.15H46.6336a1.15,1.15,0,0,0,1.15-1.15V59.22A1.15,1.15,0,0,1,46.6336,60.37Z" fill="#8e3392"/>
    <path d="M56.4161,36.8584a19.5658,19.5658,0,0,1-3.05-1.7512v45.807h6.071V35.1193A19.5548,19.5548,0,0,1,56.4161,36.8584Z" fill="#fff"/>
    <path d="M53.3662,35.1072v45.807h3.0355V36.8521A19.7627,19.7627,0,0,1,53.3662,35.1072Z" fill="#c7bcbc"/>
    <path d="M35.55,56.38H29.48V80.9142H35.55Z" fill="#f84f99"/>
    <path d="M32.5155,56.38H29.48V80.9142h3.036Z" fill="#ff1c80"/>
    <path d="M60.8535,21.36A4.5051,4.5051,0,0,0,56.97,23.6338a.6987.6987,0,0,1-1.146-.011,4.4487,4.4487,0,0,0-8.3182,2.2c.0063,6.4116,7.1657,10.1979,8.6008,10.8919a.7067.7067,0,0,0,.6177-.0011c1.4337-.6991,8.5859-4.51,8.58-10.909A4.4563,4.4563,0,0,0,60.8535,21.36Z" fill="#722376"/>
    <path d="M53.3643,21.6a4.4475,4.4475,0,0,0-5.8584,4.2222c.0063,6.4117,7.1657,10.198,8.6008,10.8919a.7064.7064,0,0,0,.6177-.0011c.2334-.1139.6193-.3107,1.1-.5873C48.8153,30.9769,48.7494,23.1477,53.3643,21.6Z" fill="#933798"/>
  </g>
</svg>
