<svg xmlns="http://www.w3.org/2000/svg" xmlns:xlink="http://www.w3.org/1999/xlink" width="106" height="106" viewBox="0 0 106 106">
  <defs>
    <linearGradient id="a" data-name="Безымянный градиент" x1="-103.9796" y1="819.5322" x2="-219.7475" y2="939.2741" gradientTransform="translate(202.4 -813.5117)" gradientUnits="userSpaceOnUse">
      <stop offset="0" stop-color="#e19fe4"/>
      <stop offset="1" stop-color="#e19fe4" stop-opacity="0"/>
    </linearGradient>
  </defs>
  <circle cx="53" cy="53" r="53" opacity="0.5" fill="url(#a)" style="isolation: isolate"/>
  <g>
    <path d="M17.955,46.1565a4.1436,4.1436,0,0,1,.1882-8.283,4.0424,4.0424,0,0,1,.6075.0444" fill="#e0b394"/>
    <path d="M48.4842,46.1565a4.1436,4.1436,0,0,0-.1882-8.283,4.2738,4.2738,0,0,0-.6075.0444" fill="#e0b394"/>
    <path d="M41.4475,58.197A9.5227,9.5227,0,0,1,49.1352,67.54V80.1822H17.3066V67.54a9.5226,9.5226,0,0,1,7.6877-9.3434Z" fill="#e6e6e6"/>
    <path d="M29.0428,58.197H24.9943A9.5227,9.5227,0,0,0,17.3066,67.54V80.1822h4.0483V67.54A9.5226,9.5226,0,0,1,29.0428,58.197Z" fill="#ccc"/>
    <path d="M42.098,58.4043a8.9819,8.9819,0,0,1-.099,1.3358,8.8775,8.8775,0,0,1-17.5518.0027,8.9946,8.9946,0,0,1-.1005-1.3387c0-.0194,0-.0376.0013-.0572H42.0966C42.098,58.3665,42.098,58.3848,42.098,58.4043Z" fill="#f7cba4"/>
    <path d="M24.52,80.1822H22.4258V70.62a1.047,1.047,0,0,1,2.0939,0Z" fill="#ccc"/>
    <path d="M44.0148,80.1822H41.9209V70.62a1.047,1.047,0,0,1,2.0939,0Z" fill="#ccc"/>
    <path d="M42.098,58.4041a8.9842,8.9842,0,0,1-.099,1.3359l-3.6645,2.6622a8.7039,8.7039,0,0,1-10.2271,0l-3.66-2.6594a8.9946,8.9946,0,0,1-.1005-1.3387c0-.0194,0-.0376.0013-.0572H42.0966C42.098,58.3664,42.098,58.3847,42.098,58.4041Z" fill="#e0b394"/>
    <path d="M44.2882,55.8426l-5.9539,4.3261a8.7034,8.7034,0,0,1-10.227,0l-5.9539-4.3261a11.85,11.85,0,0,1-4.812-10.8874l.7664-6.9311a15.2259,15.2259,0,0,1,.7971-3.4592v-.0014A15.2068,15.2068,0,0,1,48.3338,38.024l.2485,2.2489.5179,4.682A11.8492,11.8492,0,0,1,44.2882,55.8426Z" fill="#f7cba4"/>
    <path d="M33.2205,24.4917A15.2051,15.2051,0,0,0,18.1077,38.0258l-.7663,6.9311a11.8476,11.8476,0,0,0,4.812,10.8866l5.9542,4.326a8.6867,8.6867,0,0,0,5.1087,1.6612,5.6551,5.6551,0,0,1-3.9-1.6612l-4.547-4.326a13.623,13.623,0,0,1-3.6745-10.8866l.5851-6.9311C22.33,30.322,27.3016,24.4917,33.2205,24.4917Z" fill="#e0b394"/>
    <path d="M48.5814,40.2731A13.86,13.86,0,0,1,36.9431,34.79c-3.9087,3.1689-9.9213,5.6022-18.5847,3.2332.2415-1.1238.4076-2.2923.5459-3.4579v-.0014A15.2066,15.2066,0,0,1,48.333,38.024Z" fill="#e0b394"/>
    <path d="M42.0254,27.2989c-.2106.3588-.4592.7595-.7482,1.1866a22.77,22.77,0,0,1-1.8078,2.3369,21.0767,21.0767,0,0,1-2.5253,2.4317,18.9455,18.9455,0,0,1-15.1758,3.9452,27.5484,27.5484,0,0,1-3.4089-.7119A15.205,15.205,0,0,1,31.3127,24.6117a14.9706,14.9706,0,0,1,1.632-.1173c.042-.0013.0838-.0029.1271-.0013.0489-.0014.099-.0014.1492-.0014a15.15,15.15,0,0,1,8.8044,2.8072Z" fill="#fec95b"/>
    <path d="M48.4063,38.6953a12.125,12.125,0,0,1-11.4639-5.4415,22.3262,22.3262,0,0,0,5.0815-5.9552,15.479,15.479,0,0,1,1.3387,1.0707,15.1648,15.1648,0,0,1,4.97,9.6559Z" fill="#eaae44"/>
    <path d="M41.2766,28.4856a22.7559,22.7559,0,0,1-1.8078,2.3369l-1.1475-.8361-.8669-.0921-5.1232-.5459a2.4086,2.4086,0,0,1-1.692-3.8137l.6728-.9228a15.24,15.24,0,0,1,7.9194,1.1154l.4774,1.0764.3533.797Z" fill="#eaae44"/>
    <path d="M51.9482,33.9505l-2.831,3.8838a2.41,2.41,0,0,1-4.149-.4425l-2.09-4.7116-.3533-.7971-4.1336-3.0138-.8669-.0921-5.1232-.5459a2.4086,2.4086,0,0,1-1.692-3.8137l2.83-3.885a2.41,2.41,0,0,1,4.15.4425l2.09,4.7115.3533.797,4.1321,3.0138.8682.0921,5.1232.5473A2.4079,2.4079,0,0,1,51.9482,33.9505Z" fill="#ff1c80"/>
    <path d="M45.1327,29.59A3.8259,3.8259,0,0,1,42.8782,32.68l-.3533-.7971L38.3913,28.87l-.8669-.0921a3.8256,3.8256,0,0,1,2.2545-3.0906l.3534.797,4.132,3.0138Z" fill="#f1599c"/>
    <path d="M41.3275,32.1379a2.9535,2.9535,0,1,0-2.9535-2.9535A2.9535,2.9535,0,0,0,41.3275,32.1379Z" fill="#ff1c80"/>
    <path d="M39.7667,29.1834a2.9521,2.9521,0,0,1,2.2575-2.8675,2.9535,2.9535,0,1,0,0,5.7351A2.952,2.952,0,0,1,39.7667,29.1834Z" fill="#e22076"/>
    <path d="M28.4736,52.5852a7.2735,7.2735,0,0,1,.7346.1429c.2348.04.4558.08.663.1242.2124.0369.4237.0594.6165.0992.2006.026.3977.0439.5825.0765a18.5674,18.5674,0,0,0,2.15.1276,19.178,19.178,0,0,0,2.1484-.1312c.1845-.0329.3816-.05.5821-.0762.1928-.04.4042-.0617.6164-.0987.2074-.0441.4284-.0838.6635-.123a7.224,7.224,0,0,1,.7359-.1413,3.9193,3.9193,0,0,1-.2415.7423,5.7154,5.7154,0,0,1-.3945.6621,4.5521,4.5521,0,0,1-1.1217,1.066,5.4443,5.4443,0,0,1-5.9762-.004,4.5585,4.5585,0,0,1-1.1212-1.0652,5.7015,5.7015,0,0,1-.395-.6608A3.9383,3.9383,0,0,1,28.4736,52.5852Z" fill="#fff"/>
    <path d="M34.1043,49.0119H32.336a1.047,1.047,0,0,1,0-2.0939h1.7683a1.047,1.047,0,1,1,0,2.0939Z" fill="#e0b394"/>
    <path d="M31.3126,24.6117a14.9456,14.9456,0,0,1,1.6319-.1173c-5.5839.1716-10.2689,5.5322-11.1762,12.7049a27.5484,27.5484,0,0,1-3.4089-.7119A15.2042,15.2042,0,0,1,31.3126,24.6117Z" fill="#eaae44"/>
    <path d="M41.8285,45.4327a.6958.6958,0,0,1-.4935-.2044,2.6875,2.6875,0,0,0-3.8006,0,.698.698,0,1,1-.9871-.9872,4.0832,4.0832,0,0,1,5.7744,0,.698.698,0,0,1-.4932,1.1916Z" fill="#c99f83"/>
    <path d="M29.4,45.4345a.6958.6958,0,0,1-.4935-.2044,2.69,2.69,0,0,0-3.8,0,.6981.6981,0,1,1-.9872-.9872,4.0878,4.0878,0,0,1,5.7746,0A.698.698,0,0,1,29.4,45.4345Z" fill="#c99f83"/>
    <path d="M58.0023,43.8884a3.2572,3.2572,0,0,1,.1481-6.511,3.1546,3.1546,0,0,1,.4774.0351" fill="#e0b394"/>
    <path d="M86.7348,43.8884a3.2572,3.2572,0,0,0-.148-6.511,3.3318,3.3318,0,0,0-.4774.0351" fill="#e0b394"/>
    <path d="M88.2835,65.446V80.1819H56.4551V65.446a9.52,9.52,0,0,1,6.3434-8.9748c.2289-.0824.4621-.155.698-.2178v-.0013c.2122-.0572.4285-.1077.6464-.1493H80.596c.2193.0433.4354.092.6491.1508.2359.0643.4691.1369.698.2177A9.5219,9.5219,0,0,1,88.2835,65.446Z" fill="#722376"/>
    <path d="M68.1911,56.1023H64.1428a9.5227,9.5227,0,0,0-7.6877,9.3434V80.1814h4.0483V65.4457A9.5227,9.5227,0,0,1,68.1911,56.1023Z" fill="#68186c"/>
    <path d="M81.2466,56.3108c0,.2485-.01.4956-.0307.7384a8.8751,8.8751,0,0,1-17.6886.0014c-.0224-.2444-.0322-.49-.0322-.74,0-.02,0-.0376.0014-.0572v-.0013c.2122-.0573.4285-.1077.6464-.1493h16.453c.2193.0433.4354.092.6492.1508C81.2466,56.273,81.2466,56.2913,81.2466,56.3108Z" fill="#f7cba4"/>
    <path d="M81.2464,56.3108c0,.2485-.01.4956-.0306.7384l-4.1349,3.0029a8.0163,8.0163,0,0,1-9.4229,0l-4.1307-3.0015c-.0224-.2444-.0322-.49-.0322-.74,0-.02,0-.0376.0014-.0572v-.0013c.2122-.0573.4285-.1077.6464-.1493h16.453c.2193.0433.4354.092.6492.1508C81.2464,56.273,81.2464,56.2913,81.2464,56.3108Z" fill="#e0b394"/>
    <path d="M82.811,54.4931,77.0805,58.656a8.0163,8.0163,0,0,1-9.4229,0l-5.73-4.1629A10.5682,10.5682,0,0,1,57.62,44.9279l.8683-8.979.1257-1.3052a13.8182,13.8182,0,0,1,27.5092,0l.9925,10.2843A10.5667,10.5667,0,0,1,82.811,54.4931Z" fill="#f7cba4"/>
    <path d="M61.1863,46.9577A6.3786,6.3786,0,0,0,62.67,51.4389l5.9892,7.36a4.7658,4.7658,0,0,0,1.0512.9353,7.96,7.96,0,0,1-2.0535-1.0763l-5.73-4.1628a10.5649,10.5649,0,0,1-4.3052-9.564l.9925-10.2856a13.8159,13.8159,0,0,1,13.548-12.4857c-4.3275.1048-9.2279,4.1838-9.4834,8.5281Z" fill="#e0b394"/>
    <path d="M85.5851,31.9325a10.8376,10.8376,0,0,0-8.4108-.0795c-3.9589,1.6013-6.7006,1.4769-8.7485.5807-.0462-.0223-.0936-.0433-.141-.0656-.0447-.02-.0878-.0405-.1312-.0614a8.0941,8.0941,0,0,1-1.1642-.6923c-.0042.0126-.01.0252-.0152.0375-1.5635,4.0135-8.3816,4.4727-8.3816,4.4727s-.039-.0614-.1033-.176l.1257-1.3052a13.819,13.819,0,0,1,26.97-2.7109Z" fill="#e0b394"/>
    <path d="M91.2736,34.7381S85.11,27.3854,77.1743,30.5962c-3.959,1.6013-6.7007,1.477-8.7486.5808-.0462-.0224-.0936-.0433-.141-.0657-.0447-.02-.0878-.04-.1311-.0614a8.0715,8.0715,0,0,1-1.1643-.6923c-.0042.0125-.01.0252-.0154.0376-1.5634,4.0134-8.3815,4.4727-8.3815,4.4727s-3.0558-4.8763-1.3807-8.6454c1.3276-2.9888,4.85-6.1522,10.8441-7.3344a26.8291,26.8291,0,0,1,5.21-.4831C82.4788,18.4049,91.2736,24.5473,91.2736,34.7381Z" fill="#666"/>
    <path d="M68.0558,18.8879s-7.1488,7.4937-1.0819,11.5072c-1.5634,4.0134-8.3815,4.4727-8.3815,4.4727s-3.0558-4.8762-1.3807-8.6453C58.5391,23.2337,62.0613,20.07,68.0558,18.8879Z" fill="#4d4d4d"/>
    <path d="M88.2838,73.342H82.1162v6.84h6.1676Z" fill="#f7cba4"/>
    <path d="M62.621,73.342H56.4551v6.84H62.621Z" fill="#f7cba4"/>
    <path d="M60.5034,73.342H56.4551v6.84h4.0483Z" fill="#e0b394"/>
    <path d="M66.1544,45.2559a1.0468,1.0468,0,0,1-1.047-1.0469V42.5343a1.047,1.047,0,0,1,2.094,0V44.209A1.047,1.047,0,0,1,66.1544,45.2559Z" fill="#4d4d4d"/>
    <path d="M80.9763,39.3236a.8342.8342,0,0,1-.5922-.2454,2.5472,2.5472,0,0,0-3.6026,0,.8377.8377,0,0,1-1.1848-1.1846,4.2227,4.2227,0,0,1,5.972,0,.8378.8378,0,0,1-.5924,1.43Z" fill="#666"/>
    <path d="M68.5479,39.3255a.8342.8342,0,0,1-.5922-.2454,2.5507,2.5507,0,0,0-3.6029,0,.8377.8377,0,0,1-1.1847-1.1846,4.2277,4.2277,0,0,1,5.972,0,.8377.8377,0,0,1-.5922,1.43Z" fill="#666"/>
    <path d="M78.5831,45.2559a1.0469,1.0469,0,0,1-1.047-1.0469V42.5343a1.047,1.047,0,1,1,2.094,0V44.209A1.047,1.047,0,0,1,78.5831,45.2559Z" fill="#4d4d4d"/>
    <path d="M68.5645,51.7131c.8071.1837,1.4428.3287,2.06.4071a12.8283,12.8283,0,0,0,1.7445.1218,13.1521,13.1521,0,0,0,1.7435-.1247c.6163-.0785,1.2515-.2225,2.0606-.4042a3.2654,3.2654,0,0,1-1.43,1.9275,4.392,4.392,0,0,1-4.7463-.0027A3.2779,3.2779,0,0,1,68.5645,51.7131Z" fill="#4d4d4d"/>
    <path d="M71.2617,48.5366l1.8173-.4843a1.0489,1.0489,0,0,0,.7435-1.2836l-1.2384-4.6481" fill="#e0b394"/>
  </g>
</svg>
