<svg xmlns="http://www.w3.org/2000/svg" xmlns:xlink="http://www.w3.org/1999/xlink" width="106" height="106" viewBox="0 0 106 106">
  <defs>
    <linearGradient id="a" data-name="Безымянный градиент" x1="-103.9796" y1="819.5322" x2="-219.7475" y2="939.2741" gradientTransform="translate(202.4 -813.5117)" gradientUnits="userSpaceOnUse">
      <stop offset="0" stop-color="#e19fe4"/>
      <stop offset="1" stop-color="#e19fe4" stop-opacity="0"/>
    </linearGradient>
  </defs>
  <circle cx="53" cy="53" r="53" opacity="0.5" fill="url(#a)" style="isolation: isolate"/>
  <g>
    <path d="M61.2457,63.771H45.9066A10.059,10.059,0,0,0,35.8477,73.83V88.5953H71.3046V73.83A10.0588,10.0588,0,0,0,61.2457,63.771Z" fill="#e6e6e6"/>
    <path d="M52.1045,63.7717H45.9067a10.059,10.059,0,0,0-10.059,10.059V88.596h6.1978V73.8307A10.059,10.059,0,0,1,52.1045,63.7717Z" fill="#ccc"/>
    <path d="M54.7961,63.7708h-2.44V88.5955h2.44Z" fill="#ccc"/>
    <path d="M60.7012,64.7405l-5.3054,3.0631a2.0994,2.0994,0,0,0-3.6392,0l-5.3054-3.0631v8.227l5.3054-3.0629a2.0994,2.0994,0,0,0,3.6392,0l5.3054,3.0629Z"/>
    <path d="M57.4252,86.2683a1.1928,1.1928,0,1,0-1.1928-1.1927A1.1927,1.1927,0,0,0,57.4252,86.2683Z" fill="#4d4d4d"/>
    <path d="M57.4252,76.7275a1.1928,1.1928,0,1,0-1.1928-1.1927A1.1927,1.1927,0,0,0,57.4252,76.7275Z" fill="#4d4d4d"/>
    <path d="M57.4252,81.498a1.1928,1.1928,0,1,0-1.1928-1.1927A1.1927,1.1927,0,0,0,57.4252,81.498Z" fill="#4d4d4d"/>
    <path d="M36.0677,45.96H16.5256A17.3406,17.3406,0,0,0,24.897,68.7338a3.2542,3.2542,0,0,0,2.7976,0A17.345,17.345,0,0,0,36.0677,45.96ZM18.9166,54.255a1.2193,1.2193,0,0,1,1.22-1.22h3.5782a1.22,1.22,0,1,1,0,2.44H20.1364A1.2193,1.2193,0,0,1,18.9166,54.255Zm11.7853,6.0586c-.026.0716-.0585.1463-.0943.231-.044.0813-.0992.1658-.1561.26-.0585.0961-.1285.19-.2032.296a3.452,3.452,0,0,1-.2522.2928c-.0894.0992-.19.1968-.2959.3008-.1106.0943-.2293.1855-.3546.2782a2.6265,2.6265,0,0,1-.4018.2619c-.1431.0813-.2928.1594-.4473.2358a5.2481,5.2481,0,0,1-1.0085.3189,5.6579,5.6579,0,0,1-1.09.1236,5.7908,5.7908,0,0,1-1.0914-.12,5.2633,5.2633,0,0,1-1.0084-.32c-.1546-.0748-.3042-.153-.4473-.2342-.0716-.0407-.1432-.0765-.21-.122-.0651-.0472-.13-.0927-.1936-.14-.1252-.0927-.2439-.1854-.3546-.2781-.1041-.1041-.205-.2017-.296-.3009a3.082,3.082,0,0,1-.2488-.291c-.07-.1041-.1383-.1968-.1936-.2895-.0569-.0943-.1123-.1773-.1545-.2586-.0407-.0878-.0765-.1675-.1041-.2408a2.9584,2.9584,0,0,1-.1545-.47s.1936.0293.4765.1009c.0731.0162.148.0391.2292.0585.0879.0147.1757.0358.2717.0536.187.0407.3838.0943.605.1252.109.0178.2163.044.3286.0651q.1731.02.3464.0488c.0569.01.1154.02.1741.0293.0585.0082.12.0113.18.02.12.0114.239.0276.3578.0472.2488.0064.4895.0487.74.05.2456.026.496.0114.7466.0276.2488-.0162.4993,0,.7465-.026.2506,0,.4912-.044.74-.05.1187-.0179.2374-.0343.3594-.0456.0585-.0082.12-.0114.179-.02.0585-.0113.1154-.0211.1741-.0293.1154-.02.231-.0358.3481-.0487.1105-.0211.2179-.0471.3269-.0667.1073-.0178.22-.0342.3139-.0553.096-.02.1887-.044.2814-.06.0943-.0178.1806-.0373.2684-.052.0862-.0244.1643-.05.239-.0683a4.0291,4.0291,0,0,1,.4782-.104A3.9917,3.9917,0,0,1,30.7019,60.3136ZM32.66,55.4748H29.082a1.22,1.22,0,1,1,0-2.44H32.66a1.22,1.22,0,0,1,0,2.44Z" fill="#722376"/>
    <path d="M36.5928,50.0241a3.7949,3.7949,0,0,1,.1725-7.5859,3.7066,3.7066,0,0,1,.5562.0407" fill="#e0b394"/>
    <path d="M70.5567,50.0241a3.7949,3.7949,0,0,0-.1723-7.5859,3.915,3.915,0,0,0-.5563.0407" fill="#e0b394"/>
    <path d="M65.7428,61.5742l-6.6767,4.85a9.34,9.34,0,0,1-10.9786,0l-6.6767-4.85a12.3119,12.3119,0,0,1-5.0176-11.1429l.5774-5.9773.5807-6.0065a16.1,16.1,0,0,1,32.0511,0l.5612,5.8065.5969,6.1773A12.3153,12.3153,0,0,1,65.7428,61.5742Z" fill="#f7cba4"/>
    <path d="M40.5477,52.794a7.431,7.431,0,0,0,1.7288,5.2209L49.2546,66.59a5.5556,5.5556,0,0,0,1.2248,1.09,9.2821,9.2821,0,0,1-2.3925-1.2539l-6.6767-4.85a12.3091,12.3091,0,0,1-5.016-11.1429l1.1564-11.9838A16.0968,16.0968,0,0,1,53.3354,23.9014c-5.0421.122-10.7514,4.8744-11.0491,9.9361Z" fill="#e0b394"/>
    <path d="M70.1636,44.254C62.3094,32.95,57.861,39.0233,53.4143,39.0233a11.7221,11.7221,0,0,1-3.0008-.3871,12.7764,12.7764,0,0,1-6.5954-4.33c0,4.2288-6.6555,10.6046-6.6555,10.6046-.0651-.1529-.13-.3057-.1919-.4571l.5807-6.0065a16.1,16.1,0,0,1,32.0512,0Z" fill="#e0b394"/>
    <path d="M71.63,44.0654c-8.7829-14.3129-13.5-7.4817-18.2165-7.4817a11.7221,11.7221,0,0,1-3.0008-.3871,12.7759,12.7759,0,0,1-6.5953-4.33c0,4.2288-6.6556,10.6046-6.6556,10.6046-7.7939-18.184,8.5847-20.5358,8.5847-20.5358C47.0329,19,51.0812,16.8189,56,17.0108a16.76,16.76,0,0,1,5.5463,1.1939C78.7863,25.0357,71.63,44.0654,71.63,44.0654Z" fill="#f9c573"/>
    <path d="M50.4125,36.1966a12.7759,12.7759,0,0,1-6.5953-4.33c0,4.2288-6.6556,10.6046-6.6556,10.6046-7.7939-18.184,8.5847-20.5358,8.5847-20.5358C47.0329,19,51.0812,16.8189,56,17.0108,55.736,17.1133,45.307,21.28,50.4125,36.1966Z" fill="#e2af66"/>
    <path d="M87.1031,64.5017H67.9807A16.9718,16.9718,0,0,0,76.1732,86.786a3.1781,3.1781,0,0,0,2.7374,0,16.9714,16.9714,0,0,0,8.1925-22.2843ZM70.2774,72.5088a1.22,1.22,0,0,1,1.22-1.22h3.4546a1.22,1.22,0,1,1,0,2.44H71.4973A1.22,1.22,0,0,1,70.2774,72.5088Zm11.0989,6.9336c-.07-.0147-.1432-.0358-.2228-.0554-.0845-.0113-.1708-.0309-.2635-.0471-.1821-.0374-.3741-.0845-.5887-.1123-.1041-.0162-.2082-.0407-.3155-.06-.1123-.01-.2246-.0245-.3351-.0423-.0569-.0064-.1123-.0178-.1674-.0276-.057-.0064-.1155-.0082-.1724-.0146-.1171-.0114-.231-.026-.3464-.0423-.2375-.0049-.4684-.0456-.7075-.044-.2374-.0244-.4765-.01-.7157-.026-.2374.0147-.4782,0-.7139.0227-.2408,0-.4716.0391-.7092.0439-.1154.0162-.2293.0309-.3464.0422-.057.0065-.1154.0082-.1724.0147-.0553.0113-.1122.0211-.1674.0276-.1123.0178-.2228.0325-.3351.0422-.1089.02-.2114.0439-.3172.06-.2179.0293-.3985.0715-.5774.104-.0911.0147-.1757.0342-.26.0456-.0845.0227-.161.0471-.2341.0634a3.4871,3.4871,0,0,1-.4668.0943,3.92,3.92,0,0,1,.14-.4554c.026-.07.0553-.1447.0894-.2261.0407-.0813.0927-.1627.15-.2554.0554-.0943.1221-.187.1937-.29a3.5315,3.5315,0,0,1,.2423-.2879c.0862-.0976.1838-.1919.2846-.2944.1074-.0911.2212-.1805.3433-.2717a2.5568,2.5568,0,0,1,.3886-.257c.1383-.078.283-.1545.4327-.2292a5.0981,5.0981,0,0,1,.9775-.314,5.5953,5.5953,0,0,1,1.0588-.12,5.4746,5.4746,0,0,1,1.06.1188,5.0867,5.0867,0,0,1,.9776.3123c.15.0748.2944.1512.4327.2293.07.0407.1382.0764.2032.12.0634.0455.1269.0894.187.1365.12.0912.2359.1806.3415.2717.1025.1025.1984.1984.2864.2944a3.3937,3.3937,0,0,1,.239.2863c.0667.1009.1318.1919.1854.283s.1058.1724.1481.2537c.0373.0845.0716.1627.0976.2359a2.88,2.88,0,0,1,.1431.4587S81.6544,79.5059,81.3763,79.4424Zm2.21-5.7138H80.1321a1.22,1.22,0,0,1,0-2.44h3.4546a1.22,1.22,0,1,1,0,2.44Z" fill="#ff1c80"/>
    <path d="M26.9689,30.0182a.8945.8945,0,0,1-.6326-1.527l2.1528-2.1528a.8945.8945,0,0,1,1.2649,1.265l-2.1525,2.1528A.8926.8926,0,0,1,26.9689,30.0182Z" fill="#ff1c80"/>
    <path d="M20.5538,36.4338a.8946.8946,0,0,1-.6325-1.5271l2.1527-2.1528a.8945.8945,0,1,1,1.2649,1.2651l-2.1527,2.1527A.8917.8917,0,0,1,20.5538,36.4338Z" fill="#ff1c80"/>
    <path d="M29.1225,36.4338a.8923.8923,0,0,1-.6326-.2621L26.3373,34.019a.8945.8945,0,1,1,1.2649-1.2651l2.1527,2.1528a.8946.8946,0,0,1-.6324,1.5271Z" fill="#ff1c80"/>
    <path d="M22.7076,30.0182a.8926.8926,0,0,1-.6326-.262l-2.1528-2.1528a.8945.8945,0,0,1,1.2649-1.265L23.34,28.4912a.8945.8945,0,0,1-.6323,1.527Z" fill="#ff1c80"/>
    <path d="M81.876,55.0639a.8945.8945,0,0,1-.6326-1.5271l1.7035-1.7033a.8945.8945,0,1,1,1.2649,1.265l-1.7035,1.7032A.8906.8906,0,0,1,81.876,55.0639Z" fill="#722376"/>
    <path d="M76.8,60.14a.8945.8945,0,0,1-.6326-1.5271l1.7034-1.7033a.8945.8945,0,1,1,1.2649,1.2651l-1.7034,1.7033A.8918.8918,0,0,1,76.8,60.14Z" fill="#722376"/>
    <path d="M83.58,60.14a.8923.8923,0,0,1-.6326-.2621l-1.7035-1.7033a.8945.8945,0,1,1,1.2649-1.265l1.7035,1.7033A.8946.8946,0,0,1,83.58,60.14Z" fill="#722376"/>
    <path d="M78.5034,55.0641a.8926.8926,0,0,1-.6326-.262l-1.7034-1.7032a.8945.8945,0,1,1,1.2649-1.2651l1.7034,1.7034a.8943.8943,0,0,1-.6323,1.5269Z" fill="#722376"/>
    <path d="M59.9425,55.6341s-.0927.2277-.2879.5872c-.0471.0927-.1025.19-.1643.2959-.0732.1041-.1578.21-.2488.3286s-.1952.239-.3057.3724a1.2651,1.2651,0,0,1-.127.1367c-.0162.0163-.0342.0325-.052.0487-.0634.0585-.1285.12-.1952.1822-.1334.1252-.2781.2488-.4293.3789-.1594.1171-.33.2276-.5059.3481-.0878.06-.1789.1187-.2716.1772-.0927.0554-.1919.1009-.2928.1512-.1984.1009-.4051.1984-.6181.296a7.9632,7.9632,0,0,1-1.384.3984,7.246,7.246,0,0,1-2.97.0016,7.9581,7.9581,0,0,1-1.384-.3984c-.2131-.096-.42-.1936-.62-.2944-.0992-.05-.1984-.096-.2928-.1512-.0911-.06-.1821-.1172-.27-.1772-.1757-.12-.3482-.2326-.5074-.3482-.1512-.13-.2944-.2554-.4294-.379l-.1936-.1839-.0683-.0633a1.0841,1.0841,0,0,1-.1089-.12c-.1057-.1285-.2082-.2472-.2977-.3643-.0878-.1188-.1741-.2228-.2457-.3269-.0651-.1105-.1252-.2114-.1756-.3041a5.3843,5.3843,0,0,1-.2879-.5921s.2407.0732.6116.2228c.0943.0358.1919.08.3008.1236.1155.0342.2342.0781.3611.12.1285.0423.257.0943.3936.1432.1349.052.2879.0862.4391.1318.1512.044.3026.0976.46.1447.1643.0358.3286.0781.4978.1188.0845.0195.1675.0439.2521.0666.0863.02.1757.031.2635.0488q.2658.0464.5318.1073c.3693.0343.7335.1155,1.1142.13.3757.0488.7595.0358,1.14.0585.3822-.0227.7661-.0082,1.1417-.0569.3806-.0131.7449-.096,1.1141-.13.1773-.0391.3546-.0749.5319-.1058.0878-.0178.1772-.0293.2634-.0487.0845-.0244.1692-.0471.2521-.0667.1692-.0407.3335-.0845.4978-.1187.1594-.0472.3106-.1009.462-.1448.15-.0455.3057-.0813.4359-.1318.1334-.0455.2586-.096.3856-.1349.1252-.0423.2423-.0846.3577-.1188.1139-.0487.2148-.096.3106-.1334A6.5057,6.5057,0,0,1,59.9425,55.6341Z" fill="#f2f2f2"/>
    <path d="M58.8083,57.3552c-.0163.0162-.0343.0325-.0521.0487-.0634.0585-.1285.12-.1952.1821-.1334.1252-.2781.2488-.4293.3789-.1594.1171-.33.2277-.5058.3481-.0879.06-.179.1188-.2717.1773-.0927.0553-.1919.1009-.2928.1512-.1984.1009-.4051.1983-.6181.2959a7.9633,7.9633,0,0,1-1.384.3985,7.2506,7.2506,0,0,1-2.97.0016,7.9583,7.9583,0,0,1-1.384-.3985c-.2131-.096-.42-.1936-.62-.2944-.0992-.05-.1984-.096-.2928-.1512-.0911-.06-.1821-.1171-.27-.1772-.1757-.12-.3482-.2326-.5074-.3481-.1513-.13-.2944-.2555-.4294-.3791l-.1936-.1838-.0683-.0634c.0521.0178.1041.0358.1578.0536.1285.0423.257.0927.3936.1414.135.0537.2879.0879.4391.1334.1512.0439.3026.0961.46.1448.1643.0342.3286.078.4977.1187.0846.02.1675.0423.2522.0651.0862.02.1756.0309.2634.0488.1773.0309.3546.0682.5319.1073.3692.0358.7335.1172,1.1141.13.3757.0505.76.0358,1.14.06.3822-.0227.7662-.0082,1.1418-.0585.3806-.013.7448-.0943,1.1141-.1285.1772-.0391.3546-.0764.5318-.1073.0878-.0179.1772-.0294.2635-.0488.0845-.0227.1692-.0455.2521-.0651.1692-.0407.3335-.0845.4978-.1187.1594-.0487.3106-.1025.4619-.1448.15-.0455.3058-.0829.436-.1318.1334-.0471.2586-.096.3855-.1365C58.7091,57.3894,58.7594,57.3714,58.8083,57.3552Z" fill="#4d4d4d"/>
    <path d="M46.3342,50.1861a1.22,1.22,0,0,1-1.22-1.22V47.0151a1.22,1.22,0,0,1,2.44,0v1.9511A1.22,1.22,0,0,1,46.3342,50.1861Z" fill="#4d4d4d"/>
    <path d="M58.0264,43.1929s.0033-.0323.0141-.0879c.0125-.0539.0251-.1389.0524-.2352.0122-.05.028-.1016.046-.1587.0236-.0579.0554-.1161.089-.1821s.0755-.1319.12-.2055A2.2951,2.2951,0,0,1,58.5,42.12c.0554-.0694.1176-.1367.1827-.2088.0689-.0653.1435-.13.2228-.1941a3.0435,3.0435,0,0,1,.5429-.3456,3.2091,3.2091,0,0,1,.6543-.2239,3.0565,3.0565,0,0,1,1.4258-.0018,3.23,3.23,0,0,1,.6548.2231,3.0291,3.0291,0,0,1,.5434.3454c.0792.0646.1541.129.2229.194.0651.0725.1271.14.1827.2092a2.0719,2.0719,0,0,1,.15.2028c.0409.0716.0806.1357.1128.2005s.0631.1223.0865.18c.0213.06.04.1147.0542.1662a2.4354,2.4354,0,0,1,.0556.239.8713.8713,0,0,1,.0127.087s-.0336-.0009-.0906-.0064c-.0553-.0072-.1411-.0108-.236-.0246-.0491-.005-.0992-.014-.1544-.0214-.0586-.0027-.1165-.0109-.1795-.0158-.1235-.0131-.2522-.0323-.394-.0379-.0695-.0046-.1371-.0147-.2077-.0206-.073-.001-.145-.0047-.2166-.01-.14-.0183-.2926-.0075-.4341-.0252-.1487.0053-.2913-.0128-.4388-.0083-.145-.011-.2918.0007-.4374-.01-.1456.01-.2922-.0027-.4377.0078-.1476-.0052-.29.0137-.4393.0076-.1417.0175-.2943.0066-.4345.025-.0716.0053-.1436.0092-.2167.01-.0706.0059-.1377.0165-.2077.0208-.1445.0078-.2645.0214-.385.0319-.0632.0049-.1224.01-.1772.0135-.0584.0107-.1117.0223-.1624.0289-.0985.0174-.1844.0215-.2391.0285C58.059,43.1929,58.0264,43.1929,58.0264,43.1929Z" fill="#666"/>
    <path d="M43.5459,43.1929s.0033-.0323.0141-.0879c.0125-.0539.0251-.1389.0524-.2352.0123-.05.0281-.1016.046-.1587.0236-.0579.0554-.1161.089-.1821s.0755-.1319.12-.2055a2.2567,2.2567,0,0,1,.1522-.2039c.0553-.0694.1176-.1367.1827-.2088.0688-.0653.1434-.13.2228-.1941a3.04,3.04,0,0,1,.5429-.3456,3.2049,3.2049,0,0,1,.6543-.2239,3.0561,3.0561,0,0,1,1.4257-.0018,3.2314,3.2314,0,0,1,.6549.2231,3.0318,3.0318,0,0,1,.5433.3454c.0792.0646.1541.129.223.194.0651.0725.127.14.1826.2092a2.04,2.04,0,0,1,.15.2028c.041.0716.0806.1357.1128.2005s.0631.1223.0866.18c.0212.06.04.1147.0542.1662.0309.1.0436.1854.0556.239.01.0555.0126.087.0126.087s-.0336-.0009-.0905-.0064c-.0554-.0072-.1412-.0108-.236-.0246-.0492-.005-.0992-.014-.1544-.0214-.0587-.0027-.1166-.0109-.18-.0158-.1234-.0131-.2522-.0323-.3939-.0379-.07-.0046-.1372-.0147-.2077-.0206-.0731-.001-.1451-.0047-.2167-.01-.14-.0183-.2926-.0075-.434-.0252-.1488.0053-.2914-.0128-.4389-.0083-.145-.011-.2918.0007-.4374-.01-.1456.01-.2922-.0027-.4377.0078-.1476-.0052-.29.0137-.4392.0076-.1418.0175-.2944.0066-.4346.025-.0715.0053-.1435.0092-.2167.01-.0706.0059-.1377.0165-.2077.0208-.1445.0078-.2645.0214-.3849.0319q-.095.0074-.1773.0135c-.0583.0107-.1117.0223-.1624.0289-.0985.0174-.1844.0215-.239.0285C43.5784,43.1929,43.5459,43.1929,43.5459,43.1929Z" fill="#666"/>
    <path d="M60.8156,50.1861a1.22,1.22,0,0,1-1.22-1.22V47.0151a1.22,1.22,0,1,1,2.44,0v1.9511A1.22,1.22,0,0,1,60.8156,50.1861Z" fill="#4d4d4d"/>
    <path d="M55.446,45.2258V51a1.87,1.87,0,1,1-3.7409,0v-5.774" fill="#e0b394"/>
  </g>
</svg>
