<svg xmlns="http://www.w3.org/2000/svg" xmlns:xlink="http://www.w3.org/1999/xlink" width="106" height="106" viewBox="0 0 106 106">
  <defs>
    <linearGradient id="a" data-name="Безымянный градиент" x1="-103.9796" y1="819.5322" x2="-219.7475" y2="939.2741" gradientTransform="translate(202.4 -813.5117)" gradientUnits="userSpaceOnUse">
      <stop offset="0" stop-color="#e19fe4"/>
      <stop offset="1" stop-color="#e19fe4" stop-opacity="0"/>
    </linearGradient>
  </defs>
  <circle cx="53" cy="53" r="53" opacity="0.5" fill="url(#a)" style="isolation: isolate"/>
  <g>
    <path d="M49.811,13a8.3842,8.3842,0,0,0-6.2248,2.756A6.0857,6.0857,0,0,0,35.23,21.3975V35.588a11.493,11.493,0,1,0,22.9849,0v-14.19A8.4,8.4,0,0,0,49.811,13Z" fill="#d48748"/>
    <path d="M62.3844,63.5435a4.3813,4.3813,0,0,1-4.3762-4.3764V50.0756a11.0747,11.0747,0,0,1,.3393-2.7233h-4.62l-3.2358,4.9792a.8438.8438,0,0,1-1.4964,0L47.0118,49.28a.3075.3075,0,0,0-.58,0l-1.9835,3.0517a.8434.8434,0,0,1-1.496,0l-3.236-4.979H34.0157a2.9786,2.9786,0,0,0-2.9708,2.9686V78.7618H63.1882V63.5435Z" fill="#722376"/>
    <path d="M44.4623,61.33a1.613,1.613,0,0,1-3.226,0c0-.8885.7219-2.5287,1.6128-2.5287S44.4623,60.441,44.4623,61.33Z" fill="#ffc12e"/>
    <path d="M50.4012,61.33a1.6132,1.6132,0,0,1-3.2264,0c0-.8885.7226-2.5287,1.6131-2.5287S50.4012,60.441,50.4012,61.33Z" fill="#ffc12e"/>
    <path d="M56.3393,61.33a1.613,1.613,0,0,1-3.226,0c0-.8885.7224-2.5287,1.613-2.5287S56.3393,60.441,56.3393,61.33Z" fill="#ffc12e"/>
    <path d="M34.3714,78.7618V50.3209a2.9786,2.9786,0,0,1,2.9708-2.9686H34.0157a2.9786,2.9786,0,0,0-2.9708,2.9686V78.7618Z" fill="#15004d" opacity="0.1" style="isolation: isolate"/>
    <path d="M37.25,78.7617V57.89a1.0254,1.0254,0,0,0-2.0508,0V78.7617Z" fill="#5e1262"/>
    <path d="M53.8137,44.84H53.42a11.2348,11.2348,0,0,1-13.3953,0H39.631a.8731.8731,0,0,0-.7785,1.4322l3.9862,6.1332a.979.979,0,0,0,1.7253,0l1.9834-3.0517c.0684-.1051.1352-.1426.1752-.1426s.1069.0375.1752.1426l1.9833,3.0517a.9793.9793,0,0,0,1.7256,0l3.9859-6.1333a.8732.8732,0,0,0-.7789-1.4322Z" fill="#eee3e8"/>
    <path d="M49.811,13a8.3842,8.3842,0,0,0-6.2248,2.756A6.0857,6.0857,0,0,0,35.23,21.3975v7.2832c0-6.4088,5.1458-8.4609,11.4926-8.4609s11.4923,2.0521,11.4923,8.4609V21.3975A8.4,8.4,0,0,0,49.811,13Z" fill="#d48748"/>
    <path d="M35.3658,35.5879V30.552H34.0465A2.1229,2.1229,0,0,0,31.93,32.6687v2.806a2.1229,2.1229,0,0,0,2.1168,2.1168H35.543A11.5916,11.5916,0,0,1,35.3658,35.5879Z" fill="#ffb98a"/>
    <path d="M59.3973,30.552h-1.32v5.0359A11.573,11.573,0,0,1,57.9,37.5916h1.4969a2.1229,2.1229,0,0,0,2.1167-2.1168v-2.806A2.1229,2.1229,0,0,0,59.3973,30.552Z" fill="#ffb98a"/>
    <path d="M38.1821,22.3283v-.9307a6.0838,6.0838,0,0,1,4.6092-5.9,6.0879,6.0879,0,0,0-7.5618,5.9v7.2831A7.3283,7.3283,0,0,1,38.1821,22.3283Z" fill="#15004d" opacity="0.1" style="isolation: isolate"/>
    <path d="M58.2144,35.588a11.493,11.493,0,1,1-22.9849,0V28.6808c0-6.4088,5.1458-8.4608,11.4926-8.4608s11.4923,2.052,11.4923,8.4608Z" fill="#ffd5b3"/>
    <path d="M38.7466,35.588V28.6808c0-5.8049,4.2219-8.0354,9.7339-8.4042-.5732-.0383-1.1606-.0566-1.7584-.0566-6.3468,0-11.4926,2.052-11.4926,8.4608V35.588a11.4938,11.4938,0,0,0,13.251,11.4686A11.5723,11.5723,0,0,1,38.7466,35.588Z" fill="#15004d" opacity="0.1" style="isolation: isolate"/>
    <path d="M48.011,35.79H47.13a1.6749,1.6749,0,0,1-1.67-1.6757v-2.02a1.0254,1.0254,0,1,1,2.0507,0v1.645h.5a1.0254,1.0254,0,0,1,0,2.0508Z" fill="#a75436"/>
    <path d="M41.3779,33.4031a1.0252,1.0252,0,0,1-1.0254-1.0254V30.86a1.0254,1.0254,0,0,1,2.0508,0v1.5181A1.0252,1.0252,0,0,1,41.3779,33.4031Z" fill="#a75436"/>
    <path d="M52.0664,33.4031a1.0252,1.0252,0,0,1-1.0254-1.0254V30.86a1.0254,1.0254,0,1,1,2.0508,0v1.5181A1.0252,1.0252,0,0,1,52.0664,33.4031Z" fill="#a75436"/>
    <path d="M46.867,42.7072a5.1454,5.1454,0,0,1-4.7959-3.2456,1.0254,1.0254,0,0,1,1.9032-.7639,3.1146,3.1146,0,0,0,5.7844,0,1.0253,1.0253,0,1,1,1.9031.7639A5.1443,5.1443,0,0,1,46.867,42.7072Z" fill="#a75436"/>
    <path d="M73.108,63.9746a8.3459,8.3459,0,0,1-7.9077,0,8.7786,8.7786,0,0,0-4.84,7.8328v6.9544H77.9483V71.8074A8.7789,8.7789,0,0,0,73.108,63.9746Z" fill="#fcdb80"/>
    <path d="M65.2,63.9746a8.7786,8.7786,0,0,0-4.84,7.8328v6.9544H64.16V71.8074a8.7517,8.7517,0,0,1,3.4745-6.9779A8.3223,8.3223,0,0,1,65.2,63.9746Z" fill="#15004d" opacity="0.1" style="isolation: isolate"/>
    <path d="M80.23,67.3843c-.43-.4293-3.6317-3.6235-4.0618-4.0526a1.6884,1.6884,0,0,0-2.3844,0l-.9712.9692a1.6813,1.6813,0,0,0,1.5858,2.8229A1.68,1.68,0,0,0,76.4288,69.15a1.6841,1.6841,0,0,0,2.83,1.582l.9712-.9695A1.6785,1.6785,0,0,0,80.23,67.3843Z" fill="#ffb98a"/>
    <path d="M69.1538,64.9705a8.3363,8.3363,0,0,1-2.5454-.3969V65.65a2.5456,2.5456,0,0,0,5.0911,0V64.5735A8.3333,8.3333,0,0,1,69.1538,64.9705Z" fill="#ffb98a"/>
    <path d="M60.5762,51.0078v5.4379a8.5783,8.5783,0,1,0,17.1557,0V51.0078Z" fill="#ffd5b3"/>
    <path d="M63.5046,56.4457V51.29c0-.0946.0032-.1886.0064-.2825H60.5833c-.0029.0941-.0071.1877-.0071.2825v5.1554a8.565,8.565,0,0,0,10.042,8.5331A8.6377,8.6377,0,0,1,63.5046,56.4457Z" fill="#15004d" opacity="0.1" style="isolation: isolate"/>
    <path d="M69.8093,58.3646H69.475a1.5367,1.5367,0,0,1-1.5326-1.5374v-.8a1.0254,1.0254,0,0,1,2.0508,0V56.33a1.0255,1.0255,0,0,1-.1839,2.0344Z" fill="#a75436"/>
    <path d="M64.9482,57.4789a1.0252,1.0252,0,0,1-1.0253-1.0254V55.2593a1.0254,1.0254,0,1,1,2.0507,0v1.1942A1.0254,1.0254,0,0,1,64.9482,57.4789Z" fill="#a75436"/>
    <path d="M73.3594,57.4789a1.0252,1.0252,0,0,1-1.0254-1.0254V55.2593a1.0254,1.0254,0,1,1,2.0508,0v1.1942A1.0253,1.0253,0,0,1,73.3594,57.4789Z" fill="#a75436"/>
    <path d="M69.2681,62.8277a4.2665,4.2665,0,0,1-3.9762-2.6906,1.0254,1.0254,0,1,1,1.9031-.7643,2.2327,2.2327,0,0,0,4.1464,0,1.0254,1.0254,0,1,1,1.9031.764A4.2663,4.2663,0,0,1,69.2681,62.8277Z" fill="#a75436"/>
    <path d="M80.4371,50.0755a11.2825,11.2825,0,0,0-22.565,0V59.167A4.5131,4.5131,0,0,0,62.385,63.68h2.0538a8.6736,8.6736,0,0,1-3.8623-7.2343v-5.101H77.7322v5.101A8.674,8.674,0,0,1,73.87,63.68h2.054a4.513,4.513,0,0,0,4.513-4.5131Z" fill="#161416"/>
    <path d="M44.2112,67.2647V63.2716a.4249.4249,0,0,0-.4234-.4235H41.9117a.4249.4249,0,0,0-.4234.4235v3.9931Z" fill="#00afe0"/>
    <path d="M50.15,67.2647V63.2716a.4248.4248,0,0,0-.4234-.4235H47.85a.4248.4248,0,0,0-.4234.4235v3.9931Z" fill="#8c2ca3"/>
    <path d="M56.0887,67.2647V63.2716a.4248.4248,0,0,0-.4234-.4235H53.79a.4248.4248,0,0,0-.4233.4235v3.9931Z" fill="#ff1c80"/>
    <path d="M61.7812,78.7617V67.7966a.7461.7461,0,0,0-.7447-.7434H37.1076a.7465.7465,0,0,0-.7453.7434V78.7617Z" fill="#ffd5b3"/>
    <path d="M61.0363,67.0532H37.1076a.7465.7465,0,0,0-.7453.7434v3.28a2.1612,2.1612,0,0,0,3.3969-.4285,2.16,2.16,0,0,0,3.7252,0,2.1592,2.1592,0,0,0,3.7248,0,2.16,2.16,0,0,0,3.7254,0,2.1593,2.1593,0,0,0,3.7249,0,2.16,2.16,0,0,0,3.7252,0,2.1608,2.1608,0,0,0,3.3965.4285v-3.28A.7463.7463,0,0,0,61.0363,67.0532Z" fill="#fff"/>
    <path d="M39.3112,78.7617V67.7966a.7466.7466,0,0,1,.7454-.7434h-2.949a.7465.7465,0,0,0-.7453.7434V78.7617Z" fill="#15004d" opacity="0.1" style="isolation: isolate"/>
    <path d="M39.5411,78.7618a2.39,2.39,0,0,0,.21-.98v-.13a2.4114,2.4114,0,0,0-4.8228,0v.13a2.39,2.39,0,0,0,.21.98Z" fill="#a75436"/>
    <path d="M43.4515,78.7618a2.39,2.39,0,0,0,.21-.98v-.13a2.4115,2.4115,0,0,0-4.823,0v.13a2.39,2.39,0,0,0,.21.98Z" fill="#fff"/>
    <path d="M47.3625,78.7618a2.39,2.39,0,0,0,.21-.98v-.13a2.4115,2.4115,0,0,0-4.8229,0v.13a2.39,2.39,0,0,0,.21.98Z" fill="#a75436"/>
    <path d="M51.2726,78.7618a2.3888,2.3888,0,0,0,.21-.98v-.13a2.4114,2.4114,0,0,0-4.8228,0v.13a2.3888,2.3888,0,0,0,.21.98Z" fill="#fff"/>
    <path d="M55.1841,78.7618a2.39,2.39,0,0,0,.21-.98v-.13a2.4116,2.4116,0,0,0-4.8232,0v.13a2.39,2.39,0,0,0,.21.98Z" fill="#a75436"/>
    <path d="M59.0939,78.7618a2.39,2.39,0,0,0,.21-.98v-.13a2.4115,2.4115,0,0,0-4.8229,0v.13a2.3889,2.3889,0,0,0,.21.98Z" fill="#fff"/>
    <path d="M63.0044,78.7618a2.39,2.39,0,0,0,.21-.98v-.13a2.4116,2.4116,0,0,0-4.8232,0v.13a2.39,2.39,0,0,0,.21.98Z" fill="#a75436"/>
    <path d="M64.1217,40.1777a.4012.4012,0,0,1-.3894-.6308l5.0816-10.1356c.1739-.3469.4585-.3469.6326,0l5.0817,10.1356a.4012.4012,0,0,1-.3894.6308Z" fill="#be19c7"/>
    <path d="M66.6919,39.5469l3.9181-7.815-1.1635-2.3206c-.174-.3469-.4587-.3469-.6326,0L63.7324,39.5469a.4011.4011,0,0,0,.3893.6308h2.9594A.4012.4012,0,0,1,66.6919,39.5469Z" fill="#15004d" opacity="0.1" style="isolation: isolate"/>
    <path d="M86.4858,82.2945A.7076.7076,0,0,1,85.78,83H20.22a.7077.7077,0,0,1-.7057-.7056V79.2229a.7077.7077,0,0,1,.7057-.7056H85.78a.7076.7076,0,0,1,.7056.7056Z" fill="#fcdb80"/>
    <path d="M23.9289,82.2945V79.2229a.7076.7076,0,0,1,.7056-.7056H20.22a.7077.7077,0,0,0-.7057.7056v3.0716A.7077.7077,0,0,0,20.22,83h4.4142A.7077.7077,0,0,1,23.9289,82.2945Z" fill="#15004d" opacity="0.1" style="isolation: isolate"/>
    <path d="M69.877,35.4a1.0265,1.0265,0,1,1,.7247-.3007A1.0359,1.0359,0,0,1,69.877,35.4Z" fill="#fff"/>
    <path d="M69.0322,38.6389a1.0267,1.0267,0,1,1,.7246-.3006A1.0354,1.0354,0,0,1,69.0322,38.6389Z" fill="#fff"/>
    <path d="M65.2078,37.0708a1.0257,1.0257,0,1,0,.7259-1.75c-.0281,0-.0562.0019-.0841.0042l-.7842,1.5641A1.0222,1.0222,0,0,0,65.2078,37.0708Z" fill="#fff"/>
  </g>
</svg>
