<svg xmlns="http://www.w3.org/2000/svg" xmlns:xlink="http://www.w3.org/1999/xlink" width="106" height="106" viewBox="0 0 106 106">
  <defs>
    <linearGradient id="a" data-name="Безымянный градиент" x1="-103.9796" y1="819.5322" x2="-219.7475" y2="939.2741" gradientTransform="translate(202.4 -813.5117)" gradientUnits="userSpaceOnUse">
      <stop offset="0" stop-color="#e19fe4"/>
      <stop offset="1" stop-color="#e19fe4" stop-opacity="0"/>
    </linearGradient>
  </defs>
  <circle cx="53" cy="53" r="53" opacity="0.5" fill="url(#a)" style="isolation: isolate"/>
  <g>
    <path d="M32.2682,91.4467a1.0513,1.0513,0,0,1,0-1.4868,3.9524,3.9524,0,0,0,0-5.5834,6.0582,6.0582,0,0,1,0-8.5571,3.953,3.953,0,0,0,0-5.5839,1.051,1.051,0,0,1,1.4863-1.4863,6.0571,6.0571,0,0,1,0,8.5571,3.9523,3.9523,0,0,0,0,5.5833,6.0571,6.0571,0,0,1,0,8.5571A1.0518,1.0518,0,0,1,32.2682,91.4467Z"/>
    <path d="M44.5077,53.9009a25.8021,25.8021,0,0,1-6.4664-17.44,1.0521,1.0521,0,0,0-.6958-1.033,12.8047,12.8047,0,0,0-4.3336-.7423c-7.1091,0-12.7883,5.5664-12.7883,13.8815,0,8.2029,5.9031,18.0108,12.7883,18.0108,5.469,0,9.9131-6.0311,11.7279-11.6353A1.053,1.053,0,0,0,44.5077,53.9009Z" fill="#ffca28"/>
    <path d="M44.5076,53.901a25.8031,25.8031,0,0,1-6.4664-17.44,1.0521,1.0521,0,0,0-.6958-1.033,12.9568,12.9568,0,0,0-5.6053-.681,26.5842,26.5842,0,0,0,3.606,11.7717,10.7,10.7,0,0,1-.9328,12.3c-2.1706,2.58-5.123,4.5777-8.4826,4.212,2.1673,2.2823,4.65,3.5475,7.0811,3.5475,5.469,0,9.9131-6.0318,11.7274-11.6354A1.0512,1.0512,0,0,0,44.5076,53.901Z" fill="#ffa000"/>
    <path d="M51.6128,91.4467a1.0514,1.0514,0,0,1,0-1.4869,3.6711,3.6711,0,0,0,0-5.1952,5.783,5.783,0,0,1-.0285-8.1405,3.04,3.04,0,1,1,2.2254-5.395,4.1933,4.1933,0,0,0-1.2356-2.9327,6.2788,6.2788,0,0,1-1.852-4.47,1.0511,1.0511,0,0,1,2.1022,0A4.1926,4.1926,0,0,0,54.06,66.81a6.3219,6.3219,0,0,1,.7785,7.9981,6.2757,6.2757,0,0,1-1.74,3.2738,3.6778,3.6778,0,0,0,0,5.1957,5.7829,5.7829,0,0,1,0,8.169A1.0518,1.0518,0,0,1,51.6128,91.4467Zm.2978-18.7833a.9382.9382,0,1,0,.9378.9438v-.0039A.9393.9393,0,0,0,51.9106,72.6634Z"/>
    <path d="M71.9493,91.7545a1.0513,1.0513,0,0,1-1.0511-1.051,3.5089,3.5089,0,0,0-1.0346-2.4975,5.6341,5.6341,0,0,1-.709-7.1036,5.5964,5.5964,0,0,1,1.5449-2.89,3.06,3.06,0,0,0,0-4.3227,5.156,5.156,0,0,1,0-7.2957A1.051,1.051,0,0,1,72.1858,68.08a3.055,3.055,0,0,0,0,4.3226,5.1562,5.1562,0,0,1,.2053,7.0784A2.78,2.78,0,1,1,70.33,84.5453,3.5065,3.5065,0,0,0,71.35,86.72,5.5986,5.5986,0,0,1,73,90.7035,1.0513,1.0513,0,0,1,71.9493,91.7545Zm-.7976-9.59a.6789.6789,0,1,0,.5775-.63A.68.68,0,0,0,71.1517,82.1644Z"/>
    <path d="M71.4123,29.1a13.7768,13.7768,0,0,0-6.0411,1.356,1.0507,1.0507,0,0,0-.5436,1.269,18.1815,18.1815,0,0,1,.8393,5.5845,26.1621,26.1621,0,0,1-5.775,15.7855,1.0514,1.0514,0,0,0-.1456,1.1157c2.81,6.05,7.28,9.8091,11.6654,9.8091,7.5208,0,13.9812-10.7562,13.9812-19.7348C85.3929,35.2184,79.2161,29.1,71.4123,29.1Z" fill="#ff1c80"/>
    <path d="M74.7311,29.4878c.0941.0936.1872.1878.2792.2847A15.8058,15.8058,0,0,1,79.0865,40.781a24.8026,24.8026,0,0,1-4.1069,13.14c-2.781,4.1906-6.38,6.5945-9.8742,6.5945a7.918,7.918,0,0,1-1.1513-.0871,10.7761,10.7761,0,0,0,7.4578,3.5907c7.5208,0,13.9812-10.7562,13.9812-19.7348C85.3931,36.5148,80.8816,30.9621,74.7311,29.4878Z" fill="#ee1a77"/>
    <path d="M51.8449,20c-8.9676,0-15.924,7.0544-15.924,17.3091,0,10.2744,7.3938,22.542,15.924,22.542,8.5456,0,15.924-12.29,15.924-22.542C67.7689,27.0615,60.82,20,51.8449,20Z" fill="#8c2ca3"/>
    <path d="M56.1253,20.57a17.7913,17.7913,0,0,1,5.3365,13.235c0,10.9034-8.3677,24.191-17.6561,22.37,11.9052,11.2576,23.9626-5.8883,23.9626-18.866C67.7683,28.5991,62.82,22.41,56.1253,20.57Z" fill="#722376"/>
    <path d="M31.751,69.9131a.981.981,0,0,1-.95-1.2247l.5967-2.3293a1.6665,1.6665,0,0,1,3.2288,0l.5967,2.3293a.981.981,0,0,1-.95,1.2247Z" fill="#ffa000"/>
    <path d="M50.0549,64.2466a.9806.9806,0,0,1-.95-1.2246l.8041-3.1391a1.999,1.999,0,0,1,3.8732,0l.8042,3.1391a.9812.9812,0,0,1-.95,1.2246Z" fill="#722376"/>
    <path d="M69.9493,67.7573a.9807.9807,0,0,1-.95-1.2241l.6761-2.6375a1.7929,1.7929,0,0,1,3.4735,0l.6756,2.637a.9807.9807,0,0,1-.95,1.2246Z" fill="#ee1a77"/>
  </g>
</svg>
