<svg xmlns="http://www.w3.org/2000/svg" xmlns:xlink="http://www.w3.org/1999/xlink" width="106" height="106" viewBox="0 0 106 106">
  <defs>
    <linearGradient id="a" data-name="Безымянный градиент" x1="-103.9796" y1="819.5322" x2="-219.7475" y2="939.2741" gradientTransform="translate(202.4 -813.5117)" gradientUnits="userSpaceOnUse">
      <stop offset="0" stop-color="#e19fe4"/>
      <stop offset="1" stop-color="#e19fe4" stop-opacity="0"/>
    </linearGradient>
  </defs>
  <circle cx="53" cy="53" r="53" opacity="0.5" fill="url(#a)" style="isolation: isolate"/>
  <g>
    <path d="M81.3643,60.668H87.728a2.5455,2.5455,0,0,0,2.5455-2.5456V50.486A2.5454,2.5454,0,0,0,87.728,47.94H81.3643Z" fill="#722376"/>
    <path d="M62.2734,75.9408H43.1822a24.1822,24.1822,0,0,1,0-48.3644H62.2734a24.1822,24.1822,0,1,1,0,48.3644Z" fill="#a53eaa"/>
    <path d="M62.2734,21.2663V31.3947A2.5455,2.5455,0,0,0,64.819,33.94h3.6365a2.5384,2.5384,0,0,0,2.5287-2.8677c-.9615-6.7085-5.1776-10.0033-7.3722-10.7738A1.0141,1.0141,0,0,0,62.2734,21.2663Z" fill="#722376"/>
    <path d="M78.819,49.214a1.2715,1.2715,0,0,1-1.1919-.8285,2.7784,2.7784,0,0,0-5.1359,0,1.2723,1.2723,0,1,1-2.3839-.89,5.321,5.321,0,0,1,9.9034,0A1.2738,1.2738,0,0,1,78.819,49.214Z" fill="#722376"/>
    <path d="M57.1821,33.94H39.3636a1.2728,1.2728,0,1,1,0-2.5455H57.1821a1.2728,1.2728,0,0,1,0,2.5455Z" fill="#722376"/>
    <path d="M53.9538,33.94a7.6366,7.6366,0,1,0-11.3611,0Z" fill="#ffdc64"/>
    <path d="M53.0618,30.5381a4.9274,4.9274,0,0,0,.0477-3.266,5.0874,5.0874,0,0,0-9.9271,1.577,4.8888,4.8888,0,0,0,.2971,1.6736.6377.6377,0,0,1-.5872.872H41.0947A7.6614,7.6614,0,0,0,42.5933,33.94H53.9544a7.6635,7.6635,0,0,0,1.4985-2.5455H53.65A.63.63,0,0,1,53.0618,30.5381Z" fill="#ffc850"/>
    <path d="M80.3354,67.7562a23.9428,23.9428,0,0,1-9.1527,1.8209H68.4189A6.2551,6.2551,0,1,0,55.91,69.4719v.1054H52.0914A24.1227,24.1227,0,0,1,34.03,29.3977,24.26,24.26,0,0,0,19,51.7585c0,13.7173,6.9985,24.81,9.3912,28.2021a2.5307,2.5307,0,0,0,2.076,1.0712h5.0785a2.5457,2.5457,0,0,0,2.5456-2.5456V75.3868a24.0082,24.0082,0,0,0,5.0909.5539H55.91v2.5455a2.5457,2.5457,0,0,0,2.5456,2.5456h5.5785A2.5458,2.5458,0,0,0,66.5229,79.02l.7748-3.6152A24.2757,24.2757,0,0,0,80.3354,67.7562Z" fill="#933297"/>
  </g>
</svg>
