<?xml version="1.0" encoding="UTF-8"?><svg id="_Слой_1" xmlns="http://www.w3.org/2000/svg" width="41.55" height="41.55" viewBox="0 0 41.55 41.55"><path d="M30.75,0H10.8C4.84,0,0,4.84,0,10.8V30.75c0,5.97,4.84,10.8,10.8,10.8H30.75c5.97,0,10.8-4.84,10.8-10.8V10.8c0-5.97-4.84-10.8-10.8-10.8Zm-9.14,39.89v-14.13c0-.46-.37-.83-.83-.83h-4.16v-4.99h4.16c.46,0,.83-.37,.83-.83v-6.65c0-2.3,1.86-4.16,4.16-4.16h6.65v4.99h-3.32c-1.38,0-2.49,1.12-2.49,2.49v3.32c0,.46,.37,.83,.83,.83h4.99v4.99h-4.99c-.46,0-.83,.37-.83,.83v14.13h-4.99Zm18.28-9.14c0,5.05-4.09,9.14-9.14,9.14h-2.49v-13.3h4.99c.46,0,.83-.37,.83-.83v-6.65c0-.46-.37-.83-.83-.83h-4.99v-2.49c0-.46,.37-.83,.83-.83h4.16c.46,0,.83-.37,.83-.83V7.48c0-.46-.37-.83-.83-.83h-7.48c-3.21,0-5.82,2.6-5.82,5.82v5.82h-4.16c-.46,0-.83,.37-.83,.83v6.65c0,.46,.37,.83,.83,.83h4.16v13.3H10.8c-5.05,0-9.14-4.09-9.14-9.14V10.8C1.66,5.76,5.76,1.66,10.8,1.66H30.75c5.05,0,9.14,4.09,9.14,9.14V30.75Z"/></svg>