<?xml version="1.0" encoding="UTF-8"?><svg id="_Слой_1" xmlns="http://www.w3.org/2000/svg" width="38.87" height="38.93" viewBox="0 0 38.87 38.93"><path d="M.72,38.93c-.4,0-.72-.32-.72-.72,0-.08,.01-.16,.04-.23l2.86-8.4C-1.73,21.89-.54,12.04,5.79,5.67c7.6-7.56,19.88-7.56,27.48,0h0c7.55,7.66,7.46,19.99-.2,27.55-5.84,5.76-14.66,7.24-22.06,3.71L.87,38.93h-.14Zm10.38-3.51c.11,0,.22,.03,.33,.08,8.91,4.45,19.74,.82,24.19-8.09,3.45-6.92,2.11-15.27-3.34-20.76h0c-7.04-7.04-18.45-7.04-25.49,0,0,0,0,0,0,0C.85,12.66-.17,21.94,4.32,29.08c.12,.19,.14,.41,.07,.62l-2.57,7.58,9.15-1.82,.13-.04Z"/><path d="M24.71,29.53c-.22,.01-.44,.01-.67,0-3.84-.42-8.68-4.22-10.04-5.55h0c-1.34-1.34-5.14-6.2-5.55-10.04-.33-3.07,1.71-5.15,2.61-5.91,.4-.34,.92-.52,1.45-.5l1.95,.07c.29,.01,.55,.2,.65,.47,.43,1.15,1.84,4.97,1.84,5.97,0,.87-.77,1.54-1.45,2.13-.14,.12-.34,.3-.46,.42,.73,1.34,1.61,2.59,2.61,3.73,1.14,1,2.4,1.88,3.73,2.61,.12-.12,.3-.32,.42-.46,.59-.68,1.27-1.45,2.17-1.45,.99,0,4.82,1.4,5.97,1.84,.27,.1,.46,.36,.47,.65l.07,1.95c.01,.53-.16,1.04-.5,1.45-1.29,1.59-3.21,2.55-5.26,2.62Zm-9.68-6.59c1.19,1.19,5.78,4.77,9.18,5.14,2.38,.25,4.04-1.39,4.65-2.1,.11-.13,.16-.3,.16-.48l-.05-1.45c-1.63-.65-3.3-1.18-5-1.58-.23,0-.8,.67-1.05,.95-.49,.56-.88,1.01-1.45,1.01-.92,0-4.12-2.37-4.84-3.09s-3.07-3.94-3.07-4.83c0-.54,.44-.93,1.01-1.45,.27-.25,.93-.81,.95-1.05-.4-1.71-.92-3.38-1.58-5l-1.45-.05c-.17,0-.34,.05-.48,.16-.72,.61-2.36,2.27-2.1,4.64,.37,3.41,3.95,7.95,5.14,9.18h-.03Z"/></svg>