<?xml version="1.0" encoding="UTF-8"?><svg id="_Слой_1" xmlns="http://www.w3.org/2000/svg" width="58.36" height="42.29" viewBox="0 0 58.36 42.29"><path d="M27.97,42.29c-5.36,.01-10.71-.26-16.04-.84-6.12-.69-10.92-5.56-11.54-11.68-.56-5.78-.52-11.61,.12-17.38C1.26,6.26,6.16,1.48,12.31,.89,23.54-.3,34.87-.3,46.11,.89c6.26,.6,11.22,5.54,11.84,11.8,.56,5.67,.54,11.39-.07,17.05-.55,6.19-5.42,11.11-11.6,11.72h0c-6.62,.55-12.67,.82-18.31,.82ZM29.27,2.04c-5.59,0-11.19,.29-16.75,.86C7.32,3.39,3.16,7.42,2.52,12.61c-.63,5.64-.67,11.33-.12,16.97,.52,5.18,4.58,9.29,9.75,9.88,11.31,1.09,22.69,1.09,34,0h0c5.2-.55,9.29-4.72,9.73-9.93,.59-5.53,.62-11.11,.07-16.64-.54-5.3-4.76-9.47-10.06-9.97-5.52-.61-11.06-.92-16.61-.94v.06Z"/><path d="M23.14,30.66c-.56,0-1.01-.45-1.01-1.01V12.55c0-.56,.45-1.01,1.01-1,.19,0,.38,.06,.54,.16l14.09,9.05c.48,.29,.63,.91,.34,1.38-.08,.14-.2,.25-.34,.34l-14.09,8.05c-.17,.09-.35,.14-.54,.13Zm1.01-16.27v13.53l11.14-6.37-11.14-7.16Z"/></svg>