<?xml version="1.0" encoding="UTF-8"?><svg id="_Слой_1" xmlns="http://www.w3.org/2000/svg" width="41" height="41" viewBox="0 0 41 41"><defs><style>.cls-1{fill:none;stroke:rgba(0,0,0,0);stroke-miterlimit:10;}.cls-2{fill:#00df5e;}</style></defs><rect class="cls-1" x=".5" y=".5" width="40" height="40"/><path class="cls-2" d="M15.46,8h-4.89c-1.67,0-3.02,1.35-3.02,3.02v4.89c0,1.67,1.35,3.02,3.02,3.02h4.89c1.67,0,3.02-1.35,3.02-3.02v-4.89c0-1.67-1.35-3.02-3.02-3.02Zm1.81,7.91c0,1-.82,1.81-1.81,1.81h-4.89c-1,0-1.81-.82-1.81-1.81v-4.89c0-1,.82-1.81,1.81-1.81h4.89c1,0,1.81,.82,1.81,1.81v4.89Zm12.64-7.91h-4.89c-1.67,0-3.02,1.35-3.02,3.02v4.89c0,1.67,1.35,3.02,3.02,3.02h4.89c1.67,0,3.02-1.35,3.02-3.02v-4.89c0-1.67-1.35-3.02-3.02-3.02Zm1.81,7.91c0,1-.82,1.81-1.81,1.81h-4.89c-1,0-1.81-.82-1.81-1.81v-4.89c0-1,.82-1.81,1.81-1.81h4.89c1,0,1.81,.82,1.81,1.81v4.89Zm-16.27,6.54h-4.89c-1.67,0-3.02,1.35-3.02,3.02v4.89c0,1.67,1.35,3.02,3.02,3.02h4.89c1.67,0,3.02-1.35,3.02-3.02v-4.89c0-1.67-1.35-3.02-3.02-3.02h0Zm1.81,7.91c0,1-.82,1.81-1.81,1.81h-4.89c-1,0-1.81-.82-1.81-1.81v-4.89c0-1,.82-1.81,1.81-1.81h4.89c1,0,1.81,.82,1.81,1.81,0,0,0,4.89,0,4.89Zm12.64-7.91h-4.89c-1.67,0-3.02,1.35-3.02,3.02v4.89c0,1.67,1.35,3.02,3.02,3.02h4.89c1.67,0,3.02-1.35,3.02-3.02v-4.89c0-1.67-1.35-3.02-3.02-3.02Zm1.81,7.91c0,1-.82,1.81-1.81,1.81h-4.89c-1,0-1.81-.82-1.81-1.81v-4.89c0-1,.82-1.81,1.81-1.81h4.89c1,0,1.81,.82,1.81,1.81,0,0,0,4.89,0,4.89Z"/></svg>