<?xml version="1.0" encoding="UTF-8"?><svg id="_Слой_1" xmlns="http://www.w3.org/2000/svg" width="41" height="41" xmlns:xlink="http://www.w3.org/1999/xlink" viewBox="0 0 41 41"><defs><style>.cls-1{fill:none;opacity:0;stroke:#000;stroke-miterlimit:10;}.cls-2{fill:url(#_Безымянный_градиент_4);}</style><linearGradient id="_Безымянный_градиент_4" x1="20.16" y1="5299.42" x2="20.16" y2="5327.7" gradientTransform="translate(0 5334) scale(1 -1)" gradientUnits="userSpaceOnUse"><stop offset="0" stop-color="#f93563"/><stop offset="1" stop-color="#fad31c"/></linearGradient></defs><rect class="cls-1" x=".5" y=".5" width="40" height="40"/><g id="_35_Features"><path class="cls-2" d="M11.44,34.58H28.88c1.17,0,2.12-.95,2.12-2.12V8.42c0-1.17-.95-2.12-2.12-2.12H11.44c-1.17,0-2.12,.95-2.12,2.12v24.03c0,1.17,.95,2.12,2.12,2.12Zm-1.24-26.16c0-.68,.56-1.24,1.24-1.24H28.88c.68,0,1.24,.56,1.24,1.24v24.03c0,.68-.56,1.24-1.24,1.24H11.44c-.68,0-1.24-.56-1.24-1.24V8.42Zm2.37,4.24l-.29,1.71c-.06,.36,.32,.64,.64,.47l1.54-.81,1.54,.81c.32,.17,.7-.1,.64-.47l-.3-1.71,1.24-1.21c.26-.25,.12-.7-.25-.75l-1.72-.25-.77-1.56c-.15-.3-.64-.3-.79,0l-.77,1.56-1.72,.25c-.36,.05-.51,.5-.25,.75l1.24,1.21Zm1.08-1.37c.14-.02,.27-.11,.33-.24l.48-.96,.48,.96c.06,.13,.19,.22,.33,.24l1.06,.15-.77,.75c-.1,.1-.15,.25-.13,.39l.18,1.06-.95-.5c-.13-.07-.28-.07-.41,0l-.95,.5,.18-1.06c.02-.14-.02-.29-.13-.39l-.77-.75,1.06-.15Zm-1.08,10.05l-.29,1.71c-.06,.36,.32,.64,.64,.47l1.54-.81,1.54,.81c.33,.17,.7-.11,.64-.47l-.3-1.71,1.24-1.21c.26-.26,.12-.7-.25-.75l-1.72-.25-.77-1.56c-.15-.3-.64-.3-.79,0l-.77,1.56-1.72,.25c-.36,.05-.51,.5-.25,.75l1.24,1.21Zm1.08-1.37c.14-.02,.27-.11,.33-.24l.48-.96,.48,.96c.06,.13,.19,.22,.33,.24l1.06,.15-.77,.75c-.1,.1-.15,.25-.13,.39l.18,1.06-.95-.5c-.13-.07-.28-.07-.41,0l-.95,.5,.18-1.06c.02-.14-.02-.29-.13-.39l-.77-.75,1.06-.15Zm-1.08,10.04l-.29,1.71c-.06,.36,.32,.64,.64,.47l1.54-.81,1.54,.81c.33,.17,.7-.11,.64-.47l-.3-1.71,1.24-1.21c.26-.26,.12-.7-.25-.75l-1.72-.25-.77-1.56c-.15-.3-.64-.3-.79,0l-.77,1.56-1.72,.25c-.36,.05-.51,.5-.25,.75l1.24,1.21Zm1.08-1.37c.14-.02,.27-.11,.33-.24l.48-.96,.48,.96c.06,.13,.19,.22,.33,.24l1.06,.15-.77,.75c-.1,.1-.15,.25-.13,.39l.18,1.06-.95-.5c-.13-.07-.28-.07-.41,0l-.95,.5,.18-1.06c.02-.14-.02-.29-.13-.39l-.77-.75,1.06-.15Zm7.18-17.84c0-.24,.2-.44,.44-.44h7.66c.24,0,.44,.2,.44,.44s-.2,.44-.44,.44h-7.66c-.24,0-.44-.2-.44-.44Zm0,1.95c0-.24,.2-.44,.44-.44h7.66c.24,0,.44,.2,.44,.44s-.2,.44-.44,.44h-7.66c-.24,0-.44-.2-.44-.44Zm0,6.72c0-.24,.2-.44,.44-.44h7.66c.24,0,.44,.2,.44,.44s-.2,.44-.44,.44h-7.66c-.24,0-.44-.2-.44-.44Zm0,1.95c0-.24,.2-.44,.44-.44h7.66c.24,0,.44,.2,.44,.44s-.2,.44-.44,.44h-7.66c-.24,0-.44-.2-.44-.44Zm0,6.72c0-.24,.2-.44,.44-.44h7.66c.24,0,.44,.2,.44,.44s-.2,.44-.44,.44h-7.66c-.24,0-.44-.2-.44-.44Zm0,1.95c0-.24,.2-.44,.44-.44h7.66c.24,0,.44,.2,.44,.44s-.2,.44-.44,.44h-7.66c-.24,0-.44-.2-.44-.44Z"/></g></svg>