<?xml version="1.0" encoding="UTF-8"?><svg id="Capa_1" xmlns="http://www.w3.org/2000/svg" width="31.67" height="29.07" viewBox="0 0 31.67 29.07"><defs><style>.cls-1{fill:#425460;}.cls-2{fill:#4677d4;}.cls-3{fill:#c7856a;}.cls-4{fill:#005daf;}.cls-5{fill:#ffcabd;}.cls-6{fill:#eeecff;}.cls-7{fill:#d3d3ff;}.cls-8{fill:#da9d81;}.cls-9{fill:#ffa1ac;}.cls-10{fill:#ffdcce;}</style></defs><ellipse class="cls-10" cx="3.58" cy="14.02" rx="3.11" ry="2.79"/><ellipse class="cls-5" cx="28.09" cy="14.02" rx="3.11" ry="2.79"/><path class="cls-6" d="M23.68,26.81c-.85-3.4-4.04-5.93-7.85-5.93s-7,2.53-7.85,5.93c-.23,.91,.46,1.8,1.4,1.8h1.42l5.02-.95,5.02,.95h1.42c.94,0,1.63-.88,1.4-1.8Z"/><path class="cls-7" d="M15.83,24.23c1.33,0,2.62-.13,3.85-.39v-2.01c-1.14-.6-2.46-.94-3.85-.94s-2.71,.34-3.85,.94v2.01c1.23,.26,2.52,.39,3.85,.39h0Z"/><path class="cls-2" d="M10.81,28.61h10.05c.05-1.57,.23-4.26,.55-5.6,.2-.83-.32-1.67-1.15-1.86-.83-.2-1.68,.35-1.87,1.19-.16,.7-.29,1.66-.39,2.65-.02,.25-.22,.46-.47,.5-.49,.08-1.06,.13-1.69,.13s-1.2-.05-1.69-.13c-.25-.04-.44-.25-.47-.5-.1-1.01-.23-1.98-.4-2.69-.2-.83-1.03-1.34-1.86-1.15-.83,.2-1.34,1.03-1.15,1.86,.32,1.33,.49,4.02,.55,5.6h0Z"/><g><path class="cls-4" d="M20.26,21.15c-.83-.2-1.68,.35-1.87,1.19-.11,.49-.21,1.1-.29,1.75,1.12-.13,2.21-.37,3.23-.69,.03-.14,.05-.27,.08-.38,.2-.83-.32-1.67-1.15-1.86h0Z"/><path class="cls-4" d="M13.27,22.3c-.2-.83-1.03-1.34-1.86-1.15-.83,.2-1.34,1.03-1.15,1.86,.03,.12,.05,.25,.08,.38,1.02,.33,2.1,.56,3.23,.69-.08-.68-.18-1.3-.3-1.79Z"/></g><path class="cls-10" d="M27.98,12.75c0,5.91-5.44,9.62-12.14,9.62S3.69,18.66,3.69,12.75,9.13,2.05,15.83,2.05s12.14,4.79,12.14,10.7Z"/><path class="cls-5" d="M15.83,22.37c2.17,0,4.21-.39,5.98-1.12-9.92-.44-13.6-8.59-9.45-18.76C7.35,3.81,3.69,7.9,3.69,12.75c0,5.91,5.44,9.62,12.14,9.62Z"/><path class="cls-3" d="M4.06,7.08c-.76,.86-1.56,5.72-.72,6.98,.13,.19,.29,.3,.5,.3,.24,0,.5-.08,.77-.22,1.48-.8,3.2-3.62,3.34-6.36l-3.88-.69Z"/><path class="cls-3" d="M27.61,7.08c.71,.81,1.46,5.1,.87,6.69-.14,.37-.34,.59-.64,.59-.27,0-.55-.09-.85-.27-1.46-.86-3.12-3.63-3.26-6.31l3.88-.69Z"/><path class="cls-8" d="M29.27,6.94C27.85,2.81,22.22-.8,16.18,.9c-.22,.06-.46,.06-.69,0C9.45-.8,3.82,2.81,2.39,6.94c-.24,.71,.18,1.48,.91,1.64,2.74,.59,8.53,1.04,12.52,1.04,.25,0,.51,0,.77,0,.3,0,.55-.23,.58-.53,.1-1.04,.19-2.38,.2-3.24,0-.28,.37-.4,.53-.17,.65,.9,1.3,2.3,1.65,3.29,.11,.32,.42,.53,.76,.51,3.08-.18,6.22-.51,8.03-.9,.74-.16,1.16-.93,.91-1.64h0Z"/><path class="cls-3" d="M13.26,.5C8.11,.1,3.64,3.32,2.39,6.94c-.24,.71,.18,1.48,.91,1.64,1.69,.36,4.53,.67,7.39,.86,.14-2.72,.98-5.75,2.56-8.94h0Z"/><g><ellipse class="cls-9" cx="10.65" cy="15.45" rx="1.91" ry="1.52"/><ellipse class="cls-9" cx="21.02" cy="15.45" rx="1.91" ry="1.52"/><ellipse class="cls-1" cx="15.83" cy="14.28" rx="1.02" ry="1.14"/></g><path d="M29.09,10.89c-.07-.7-.18-1.39-.31-1.96,.82-.36,1.22-1.29,.93-2.14-.6-1.74-1.88-3.37-3.62-4.61-.21-.15-.5-.1-.65,.11-.15,.21-.1,.5,.11,.65,1.58,1.12,2.74,2.6,3.28,4.15,.15,.44-.1,.93-.57,1.03-1.67,.36-4.72,.7-7.96,.89-.13,0-.26-.07-.3-.2-.35-1-1.02-2.44-1.71-3.41-.19-.26-.53-.38-.84-.28-.31,.1-.53,.38-.53,.71-.02,.82-.1,2.14-.2,3.2,0,.06-.06,.11-.12,.11-3.76,.05-10.11-.36-13.19-1.03-.47-.1-.72-.6-.57-1.03,.68-1.97,2.39-3.82,4.59-4.95,2.46-1.27,5.28-1.55,7.94-.8,.31,.09,.63,.09,.94,0,3.17-.89,5.8-.19,7.44,.56,.23,.11,.51,0,.61-.23,.11-.23,0-.51-.23-.61-1.79-.81-4.64-1.57-8.08-.6-.14,.04-.29,.04-.43,0C9.53-1.26,3.52,2.24,1.96,6.79c-.29,.85,.11,1.78,.93,2.14-.13,.61-.24,1.29-.31,1.96-1.51,.4-2.58,1.66-2.58,3.12,0,2.07,2.12,3.63,4.36,3.17,1.14,2.04,3.1,3.64,5.59,4.61-.16,.33-.22,.69-.18,1.06-1.1,1.07-1.87,2.39-2.23,3.85-.3,1.21,.61,2.37,1.85,2.37h2.77c.26,0,.46-.21,.46-.46s-.21-.46-.46-.46h-.9c-.08-1.76-.25-4.03-.54-5.24-.07-.28-.02-.57,.12-.8,.65,.2,1.32,.36,2.02,.48,.13,.61,.25,1.43,.35,2.44,.05,.46,.4,.84,.86,.91,1.15,.18,2.38,.18,3.53,0,.46-.07,.81-.45,.86-.91,.1-1.02,.22-1.84,.35-2.44,.7-.12,1.38-.28,2.03-.48,.14,.24,.19,.52,.12,.8-.29,1.2-.47,3.48-.54,5.24h-6.08c-.26,0-.46,.21-.46,.46s.21,.46,.46,.46h7.94c1.24,0,2.15-1.17,1.85-2.37-.36-1.46-1.13-2.78-2.23-3.85,.04-.37-.03-.73-.18-1.06,2.49-.97,4.45-2.56,5.59-4.61,2.25,.46,4.36-1.1,4.36-3.17,0-1.46-1.06-2.72-2.58-3.12h0ZM.93,14.02c0-.94,.64-1.77,1.59-2.13-.02,.96,.04,2.47,.91,2.85,.12,.55,.29,1.08,.5,1.59-1.6,.19-3.01-.9-3.01-2.3Zm2.9-.13c-.08,0-.17-.18-.22-.34-.25-.74-.24-2.54,.18-4.4,.91,.17,2.07,.32,3.35,.46-.58,1.93-1.73,3.47-2.64,4.04-.25,.16-.48,.24-.67,.24Zm5.56,14.26c-.64,0-1.11-.6-.95-1.22,.27-1.08,.8-2.08,1.54-2.94,.19,1.25,.3,2.97,.35,4.16h-.94Zm8.15-3.2s-.04,.08-.08,.09c-1.05,.17-2.19,.17-3.24,0-.04,0-.08-.04-.08-.09-.09-.88-.19-1.62-.3-2.22,1.27,.14,2.64,.15,4,0-.11,.6-.21,1.34-.3,2.22h0Zm5.7,1.98c.15,.62-.31,1.22-.95,1.22h-.94c.05-1.19,.17-2.91,.35-4.16,.74,.85,1.27,1.86,1.54,2.94Zm-7.4-5.02c-5.88,0-10.41-2.87-11.45-7.18,.2-.06,.4-.16,.61-.29,1.28-.8,2.51-2.71,3.08-4.73,2.66,.25,5.83,.42,8.53,.38,.54,0,.98-.42,1.03-.95,.08-.87,.16-1.92,.19-2.74,.53,.86,1.02,1.96,1.29,2.73,.18,.51,.69,.85,1.23,.82,1.13-.07,2.22-.15,3.24-.24,.62,2.2,2.04,4.26,3.4,4.9,.1,.05,.2,.09,.3,.12-1.04,4.32-5.57,7.18-11.45,7.18h0Zm8.7-12.3c1.3-.14,2.45-.29,3.35-.46,.45,1.99,.43,3.92,.11,4.56-.03,.06-.1,.17-.16,.17-.93,0-2.58-1.85-3.31-4.27Zm3.2,6.71c.21-.51,.38-1.04,.5-1.59,.87-.38,.94-1.89,.92-2.84,.95,.36,1.59,1.19,1.59,2.13,0,1.41-1.42,2.49-3.01,2.3Zm-15.74-4.03c-.73,0-1.32,.59-1.32,1.32,0,.26,.21,.46,.46,.46s.46-.21,.46-.46c0-.21,.17-.39,.39-.39s.39,.17,.39,.39c0,.26,.21,.46,.46,.46s.46-.21,.46-.46c0-.73-.59-1.32-1.32-1.32Zm3.84,.39c-.82,0-1.48,.72-1.48,1.6s.66,1.6,1.48,1.6,1.48-.72,1.48-1.6-.66-1.6-1.48-1.6h0Zm0,2.27c-.3,0-.55-.3-.55-.67s.25-.67,.55-.67,.55,.3,.55,.67-.25,.67-.55,.67Zm3.77-2.67c-.73,0-1.32,.59-1.32,1.32,0,.26,.21,.46,.46,.46s.46-.21,.46-.46c0-.21,.17-.39,.39-.39s.39,.17,.39,.39c0,.26,.21,.46,.46,.46s.46-.21,.46-.46c0-.73-.59-1.32-1.32-1.32Z"/></svg>