<?xml version="1.0" encoding="UTF-8"?><svg id="_Слой_1" xmlns="http://www.w3.org/2000/svg" width="189.91" height="65.46" xmlns:xlink="http://www.w3.org/1999/xlink" viewBox="0 0 189.91 65.46"><defs><style>.cls-1{fill:#a71cae;}.cls-2{fill:#00afe0;}.cls-3{fill:url(#_Безымянный_градиент_4);}.cls-3,.cls-4,.cls-5,.cls-6,.cls-7,.cls-8,.cls-9,.cls-10{stroke:#000;stroke-miterlimit:10;stroke-width:.5px;}.cls-11{fill:#ff1c80;}.cls-12{fill:#2fc1b0;}.cls-4,.cls-13{fill:#ffc52c;}.cls-14{fill:#99319e;}.cls-5{fill:url(#_Безымянный_градиент_2);}.cls-15{fill:#961e9c;}.cls-6{fill:url(#_Безымянный_градиент_7);}.cls-7{fill:url(#_Безымянный_градиент);}.cls-16{fill:#8c2ca3;}.cls-8{fill:url(#_Безымянный_градиент_3);}.cls-17{fill:#f9ad70;}.cls-18{fill:#601a64;}.cls-9{fill:url(#_Безымянный_градиент_6);}.cls-10{fill:url(#_Безымянный_градиент_5);}</style><linearGradient id="_Безымянный_градиент" x1="89.62" y1="20.75" x2="96.56" y2="32.05" gradientTransform="translate(0 68) scale(1 -1)" gradientUnits="userSpaceOnUse"><stop offset="0" stop-color="#cd2dc7" stop-opacity=".94"/><stop offset="1" stop-color="#86118b"/></linearGradient><linearGradient id="_Безымянный_градиент_2" x1="104.65" y1="20" x2="112.55" y2="32.92" gradientTransform="translate(0 68) scale(1 -1)" gradientUnits="userSpaceOnUse"><stop offset="0" stop-color="#cd2dc7" stop-opacity=".94"/><stop offset="1" stop-color="#86118b"/></linearGradient><linearGradient id="_Безымянный_градиент_3" x1="122.2" y1="19.3" x2="128.22" y2="32.11" gradientTransform="translate(0 68) scale(1 -1)" gradientUnits="userSpaceOnUse"><stop offset="0" stop-color="#cd2dc7" stop-opacity=".94"/><stop offset="1" stop-color="#86118b"/></linearGradient><linearGradient id="_Безымянный_градиент_4" x1="135.56" y1="19.3" x2="142.5" y2="30.92" gradientTransform="translate(0 68) scale(1 -1)" gradientUnits="userSpaceOnUse"><stop offset="0" stop-color="#cd2dc7" stop-opacity=".94"/><stop offset="1" stop-color="#86118b"/></linearGradient><linearGradient id="_Безымянный_градиент_5" x1="150.87" y1="17.12" x2="158.07" y2="30.45" gradientTransform="translate(0 68) scale(1 -1)" gradientUnits="userSpaceOnUse"><stop offset="0" stop-color="#cd2dc7" stop-opacity=".94"/><stop offset="1" stop-color="#86118b"/></linearGradient><linearGradient id="_Безымянный_градиент_6" x1="59.65" y1="3292.19" x2="15.65" y2="3351.19" gradientTransform="translate(0 -3272.35)" gradientUnits="userSpaceOnUse"><stop offset="0" stop-color="#cd2dc7" stop-opacity=".94"/><stop offset="1" stop-color="#86118b"/></linearGradient><linearGradient id="_Безымянный_градиент_7" x1="169.2" y1="18.19" x2="176.89" y2="30.08" gradientTransform="translate(0 68) scale(1 -1)" gradientUnits="userSpaceOnUse"><stop offset="0" stop-color="#cd2dc7" stop-opacity=".94"/><stop offset="1" stop-color="#86118b"/></linearGradient></defs><path class="cls-7" d="M94.15,41.51c.13-3.02,0-4.77-.38-5.28-.38-.5-.75-.75-1.25-.5-.4,.08-.73,.37-.88,.75-.36,.84-.57,1.73-.63,2.64-.17,1.37-.21,2.76-.13,4.15,0,1.14,.07,2.27,.25,3.39,.09,.58,.3,1.14,.63,1.63,.11,.31,.44,.47,.75,.38,.46,0,.89-.24,1.13-.63,.38-.5,.5-2.01,.5-4.4,1.63-.13,3.25-.13,4.76-.25,0,.38-.13,1.13-.25,2.51-.09,1.16-.34,2.3-.75,3.39-.3,.69-.78,1.3-1.38,1.76-.57,.47-1.2,.85-1.88,1.13-.68,.26-1.4,.39-2.13,.38-1.33,.13-2.66-.09-3.88-.63-1.16-.59-2.02-1.64-2.38-2.89-.28-.82-.49-1.66-.63-2.51v-2.89c0-1.01,.13-1.88,.13-2.89,.13-.88,.25-1.76,.38-2.51,.38-.88,.63-1.63,1-2.39,.31-.73,.74-1.41,1.25-2.01,.51-.63,1.15-1.15,1.88-1.51,.78-.4,1.63-.65,2.5-.75,.75-.13,1.51-.13,2.25,0,.52,.2,1.03,.45,1.5,.75,.47,.32,.86,.75,1.13,1.26,.28,.51,.49,1.06,.63,1.63,.24,1.16,.4,2.34,.5,3.52,0,1.26,.13,2.14,.13,2.39-1.63,.13-3.13,.25-4.76,.38h0Z"/><path class="cls-5" d="M111.3,41.76c.62,1.75,1.33,3.47,2.13,5.15,1.25,2.89,2,4.65,2.38,5.53-3.25-.25-5.26-.25-6.01-.25-.39-1.46-.9-2.89-1.5-4.27-.88-2.26-1.63-3.52-2.25-3.77v1.76c0,.63,0,1.63,.13,3.14s.13,2.51,.25,3.02c-1.88-.13-3.88-.13-5.76-.13,.13-1.01,.13-4.02,.13-9.17s0-8.79-.13-10.93c1.88-.13,3.76-.13,5.51-.13-.25,2.14-.38,3.52-.38,4.27v2.51c-.02,.46,.02,.93,.13,1.38,1.1-1.28,1.98-2.72,2.63-4.27,.88-2.14,1.5-3.39,1.63-3.77,1.88,0,3.76,0,5.63,.13-.82,1.3-1.57,2.64-2.25,4.02-1.25,2.14-1.88,3.39-2.13,3.89-.14,.36-.23,.74-.25,1.13,0,.26,.05,.51,.13,.75h-.02Z"/><path class="cls-8" d="M122.57,39.13c-.31,.02-.6,.11-.88,.25-.25,.13-.62,.25-1.13,.5s-1,.5-1.63,.75c-.38,.25-.63,.38-1,.63-.06-2.22,.03-4.45,.25-6.66,.16-.6,.46-1.16,.88-1.63,.58-.67,1.31-1.19,2.13-1.51,.93-.27,1.91-.4,2.88-.38,.99,.01,1.97,.23,2.88,.63,.86,.37,1.6,.98,2.13,1.76,.65,1.11,1.04,2.36,1.13,3.64,.12,1.38,.12,4.4,.12,8.79s0,7.16,.12,8.04c-1.5-.13-2.88-.25-4.38-.38,0-.25,.13-.63,.13-1.13v-1c-.56,.69-1.29,1.21-2.13,1.51-.8,.28-1.66,.36-2.5,.25-1.38-.08-2.7-.61-3.75-1.51-1.04-.97-1.59-2.35-1.5-3.77-.08-1.6,.45-3.18,1.5-4.4,1.12-1.17,2.49-2.08,4.01-2.64,.9-.37,1.77-.79,2.63-1.26,.58-.56,.9-1.33,.88-2.14,.07-.61-.06-1.23-.38-1.76-.27-.25-.63-.39-1-.38-.64-.03-1.21,.39-1.38,1.01-.13,.92-.13,1.85,0,2.76v.03Zm2.24,4.4c-.88,.35-1.69,.86-2.38,1.51-.66,.62-1.03,1.48-1,2.39-.03,.54,.2,1.05,.63,1.38,.36,.37,.88,.51,1.38,.38,.9-.15,1.61-.86,1.75-1.76,.35-1.14,.43-2.34,.25-3.52,0-.38-.13-.5-.63-.38h0Z"/><path class="cls-3" d="M142.84,43.52c.81,.58,1.46,1.36,1.88,2.26,.49,1.19,.71,2.48,.63,3.77,.13,1.73-.51,3.43-1.75,4.65-1.31,1.03-3,1.44-4.63,1.13-1.19-.07-2.37-.28-3.5-.63-.69-.31-1.32-.74-1.88-1.26-.49-.46-.87-1.02-1.13-1.63-.22-.57-.39-1.16-.5-1.76,0-.38-.13-1.88-.13-4.15,1.5,.13,3,.25,4.63,.38-.12,2.01-.12,3.39,.25,4.02,.34,.65,1.02,1.04,1.75,1.01,.41,0,.81-.12,1.13-.38,.38-.25,.5-1.01,.5-2.26,.02-.55-.02-1.1-.12-1.63-.13-.5-.25-.88-.38-1.26-.25-.25-.5-.63-.75-.88-.45-.27-.98-.4-1.5-.38v-3.27h1.25c.33,0,.65-.13,.88-.38,.24-.29,.41-.64,.5-1.01,.11-.49,.16-1,.12-1.51,.02-.38-.02-.76-.12-1.13-.13-.38-.13-.75-.25-1.01-.09-.26-.27-.48-.5-.63-.27-.16-.57-.24-.88-.25-.88,0-1.38,.5-1.5,1.51-.14,.62-.14,1.26,0,1.88l-4.51-.38c-.07-1.48,.1-2.97,.5-4.4,.5-.88,1.3-1.55,2.25-1.88,1.13-.38,2.32-.55,3.5-.5,1.12-.04,2.23,.18,3.25,.63,.7,.36,1.33,.82,1.88,1.38,.49,.6,.88,1.28,1.13,2.01,.16,.87,.24,1.75,.25,2.64,.06,1.03-.11,2.06-.5,3.02-.34,.82-.96,1.49-1.75,1.88-.17,.17-.17,.29,0,.38v.02Z"/><path class="cls-10" d="M157.76,43.48c.62,1.84,1.33,3.64,2.13,5.4,1.25,3.02,2,4.9,2.38,5.78-3.25,.38-5.26,.63-6.01,.75-.39-1.58-.89-3.14-1.5-4.65-.88-2.39-1.63-3.77-2.25-4.02v2.01c0,.63,0,1.88,.12,3.52s.12,2.76,.25,3.27c-1.88,.13-3.88,.13-5.76,.13,.13-1.13,.13-4.52,.13-10.43s0-9.92-.13-12.31c1.88-.13,3.76-.25,5.51-.38-.25,2.39-.38,4.02-.38,4.9v2.89c-.02,.51,.02,1.01,.12,1.51,1.11-1.59,2-3.32,2.63-5.15,.88-2.51,1.5-4.02,1.63-4.52,1.88-.25,3.76-.5,5.63-.88-.38,.63-1.13,2.39-2.25,4.9-1.25,2.64-1.88,4.15-2.13,4.65-.12,.45-.21,.91-.25,1.38,0,.42,.03,.84,.12,1.26h0Z"/><path class="cls-4" d="M7.87,39.33H.25v-6.02l14.1-13.16h12.57V60.01H7.87s0-20.68,0-20.68Z"/><path class="cls-9" d="M62.3,44.28c0,13.16-7.87,20.93-20.83,20.93s-20.83-7.77-20.83-20.93c-.13-13.16,7.75-20.93,20.83-20.93s20.83,7.77,20.83,20.93Zm-20.83-4.26c-1.65,0-2.41,1.13-2.41,4.26s.76,4.26,2.41,4.26,2.41-1.13,2.41-4.26-.76-4.26-2.41-4.26Z"/><path class="cls-11" d="M145.91,48.2c.47,1.14,.82,2.33,1.05,3.54l1.43-.26-.12-3.16c.06,.02-1.41-1.02-2.36-.12Z"/><path class="cls-11" d="M82.96,47.77c-.12,.44,3.91,2.73,7.16,7.2l3.08-2.5-4.37-7.53s-4.79-.68-5.87,2.82h0Z"/><path class="cls-11" d="M88.09,50.33c.3,1.21,.51,2.44,.63,3.68l1.45-.12,.27-3.19c.06,.02-1.24-1.16-2.36-.38h.01Z"/><path class="cls-13" d="M189.91,46.23l-3.84,2.82-2.83-11.02,3.82-3.57,2.85,11.77h0Z"/><path class="cls-13" d="M47.62,62.02l-.61,2.26-4.55-3.52,.37-2.58,4.79,3.84Z"/><path class="cls-16" d="M101.43,25.63l4.67-1.23-1.25-4.93-6.16,2.22,2.74,3.94Z"/><path class="cls-12" d="M168.69,29.35l-.52,5.8,4.32,1.73,.22-8.05s-4.02,.52-4.02,.52Z"/><path class="cls-12" d="M165.83,47.41l-4.1,.56-.51,3.12,5.58-1.06-.98-2.63h0Z"/><path class="cls-2" d="M39.25,17.5c1.66,3.64,1.1,7.9-1.46,10.98l-3.92-5.39s5.38-5.59,5.38-5.59Z"/><path class="cls-2" d="M150.47,36.61c.65-1.69,2.19-2.88,3.99-3.08l-.46,2.94s-3.53,.14-3.53,.14Z"/><path class="cls-6" d="M170.29,40.46c-.31,.02-.6,.11-.88,.25-.25,.13-.62,.25-1.13,.5s-1,.5-1.63,.75c-.38,.25-.63,.38-1,.63-.06-2.22,.03-4.45,.25-6.66,.16-.6,.46-1.16,.88-1.63,.58-.67,1.31-1.19,2.13-1.51,.93-.27,1.91-.4,2.88-.38,.99,0,1.97,.23,2.88,.63,.86,.37,1.6,.98,2.13,1.76,.65,1.11,1.04,2.36,1.13,3.64,.12,1.38,.12,4.4,.12,8.79s0,7.16,.12,8.04c-1.5-.13-2.88-.25-4.38-.38,0-.25,.13-.63,.13-1.13v-1c-.56,.69-1.29,1.21-2.13,1.51-.8,.28-1.66,.36-2.5,.25-1.38-.08-2.7-.61-3.75-1.51-1.04-.97-1.59-2.35-1.5-3.77-.08-1.6,.45-3.18,1.5-4.4,1.12-1.17,2.49-2.08,4.01-2.64,.9-.37,1.77-.79,2.63-1.26,.58-.56,.9-1.33,.88-2.14,.07-.61-.06-1.23-.38-1.76-.27-.25-.63-.39-1-.38-.64-.03-1.21,.39-1.38,1.01-.13,.92-.13,1.85,0,2.76v.03Zm2.24,4.4c-.88,.35-1.69,.86-2.38,1.51-.66,.62-1.03,1.48-1,2.39-.03,.54,.2,1.05,.63,1.38,.36,.37,.88,.51,1.38,.38,.9-.15,1.61-.86,1.75-1.76,.35-1.14,.43-2.34,.25-3.52,0-.38-.13-.5-.63-.38h0Z"/><path class="cls-4" d="M61.45,38.02h-7.62v-6.02l14.1-13.16h12.57V58.7h-19.05v-20.68Z"/><g><path class="cls-13" d="M55.72,28.46h0l.51-26.56-18.72,18.84c-.07,.07-.13,.15-.17,.24-.55,1.31,3.1,4.1,8.16,6.25s9.61,2.82,10.17,1.52c.04-.09,.06-.19,.05-.29Z"/><path class="cls-17" d="M54.48,29.37c.63-.08,1.04-.29,1.19-.63,.04-.09,.06-.19,.05-.29h0l.51-26.56-1.25,1.25-.5,26.21v.02Z"/><path class="cls-1" d="M56.13,7.31c-1.56-.12-3.11-.33-4.64-.64l-2.86,2.87c2.43,.67,4.92,1.09,7.43,1.26,0,0,.07-3.49,.07-3.49Z"/><path class="cls-1" d="M55.99,14.7c-3.61-.11-7.18-.74-10.61-1.87l-2.63,2.64c4.2,1.68,8.66,2.59,13.17,2.71,0,0,.07-3.48,.07-3.48Z"/><path class="cls-1" d="M55.78,25.51l.07-3.45c-5.62,.11-11.2-1.03-16.32-3.35l-2.02,2.03c-.15,.15-.23,.35-.22,.56,5.71,2.95,12.07,4.4,18.5,4.21h0Z"/><path class="cls-15" d="M54.56,25.54c.4,0,.81,0,1.22-.02l.07-3.45c-.41,.01-.82,.01-1.22,0,0,0-.07,3.47-.07,3.47Z"/><path class="cls-15" d="M54.7,18.13c.4,.02,.81,.04,1.22,.05l.07-3.48c-.41-.01-.82-.03-1.22-.06l-.07,3.49Z"/><path class="cls-15" d="M54.84,10.7c.4,.04,.81,.07,1.22,.1l.07-3.49c-.41-.03-.82-.07-1.22-.11,0,0-.07,3.5-.07,3.5Z"/><path class="cls-14" d="M55.73,3.09c.82,.35,1.76-.04,2.11-.85,.35-.82-.04-1.76-.85-2.11-.82-.35-1.76,.04-2.11,.85h0c-.35,.82,.04,1.76,.85,2.11Z"/><path class="cls-18" d="M56.14,2.1c-.63-.27-1.02-.9-.98-1.58-.6,.66-.55,1.67,.1,2.27,.66,.6,1.67,.55,2.27-.1,.25-.27,.39-.62,.42-.98-.46,.5-1.19,.66-1.81,.4h0Z"/></g></svg>