<?xml version="1.0" encoding="UTF-8"?><svg id="Capa_1" xmlns="http://www.w3.org/2000/svg" width="31" height="31" viewBox="0 0 31 31"><defs><style>.cls-1{fill:#ffce62;}.cls-2{fill:#c6fcfd;}.cls-3{fill:#4f80e6;}</style></defs><g><circle class="cls-3" cx="15.5" cy="15.5" r="14.89"/><circle class="cls-2" cx="15.5" cy="15.5" r="12.02"/><circle class="cls-1" cx="15.5" cy="15.5" r="1.51"/></g><g><path d="M28.36,6.84c-.19-.28-.56-.35-.84-.16-.28,.19-.35,.56-.16,.84,3.82,5.65,3.08,13.26-1.75,18.09-2.7,2.7-6.29,4.19-10.1,4.19s-7.41-1.49-10.1-4.19c-2.7-2.7-4.19-6.29-4.19-10.1s1.49-7.41,4.19-10.1C10.31,.48,18.01-.2,23.69,3.79c.27,.19,.65,.13,.84-.15,.19-.27,.13-.65-.15-.84C21.44,.73,17.83-.24,14.22,.05c-3.65,.3-7.09,1.89-9.68,4.49C1.61,7.47,0,11.36,0,15.5s1.61,8.03,4.54,10.96c2.93,2.93,6.82,4.54,10.96,4.54s8.03-1.61,10.96-4.54c5.24-5.24,6.04-13.49,1.9-19.62Z"/><path d="M15.5,2.88C8.54,2.88,2.88,8.54,2.88,15.5s5.66,12.62,12.62,12.62,12.62-5.66,12.62-12.62S22.46,2.88,15.5,2.88Zm0,24.04c-6.29,0-11.41-5.12-11.41-11.41S9.21,4.09,15.5,4.09s11.41,5.12,11.41,11.41-5.12,11.41-11.41,11.41Z"/><path d="M19.35,18.5l-1.99-1.99c.16-.3,.26-.64,.26-1.01,0-.96-.64-1.77-1.51-2.03v-4.39c0-.33-.27-.61-.61-.61s-.61,.27-.61,.61v4.39c-.87,.26-1.51,1.07-1.51,2.03,0,1.17,.95,2.12,2.12,2.12,.36,0,.71-.09,1.01-.26l1.99,1.99c.12,.12,.27,.18,.43,.18s.31-.06,.43-.18c.24-.24,.24-.62,0-.86h0Zm-4.76-3c0-.5,.41-.91,.91-.91s.91,.41,.91,.91-.41,.91-.91,.91-.91-.41-.91-.91h0Z"/><path d="M15.5,7.15c.33,0,.61-.27,.61-.61v-.61c0-.33-.27-.61-.61-.61s-.61,.27-.61,.61v.61c0,.33,.27,.61,.61,.61Z"/><path d="M11.24,6.91c-.17-.29-.54-.39-.83-.22-.29,.17-.39,.54-.22,.83l.31,.53c.11,.19,.32,.3,.52,.3,.1,0,.21-.03,.3-.08,.29-.17,.39-.54,.22-.83l-.31-.53Z"/><path d="M8.05,10.5l-.53-.31c-.29-.17-.66-.07-.83,.22-.17,.29-.07,.66,.22,.83l.53,.31c.1,.06,.2,.08,.3,.08,.21,0,.41-.11,.52-.3,.17-.29,.07-.66-.22-.83h0Z"/><path d="M7.15,15.5c0-.33-.27-.61-.61-.61h-.61c-.33,0-.61,.27-.61,.61s.27,.61,.61,.61h.61c.33,0,.61-.27,.61-.61Z"/><path d="M7.44,19.45l-.53,.31c-.29,.17-.39,.54-.22,.83,.11,.19,.32,.3,.52,.3,.1,0,.21-.03,.3-.08l.53-.31c.29-.17,.39-.54,.22-.83-.17-.29-.54-.39-.83-.22Z"/><path d="M11.33,22.73c-.29-.17-.66-.07-.83,.22l-.31,.53c-.17,.29-.07,.66,.22,.83,.1,.06,.2,.08,.3,.08,.21,0,.41-.11,.52-.3l.31-.53c.17-.29,.07-.66-.22-.83Z"/><path d="M15.5,23.85c-.33,0-.61,.27-.61,.61v.61c0,.33,.27,.61,.61,.61s.61-.27,.61-.61v-.61c0-.33-.27-.61-.61-.61Z"/><path d="M20.5,22.95c-.17-.29-.54-.39-.83-.22-.29,.17-.39,.54-.22,.83l.31,.53c.11,.19,.32,.3,.52,.3,.1,0,.21-.03,.3-.08,.29-.17,.39-.54,.22-.83l-.31-.53Z"/><path d="M24.09,19.76l-.53-.31c-.29-.17-.66-.07-.83,.22-.17,.29-.07,.66,.22,.83l.53,.31c.1,.06,.2,.08,.3,.08,.21,0,.41-.11,.52-.3,.17-.29,.07-.66-.22-.83Z"/><path d="M23.85,15.5c0,.33,.27,.61,.61,.61h.61c.33,0,.61-.27,.61-.61s-.27-.61-.61-.61h-.61c-.33,0-.61,.27-.61,.61Z"/><path d="M22.95,10.5c-.29,.17-.39,.54-.22,.83,.11,.19,.32,.3,.52,.3,.1,0,.21-.03,.3-.08l.53-.31c.29-.17,.39-.54,.22-.83s-.54-.39-.83-.22l-.53,.31Z"/><path d="M20.59,6.69c-.29-.17-.66-.07-.83,.22l-.31,.53c-.17,.29-.07,.66,.22,.83,.1,.06,.2,.08,.3,.08,.21,0,.41-.11,.52-.3l.31-.53c.17-.29,.07-.66-.22-.83Z"/><circle cx="26.1" cy="5.08" r=".61"/></g></svg>